if (_typeface_js && _typeface_js.loadFace) _typeface_js.loadFace({"glyphs":{"":{"x_min":50,"x_max":658.390625,"ha":720,"o":"m 190 219 l 190 315 l 295 315 q 356 328 326 315 q 411 365 387 341 q 451 422 436 390 q 466 491 466 454 q 422 604 466 569 q 279 639 379 639 q 175 620 226 639 q 87 587 123 602 l 70 630 l 54 681 q 168 728 102 710 q 320 747 233 747 q 437 731 386 747 q 525 685 488 715 q 580 615 561 656 q 600 524 600 574 q 555 374 600 433 q 445 292 511 316 l 445 277 q 529 253 490 270 q 596 205 568 235 q 641 132 625 176 q 658 30 658 89 q 627 -119 658 -57 q 543 -219 595 -180 q 422 -274 491 -257 q 279 -292 354 -292 q 149 -277 204 -292 q 50 -243 94 -263 l 66 -202 q 77 -175 72 -191 q 87 -148 83 -160 q 174 -174 129 -164 q 255 -184 219 -184 q 459 -128 397 -184 q 522 31 522 -72 q 455 175 522 132 q 276 219 388 219 l 190 219 "},"ҷ":{"x_min":83.34375,"x_max":773.671875,"ha":801,"o":"m 211 729 l 211 549 q 215 470 211 505 q 236 410 220 435 q 281 372 252 385 q 355 359 309 359 q 474 375 426 359 q 547 410 522 391 l 547 729 l 675 729 l 675 108 l 773 108 l 773 -183 l 683 -183 l 661 0 l 547 0 l 547 309 q 466 271 520 292 q 322 251 412 251 q 218 263 263 251 q 143 306 173 276 q 98 387 113 337 q 83 515 83 438 l 83 729 l 211 729 "},"Ҿ":{"x_min":2.640625,"x_max":1101.484375,"ha":1197,"o":"m 430 430 q 775 102 455 102 q 901 121 843 102 q 1000 164 959 140 l 1034 54 q 925 6 987 26 q 783 -17 862 -12 l 762 -247 l 675 -247 l 645 -10 q 394 120 487 13 q 291 430 301 227 l 237 430 q 127 445 172 430 q 53 485 81 460 q 13 544 25 510 q 2 616 1 578 q 13 679 4 656 q 41 719 22 702 l 168 719 q 136 675 144 702 q 127 629 127 649 q 131 601 127 615 q 148 574 136 586 q 184 553 161 561 q 247 544 208 544 q 268 545 258 544 q 291 547 279 546 q 410 874 302 759 q 712 990 518 990 q 1002 883 904 990 q 1101 581 1101 776 q 1098 507 1101 545 q 1087 430 1094 470 l 430 430 m 958 549 q 961 582 961 565 q 962 614 962 599 q 948 712 962 666 q 904 794 934 759 q 827 850 873 829 q 715 871 780 871 q 507 789 579 871 q 429 549 436 707 l 958 549 "},"ӱ":{"x_min":11.109375,"x_max":726.453125,"ha":738,"o":"m 348 268 l 391 127 l 409 127 l 444 269 l 595 729 l 726 729 l 487 69 q 434 -62 461 1 q 374 -175 406 -126 q 302 -255 341 -225 q 211 -285 262 -285 q 116 -272 155 -285 l 137 -164 q 179 -171 158 -171 q 229 -164 206 -171 q 272 -138 252 -157 q 307 -88 291 -120 q 337 -4 323 -55 l 11 729 l 162 729 l 348 268 m 158 881 q 180 936 158 914 q 238 959 202 959 q 295 936 273 959 q 316 881 316 914 q 295 827 316 849 q 238 805 273 805 q 180 827 202 805 q 158 881 158 849 m 456 881 q 478 936 456 914 q 536 959 500 959 q 593 936 572 959 q 615 881 615 914 q 593 827 615 849 q 536 805 572 805 q 478 827 500 805 q 456 881 456 849 "},"":{"x_min":66.671875,"x_max":670.890625,"ha":754,"o":"m 198 422 l 533 422 q 467 582 525 522 q 301 642 409 642 q 188 624 236 642 q 108 587 140 606 l 66 681 q 179 731 115 713 q 329 750 243 750 q 481 723 416 750 q 588 647 545 697 q 650 525 630 597 q 670 364 670 454 q 576 79 670 178 q 316 -19 481 -19 q 175 -7 241 -19 q 66 28 108 4 l 101 134 q 191 101 138 114 q 297 89 244 89 q 467 142 409 89 q 534 314 525 195 l 198 314 l 198 422 m 104 925 l 559 925 l 559 829 l 104 829 l 104 925 "},"":{"x_min":80.5625,"x_max":957.015625,"ha":1038,"o":"m 80 486 q 110 699 80 605 q 196 857 140 792 q 334 955 252 921 q 518 990 415 990 q 710 953 627 990 q 847 850 793 916 q 929 691 902 784 q 957 486 957 598 q 927 272 957 366 q 840 114 897 179 q 702 16 783 50 q 518 -18 620 -18 q 325 18 406 -18 q 188 121 243 55 q 107 280 134 187 q 80 486 80 373 m 227 433 q 253 302 233 363 q 309 196 273 241 q 397 126 345 152 q 518 101 448 101 q 720 181 643 101 q 809 433 798 262 l 227 433 m 809 550 q 782 675 802 616 q 725 777 761 733 q 637 845 688 820 q 518 871 586 871 q 318 792 395 871 q 229 550 241 713 l 809 550 m 283 1104 q 306 1153 283 1135 q 369 1172 329 1172 q 431 1153 408 1172 q 455 1104 455 1135 q 431 1054 455 1073 q 369 1036 408 1036 q 306 1054 329 1036 q 283 1104 283 1073 m 580 1104 q 603 1153 580 1135 q 665 1172 626 1172 q 729 1153 705 1172 q 752 1104 752 1135 q 729 1054 752 1073 q 665 1036 705 1036 q 603 1054 626 1036 q 580 1104 580 1073 m 388 1388 q 430 1312 395 1338 q 524 1287 466 1287 q 618 1312 582 1287 q 660 1386 653 1338 l 777 1361 q 698 1242 759 1285 q 523 1199 637 1199 q 343 1236 413 1199 q 259 1358 273 1274 l 388 1388 "},"Á":{"x_min":11.109375,"x_max":884.796875,"ha":896,"o":"m 634 254 l 250 254 l 147 0 l 11 0 l 411 986 l 483 986 l 884 0 l 740 0 l 634 254 m 291 371 l 594 371 l 481 647 l 444 795 l 441 795 l 404 644 l 291 371 m 544 1209 l 728 1209 l 728 1177 l 480 1045 l 368 1045 l 544 1209 "},"ĥ":{"x_min":-45.65625,"x_max":768.109375,"ha":890,"o":"m 640 0 l 640 402 q 632 506 640 462 q 604 579 625 549 q 550 622 584 608 q 465 636 516 636 q 394 623 429 636 q 330 588 359 611 q 280 535 301 566 q 250 465 259 504 l 250 0 l 122 0 l 122 972 l 250 972 l 250 638 l 265 638 q 365 719 306 688 q 509 750 423 750 q 625 735 576 750 q 705 684 673 720 q 752 585 737 647 q 768 430 768 523 l 768 0 l 640 0 m 157 1209 l 258 1209 l 451 1069 l 451 1035 l 323 1035 l 233 1100 l 205 1149 l 176 1101 l 79 1035 l -45 1035 l -45 1071 l 157 1209 "},"»":{"x_min":61.109375,"x_max":670.890625,"ha":728,"o":"m 390 371 l 150 58 l 69 129 l 208 315 l 280 371 l 208 421 l 61 602 l 140 673 l 390 371 m 670 372 l 427 53 l 343 126 l 486 314 l 558 371 l 486 421 l 334 605 l 418 679 l 670 372 "},"∆":{"x_min":22.21875,"x_max":852.84375,"ha":868,"o":"m 22 0 l 22 62 l 405 986 l 465 986 l 852 62 l 852 0 l 22 0 m 175 119 l 693 119 l 469 645 l 431 784 l 429 784 l 387 644 l 175 119 "},"₽":{"x_min":44.453125,"x_max":788.953125,"ha":825,"o":"m 44 478 l 154 478 l 154 962 q 278 980 212 975 q 411 985 344 985 q 551 971 483 985 q 672 925 619 958 q 757 834 725 891 q 788 687 788 776 q 755 543 788 601 q 668 449 722 485 q 545 396 613 412 q 405 381 476 381 l 287 381 l 287 279 l 540 279 l 540 182 l 287 182 l 287 0 l 154 0 l 154 182 l 44 182 l 44 279 l 154 279 l 154 381 l 44 381 l 44 478 m 416 871 q 343 868 379 871 q 287 862 308 865 l 287 478 l 398 478 q 487 487 443 478 q 567 519 531 496 q 625 583 602 543 q 647 684 647 623 q 629 774 647 739 q 579 831 611 809 q 506 861 548 852 q 416 871 463 871 "},"Ԓ":{"x_min":-5.5625,"x_max":825.0625,"ha":949,"o":"m 825 -33 q 776 -226 825 -161 q 620 -292 727 -292 q 565 -287 594 -292 l 565 -170 q 632 -163 608 -171 q 668 -136 657 -156 q 683 -83 680 -117 q 686 0 686 -50 l 686 850 l 380 850 q 340 396 365 576 q 261 115 315 216 q 178 20 225 48 q 80 -7 131 -7 q 32 -3 51 -7 q -5 6 13 0 l 11 125 q 77 124 43 115 q 144 187 112 134 q 183 283 165 222 q 215 440 201 345 q 238 665 229 534 q 252 972 248 797 l 825 972 l 825 -33 "},"ў":{"x_min":11.109375,"x_max":726.453125,"ha":738,"o":"m 348 268 l 391 127 l 409 127 l 444 269 l 595 729 l 726 729 l 487 69 q 434 -62 461 1 q 374 -175 406 -126 q 302 -255 341 -225 q 211 -285 262 -285 q 116 -272 155 -285 l 137 -164 q 179 -171 158 -171 q 229 -164 206 -171 q 272 -138 252 -157 q 307 -88 291 -120 q 337 -4 323 -55 l 11 729 l 162 729 l 348 268 m 268 989 q 287 940 275 958 q 316 913 300 922 q 355 902 333 904 q 400 900 376 900 q 445 902 423 900 q 483 915 466 905 q 512 941 500 925 q 532 987 525 958 l 632 958 q 552 843 616 876 q 397 810 487 810 q 314 816 354 810 q 241 840 273 823 q 185 884 208 857 q 154 952 162 911 l 268 989 "},"":{"x_min":83.34375,"x_max":1012.6875,"ha":901,"o":"m 747 251 q 749 118 747 180 q 762 -3 751 56 l 677 -3 l 645 108 l 632 108 q 538 17 600 53 q 394 -19 476 -19 q 160 74 237 -19 q 83 360 83 167 q 178 645 83 546 q 445 745 273 745 q 497 742 475 745 q 541 738 520 740 q 579 729 561 735 q 619 718 598 724 l 619 972 l 747 972 l 747 251 m 619 595 q 550 627 587 618 q 452 637 513 637 q 278 571 340 637 q 216 358 216 506 q 227 251 216 300 q 262 165 238 201 q 325 109 286 129 q 420 89 363 89 q 552 131 505 89 q 619 257 600 173 l 619 595 m 868 972 l 1012 972 l 1012 940 l 857 764 l 779 764 l 868 972 "},"ţ":{"x_min":33.34375,"x_max":540.328125,"ha":563,"o":"m 33 729 l 156 729 l 156 876 l 284 910 l 284 729 l 504 729 l 504 621 l 284 621 l 284 249 q 306 126 284 162 q 383 90 329 90 q 446 97 418 90 q 511 117 475 104 l 540 26 q 462 -2 504 9 q 373 -18 420 -13 l 340 -74 q 441 -110 408 -85 q 473 -180 473 -135 q 422 -274 473 -239 q 279 -310 370 -310 q 242 -308 261 -310 q 204 -303 223 -307 l 216 -253 q 293 -251 265 -255 q 334 -237 320 -247 q 352 -216 348 -228 q 355 -193 355 -204 q 320 -157 355 -170 q 218 -137 284 -143 l 290 -15 q 188 48 219 -4 q 156 205 156 101 l 156 621 l 33 621 l 33 729 "},"«":{"x_min":55.5625,"x_max":666.71875,"ha":728,"o":"m 336 360 l 577 673 l 658 602 l 518 416 l 445 360 l 518 310 l 666 127 l 586 58 l 336 360 m 55 359 l 300 679 l 383 606 l 241 417 l 168 360 l 241 310 l 393 126 l 308 53 l 55 359 "},"":{"x_min":136.125,"x_max":444.90625,"ha":521,"o":"m 136 730 l 263 730 l 215 455 l 136 455 l 136 730 m 317 730 l 444 730 l 396 455 l 317 455 l 317 730 "},"í":{"x_min":154.34375,"x_max":387.6875,"ha":440,"o":"m 158 729 l 286 729 l 286 0 l 158 0 l 158 729 m 243 1000 l 387 1000 l 387 968 l 232 792 l 154 792 l 243 1000 "},"ң":{"x_min":122.234375,"x_max":845.90625,"ha":874,"o":"m 616 318 l 250 318 l 250 0 l 122 0 l 122 729 l 250 729 l 250 432 l 616 432 l 616 729 l 744 729 l 744 108 l 845 108 l 845 -183 l 755 -183 l 733 0 l 616 0 l 616 318 "},"ņ":{"x_min":122.234375,"x_max":768.109375,"ha":890,"o":"m 640 0 l 640 402 q 602 577 640 519 q 469 636 565 636 q 328 592 384 636 q 250 480 272 548 l 250 0 l 122 0 l 122 729 l 211 729 l 236 631 l 248 631 q 353 715 288 681 q 508 750 418 750 q 620 735 572 750 q 702 684 669 720 q 751 585 734 647 q 768 429 768 523 l 768 0 l 640 0 m 334 -141 q 359 -91 334 -110 q 415 -72 383 -72 q 485 -98 455 -72 q 515 -180 515 -124 q 501 -247 515 -218 q 468 -297 487 -276 q 427 -330 448 -318 q 389 -349 405 -343 l 348 -293 q 393 -260 375 -282 q 412 -207 412 -239 q 357 -194 380 -213 q 334 -141 334 -174 "},"µ":{"x_min":109.734375,"x_max":805.625,"ha":883,"o":"m 237 729 l 237 331 q 277 147 237 209 q 416 86 316 86 q 570 139 508 86 q 657 279 633 192 l 657 729 l 784 729 l 784 234 q 788 115 784 176 q 805 0 791 55 l 722 0 l 676 119 l 659 119 q 618 68 643 93 q 561 24 593 43 q 488 -6 529 5 q 402 -18 448 -18 q 288 3 329 -18 q 219 59 248 25 l 200 59 l 237 -106 l 237 -279 l 109 -279 l 109 729 l 237 729 "},"Ҫ":{"x_min":80.5625,"x_max":811.171875,"ha":867,"o":"m 811 41 q 716 0 772 13 q 594 -17 659 -14 l 573 -247 l 486 -247 l 456 -11 q 309 37 377 1 q 190 135 241 73 q 109 283 138 196 q 80 485 80 370 q 122 717 80 621 q 230 874 163 813 q 380 962 297 934 q 545 990 463 990 q 695 980 637 990 q 794 955 754 970 l 763 839 q 556 871 695 871 q 435 850 494 871 q 329 783 376 829 q 255 664 283 737 q 227 485 227 591 q 254 319 227 391 q 327 199 280 248 q 436 126 373 150 q 575 102 500 102 q 693 114 643 102 q 777 147 743 127 l 811 41 "},"қ":{"x_min":122.234375,"x_max":762.5625,"ha":783,"o":"m 250 729 l 250 397 l 326 422 l 575 729 l 715 729 l 477 446 l 479 446 l 404 391 l 494 329 l 662 108 l 762 108 l 762 -183 l 672 -183 l 650 0 l 590 0 l 329 328 l 250 328 l 250 0 l 122 0 l 122 729 l 250 729 "},"₾":{"x_min":44.453125,"x_max":788.953125,"ha":825,"o":"m 44 478 l 154 478 l 154 962 q 278 980 212 975 q 411 985 344 985 q 551 971 483 985 q 672 925 619 958 q 757 834 725 891 q 788 687 788 776 q 755 543 788 601 q 668 449 722 485 q 545 396 613 412 q 405 381 476 381 l 287 381 l 287 279 l 540 279 l 540 182 l 287 182 l 287 0 l 154 0 l 154 182 l 44 182 l 44 279 l 154 279 l 154 381 l 44 381 l 44 478 m 416 871 q 343 868 379 871 q 287 862 308 865 l 287 478 l 398 478 q 487 487 443 478 q 567 519 531 496 q 625 583 602 543 q 647 684 647 623 q 629 774 647 739 q 579 831 611 809 q 506 861 548 852 q 416 871 463 871 "},"ѕ":{"x_min":75,"x_max":618.109375,"ha":693,"o":"m 490 204 q 477 250 490 232 q 441 282 463 269 q 390 305 419 296 q 329 325 361 315 q 247 349 288 336 q 174 385 206 362 q 120 444 141 408 q 100 536 100 480 q 164 697 100 644 q 345 750 229 750 q 493 733 433 750 q 597 697 552 716 l 566 589 q 477 624 529 607 q 362 642 425 642 q 261 619 294 642 q 227 539 227 597 q 240 499 227 515 q 273 471 252 483 q 322 450 294 459 q 380 433 350 441 q 463 407 422 422 q 540 368 505 393 q 596 307 575 344 q 618 212 618 269 q 548 45 618 110 q 340 -19 479 -19 q 185 0 251 -19 q 75 40 119 17 l 111 152 q 211 110 150 131 q 334 89 272 89 q 446 113 402 89 q 490 204 490 137 "},"Ш":{"x_min":123.625,"x_max":1208.4375,"ha":1332,"o":"m 123 0 l 123 972 l 262 972 l 262 122 l 597 122 l 597 972 l 736 972 l 736 122 l 1069 122 l 1069 972 l 1208 972 l 1208 0 l 123 0 "},"M":{"x_min":123.625,"x_max":1082.03125,"ha":1206,"o":"m 943 626 l 958 781 l 952 781 l 893 647 l 622 217 l 580 217 l 295 648 l 238 780 l 231 780 l 254 627 l 254 0 l 123 0 l 123 972 l 227 972 l 556 476 l 608 371 l 611 371 l 659 479 l 972 972 l 1082 972 l 1082 0 l 943 0 l 943 626 "},"ӊ":{"x_min":122.234375,"x_max":869.515625,"ha":886,"o":"m 616 318 l 250 318 l 250 0 l 122 0 l 122 729 l 250 729 l 250 432 l 616 432 l 616 729 l 744 729 l 744 108 l 869 108 l 869 74 l 730 -183 l 638 -183 l 708 0 l 616 0 l 616 318 "},"ŭ":{"x_min":122.234375,"x_max":772.28125,"ha":895,"o":"m 250 729 l 250 327 q 256 225 250 269 q 281 150 263 180 q 331 104 300 120 q 411 89 362 89 q 547 136 494 89 q 627 252 600 183 l 627 729 l 755 729 l 755 206 q 759 99 755 154 q 772 0 763 44 l 686 0 l 652 121 l 638 121 q 538 19 602 58 q 379 -19 475 -19 q 267 -3 315 -19 q 186 48 219 11 q 138 146 154 85 q 122 298 122 207 l 122 729 l 250 729 m 270 1054 q 348 976 299 1002 q 453 950 398 950 q 554 975 508 950 q 628 1054 601 1001 l 691 1027 q 665 961 685 994 q 613 903 645 928 q 539 862 581 878 q 452 847 498 847 q 293 894 362 847 q 201 1020 224 941 l 270 1054 "},"{":{"x_min":81.953125,"x_max":487.53125,"ha":532,"o":"m 202 150 q 171 247 202 221 q 81 274 140 274 l 81 380 q 171 408 140 380 q 202 497 202 436 l 202 821 q 238 930 202 887 q 348 974 275 974 l 487 974 l 487 863 l 409 863 q 330 776 330 863 l 330 465 q 297 373 330 404 q 223 335 265 342 l 223 324 q 297 282 263 318 q 330 188 330 246 l 330 -121 q 349 -186 330 -164 q 411 -208 368 -208 l 487 -208 l 487 -319 l 348 -319 q 241 -280 280 -319 q 202 -167 202 -241 l 202 150 "},"":{"x_min":123.625,"x_max":718.109375,"ha":813,"o":"m 123 972 l 711 972 l 711 853 l 262 853 l 262 557 l 672 557 l 672 438 l 262 438 l 262 119 l 718 119 l 718 0 l 123 0 l 123 972 m 169 1161 l 655 1161 l 655 1067 l 169 1067 l 169 1161 "},"ҿ":{"x_min":1.359375,"x_max":898.6875,"ha":988,"o":"m 370 347 q 431 155 373 219 q 630 91 490 91 q 741 111 688 91 q 823 159 794 131 l 872 58 q 772 7 832 27 q 643 -17 713 -11 l 622 -260 l 534 -260 l 504 -12 q 306 105 370 10 q 240 348 243 199 l 236 348 q 63 393 127 348 q 1 541 0 438 q 20 610 4 581 q 56 661 37 640 l 161 661 q 127 611 141 640 q 113 545 113 581 q 119 504 113 523 q 139 470 125 484 q 179 448 154 455 q 244 440 205 440 q 353 670 263 591 q 595 750 443 750 q 704 738 650 750 q 801 693 758 726 q 871 604 844 661 q 898 455 898 547 q 897 403 898 433 q 891 347 895 374 l 370 347 m 776 439 q 731 596 779 550 q 597 642 683 642 q 443 596 500 642 q 376 439 386 550 l 776 439 "},"¼":{"x_min":53.78125,"x_max":1195.984375,"ha":1281,"o":"m 951 992 l 1034 932 l 307 -18 l 223 44 l 951 992 m 1195 128 l 1070 128 l 1070 0 l 962 0 l 962 128 l 651 128 l 651 190 l 994 606 l 1070 606 l 1070 221 l 1195 221 l 1195 128 m 962 387 l 972 454 l 968 454 l 934 392 l 823 257 l 772 212 l 850 221 l 962 221 l 962 387 m 245 809 l 256 863 l 214 825 l 99 757 l 53 837 l 288 982 l 360 982 l 360 389 l 245 389 l 245 809 "},"Ḿ":{"x_min":123.625,"x_max":1082.03125,"ha":1206,"o":"m 943 626 l 958 781 l 952 781 l 893 647 l 622 217 l 580 217 l 295 648 l 238 780 l 231 780 l 254 627 l 254 0 l 123 0 l 123 972 l 227 972 l 556 476 l 608 371 l 611 371 l 659 479 l 972 972 l 1082 972 l 1082 0 l 943 0 l 943 626 m 674 1209 l 858 1209 l 858 1177 l 610 1045 l 498 1045 l 674 1209 "},"Ӄ":{"x_min":123.625,"x_max":834.78125,"ha":914,"o":"m 666 99 q 586 358 666 275 q 329 442 505 442 l 262 442 l 262 0 l 123 0 l 123 972 l 262 972 l 262 525 l 326 545 l 676 972 l 834 972 l 498 578 l 411 524 l 505 524 q 641 474 584 506 q 735 394 698 443 q 788 274 772 344 q 805 108 805 204 l 805 82 q 784 -89 805 -18 q 723 -205 762 -159 q 629 -271 684 -250 q 506 -292 573 -292 q 481 -291 494 -292 q 454 -289 468 -290 l 454 -170 q 553 -158 512 -171 q 619 -112 594 -144 q 655 -28 644 -80 q 666 99 666 23 "},"Ê":{"x_min":123.625,"x_max":718.109375,"ha":813,"o":"m 123 972 l 711 972 l 711 853 l 262 853 l 262 557 l 672 557 l 672 438 l 262 438 l 262 119 l 718 119 l 718 0 l 123 0 l 123 972 m 362 1209 l 463 1209 l 656 1069 l 656 1035 l 528 1035 l 438 1100 l 410 1149 l 381 1101 l 284 1035 l 159 1035 l 159 1071 l 362 1209 "},")":{"x_min":4.171875,"x_max":344.46875,"ha":436,"o":"m 4 -243 q 99 -110 59 -183 q 164 40 138 -36 q 202 194 190 117 q 213 337 213 270 q 203 483 213 408 q 169 635 193 559 q 105 785 145 711 q 5 929 65 859 l 86 989 q 207 836 158 918 q 287 668 256 754 q 331 498 318 583 q 344 337 344 413 q 331 174 344 259 q 287 4 318 88 q 209 -159 256 -79 q 90 -306 161 -239 l 4 -243 "},"э":{"x_min":66.671875,"x_max":670.890625,"ha":754,"o":"m 198 422 l 533 422 q 467 582 525 522 q 301 642 409 642 q 188 624 236 642 q 108 587 140 606 l 66 681 q 179 731 115 713 q 329 750 243 750 q 481 723 416 750 q 588 647 545 697 q 650 525 630 597 q 670 364 670 454 q 576 79 670 178 q 316 -19 481 -19 q 175 -7 241 -19 q 66 28 108 4 l 101 134 q 191 101 138 114 q 297 89 244 89 q 467 142 409 89 q 534 314 525 195 l 198 314 l 198 422 "},"Ӷ":{"x_min":123.625,"x_max":700.0625,"ha":675,"o":"m 123 972 l 700 972 l 700 850 l 262 850 l 262 122 l 395 122 l 395 -178 l 300 -178 l 277 0 l 123 0 l 123 972 "},"ӫ":{"x_min":83.34375,"x_max":793.125,"ha":876,"o":"m 83 364 q 175 648 83 547 q 438 750 266 750 q 594 721 527 750 q 704 641 661 693 q 770 519 748 590 q 793 364 791 448 q 699 81 791 182 q 438 -19 607 -19 q 279 9 347 -19 q 168 88 212 37 q 104 210 125 139 q 83 364 83 280 m 657 410 q 583 583 638 525 q 438 642 527 642 q 359 630 397 642 q 291 590 322 618 q 241 518 261 562 q 219 410 222 473 l 657 410 m 220 318 q 291 149 230 209 q 438 89 351 89 q 513 101 477 89 q 579 141 550 113 q 627 211 608 168 q 652 318 647 255 l 220 318 m 209 881 q 231 936 209 914 q 289 959 253 959 q 346 936 324 959 q 367 881 367 914 q 346 827 367 849 q 289 805 324 805 q 231 827 253 805 q 209 881 209 849 m 507 881 q 529 936 507 914 q 587 959 551 959 q 644 936 623 959 q 666 881 666 914 q 644 827 666 849 q 587 805 623 805 q 529 827 551 805 q 507 881 507 849 "},"ш":{"x_min":122.234375,"x_max":1066.75,"ha":1189,"o":"m 122 0 l 122 729 l 250 729 l 250 108 l 530 108 l 530 729 l 658 729 l 658 108 l 938 108 l 938 729 l 1066 729 l 1066 0 l 122 0 "},"Я":{"x_min":34.71875,"x_max":743.109375,"ha":867,"o":"m 743 0 l 604 0 l 604 413 l 455 383 l 195 0 l 34 0 l 269 338 l 361 399 q 261 431 306 409 q 181 487 215 452 q 128 569 147 522 q 109 679 109 616 q 141 822 109 764 q 227 916 173 880 q 355 969 281 953 q 512 985 429 985 q 625 980 563 985 q 743 962 687 975 l 743 0 m 504 866 q 411 857 455 866 q 332 828 366 849 q 277 772 298 807 q 256 681 256 736 q 276 594 256 630 q 329 537 295 559 q 409 506 363 516 q 505 497 454 497 l 604 497 l 604 857 q 562 864 584 863 q 504 866 540 866 "},"":{"x_min":123.625,"x_max":711.171875,"ha":785,"o":"m 123 972 l 711 972 l 711 853 l 262 853 l 262 543 l 679 543 l 679 424 l 262 424 l 262 0 l 123 0 l 123 972 "},"a":{"x_min":62.5,"x_max":691.71875,"ha":808,"o":"m 113 683 q 423 743 238 743 q 557 721 506 743 q 636 666 608 699 q 672 592 663 633 q 682 511 682 551 q 676 357 682 434 q 670 190 670 280 q 675 87 670 137 q 691 -3 680 38 l 598 -3 l 563 108 l 550 108 q 512 66 534 87 q 459 27 490 44 q 389 0 429 11 q 298 -11 350 -11 q 204 3 247 -11 q 129 44 161 18 q 80 109 98 70 q 62 194 62 147 q 89 303 62 257 q 159 378 116 348 q 257 421 202 407 q 366 435 312 435 q 439 433 409 435 q 489 430 469 432 q 523 425 509 428 q 548 422 537 423 q 552 458 551 443 q 554 497 554 473 q 545 562 554 536 q 518 605 537 589 q 468 628 500 621 q 390 635 436 635 q 331 630 363 635 q 268 618 300 626 q 204 599 236 611 q 148 576 173 588 l 113 683 m 548 330 q 525 334 537 331 q 493 338 512 337 q 449 341 475 340 q 386 343 423 343 q 249 312 300 343 q 198 208 198 281 q 238 124 198 152 q 340 97 277 97 q 421 108 386 97 q 482 138 456 120 q 524 176 508 155 q 548 219 540 198 l 548 330 "},"Ę":{"x_min":123.625,"x_max":752.84375,"ha":813,"o":"m 123 972 l 711 972 l 711 853 l 262 853 l 262 557 l 672 557 l 672 438 l 262 438 l 262 119 l 718 119 l 718 0 l 688 0 q 613 -54 641 -23 q 587 -127 586 -86 q 609 -181 588 -159 q 670 -204 630 -204 q 701 -200 684 -204 q 736 -190 718 -197 l 752 -254 q 687 -279 729 -270 q 608 -289 645 -289 q 496 -254 537 -289 q 455 -161 455 -220 q 499 -64 455 -105 q 616 0 543 -23 l 123 0 l 123 972 "},"Ӣ":{"x_min":123.625,"x_max":909.796875,"ha":1033,"o":"m 770 642 l 779 749 l 773 749 l 707 640 l 208 0 l 123 0 l 123 972 l 262 972 l 262 324 l 250 219 l 256 219 l 326 329 l 823 972 l 909 972 l 909 0 l 770 0 l 770 642 m 283 1161 l 769 1161 l 769 1067 l 283 1067 l 283 1161 "},"Z":{"x_min":54.171875,"x_max":773.671875,"ha":828,"o":"m 54 122 l 577 794 l 645 850 l 54 850 l 54 972 l 773 972 l 773 850 l 245 173 l 180 122 l 773 122 l 773 0 l 54 0 l 54 122 "},"ԧ":{"x_min":122.234375,"x_max":863.953125,"ha":886,"o":"m 768 108 l 863 108 l 863 -183 l 773 -183 l 751 0 l 640 0 l 640 402 q 632 506 640 462 q 604 579 625 549 q 550 622 584 608 q 465 636 516 636 q 394 623 429 636 q 330 588 359 611 q 280 535 301 566 q 250 465 259 504 l 250 0 l 122 0 l 122 972 l 250 972 l 250 638 l 265 638 q 365 719 306 688 q 509 750 423 750 q 625 735 576 750 q 705 683 673 720 q 752 585 737 647 q 768 430 768 523 l 768 108 "},"k":{"x_min":122.234375,"x_max":751.453125,"ha":774,"o":"m 329 328 l 250 328 l 250 0 l 122 0 l 122 972 l 250 972 l 250 397 l 322 421 l 563 729 l 713 729 l 481 447 l 483 447 l 406 391 l 494 329 l 751 0 l 590 0 l 329 328 "},"Ù":{"x_min":123.625,"x_max":862.5625,"ha":986,"o":"m 732 972 l 862 972 l 862 337 q 836 181 862 246 q 763 72 811 116 q 652 7 716 28 q 508 -13 587 -13 q 222 68 320 -13 q 123 309 123 149 l 123 972 l 262 972 l 262 361 q 324 164 262 220 q 506 109 386 109 q 677 170 623 109 q 732 366 732 231 l 732 972 m 619 1045 l 499 1045 l 259 1177 l 259 1209 l 442 1209 l 619 1045 "},"Ҷ":{"x_min":105.5625,"x_max":932.015625,"ha":972,"o":"m 244 972 l 244 664 q 288 520 244 571 q 429 470 333 470 q 560 486 500 470 q 658 531 620 503 l 658 972 l 797 972 l 797 122 l 932 122 l 932 -178 l 836 -178 l 813 0 l 658 0 l 658 413 q 550 371 618 391 q 395 351 483 351 q 277 366 330 351 q 185 416 223 381 q 126 504 147 451 q 105 635 105 558 l 105 972 l 244 972 "},"Ů":{"x_min":123.625,"x_max":862.5625,"ha":986,"o":"m 732 972 l 862 972 l 862 337 q 836 181 862 246 q 763 72 811 116 q 652 7 716 28 q 508 -13 587 -13 q 222 68 320 -13 q 123 309 123 149 l 123 972 l 262 972 l 262 361 q 324 164 262 220 q 506 109 386 109 q 677 170 623 109 q 732 366 732 231 l 732 972 m 337 1067 q 374 1152 337 1118 q 501 1187 412 1187 q 624 1156 581 1187 q 666 1067 666 1125 q 626 984 666 1017 q 501 951 585 951 q 377 982 417 951 q 337 1067 337 1014 m 434 1067 q 449 1031 434 1046 q 501 1016 465 1016 q 569 1067 569 1016 q 552 1107 569 1092 q 501 1122 535 1122 q 450 1107 466 1122 q 434 1067 434 1092 "},"¢":{"x_min":122.234375,"x_max":718.109375,"ha":825,"o":"m 718 47 q 631 8 680 24 q 530 -14 583 -7 l 530 -149 l 420 -149 l 420 -17 q 283 19 340 -11 q 190 99 226 49 q 138 215 155 148 q 122 362 122 281 q 198 629 122 531 q 420 744 275 727 l 420 875 l 530 875 l 530 746 q 625 732 583 743 q 704 707 668 722 l 666 602 q 595 626 633 618 q 519 638 556 635 l 519 87 q 608 105 566 89 q 682 139 650 120 l 718 47 m 436 635 q 247 362 247 610 q 256 272 247 316 q 289 191 266 227 q 347 128 312 155 q 436 91 383 100 l 436 635 "},"В":{"x_min":123.625,"x_max":808.390625,"ha":890,"o":"m 776 747 q 764 675 776 711 q 728 608 752 640 q 666 554 704 577 q 577 519 629 530 l 577 513 q 663 491 622 508 q 737 445 705 474 q 788 374 769 416 q 808 276 808 333 q 773 146 808 201 q 682 55 738 91 q 553 3 625 20 q 409 -13 481 -13 q 348 -12 384 -13 q 272 -9 312 -11 q 193 -3 233 -7 q 123 6 154 0 l 123 964 q 256 979 180 973 q 420 985 333 985 q 543 974 480 985 q 658 937 607 964 q 743 865 709 911 q 776 747 776 819 m 259 113 q 288 109 269 110 q 331 106 308 108 q 377 104 354 105 q 419 104 400 104 q 510 113 466 104 q 587 144 554 123 q 641 197 620 165 q 661 273 661 229 q 636 361 661 329 q 573 411 612 394 q 486 434 534 429 q 390 439 437 439 l 259 439 l 259 113 m 336 547 q 397 549 362 547 q 455 553 431 551 q 521 578 490 563 q 576 613 552 592 q 613 660 600 633 q 627 722 627 687 q 609 797 627 769 q 559 841 590 826 q 490 862 529 856 q 411 868 451 868 q 321 865 362 868 q 259 861 280 863 l 259 547 l 336 547 "},"І":{"x_min":95.84375,"x_max":456.984375,"ha":553,"o":"m 206 880 l 95 880 l 95 972 l 456 972 l 456 880 l 345 880 l 345 92 l 456 92 l 456 0 l 95 0 l 95 92 l 206 92 l 206 880 "},"ē":{"x_min":83.34375,"x_max":741.71875,"ha":831,"o":"m 715 59 q 594 2 666 23 q 437 -19 522 -19 q 278 8 345 -19 q 168 85 211 35 q 104 205 125 135 q 83 364 83 276 q 175 650 83 551 q 438 750 268 750 q 547 738 493 750 q 644 693 601 726 q 714 604 687 661 q 741 455 741 547 q 740 403 741 433 q 734 347 738 374 l 213 347 q 275 154 216 219 q 473 89 333 89 q 584 109 531 89 q 666 157 637 129 l 715 59 m 619 439 q 574 596 622 550 q 440 642 526 642 q 286 596 343 642 q 219 439 229 550 l 619 439 m 196 925 l 651 925 l 651 829 l 196 829 l 196 925 "},"≠":{"x_min":59.734375,"x_max":709.78125,"ha":770,"o":"m 59 646 l 411 646 l 498 828 l 619 828 l 530 646 l 709 646 l 709 529 l 473 529 l 415 407 l 709 407 l 709 290 l 358 290 l 261 89 l 143 89 l 240 290 l 59 290 l 59 407 l 295 407 l 355 529 l 59 529 l 59 646 "},"Ғ":{"x_min":12.5,"x_max":734.78125,"ha":739,"o":"m 734 850 l 297 850 l 297 536 l 626 536 l 626 433 l 297 433 l 297 0 l 158 0 l 158 433 l 12 433 l 12 536 l 158 536 l 158 972 l 734 972 l 734 850 "},"¥":{"x_min":-5.5625,"x_max":832.015625,"ha":825,"o":"m 158 460 l 300 460 l -5 972 l 156 972 l 400 559 l 423 471 l 426 471 l 452 562 l 684 972 l 832 972 l 531 460 l 675 460 l 675 368 l 486 368 l 486 267 l 675 267 l 675 175 l 486 175 l 486 0 l 347 0 l 347 175 l 158 175 l 158 267 l 347 267 l 347 368 l 158 368 l 158 460 "},"Ĥ":{"x_min":123.625,"x_max":894.515625,"ha":1018,"o":"m 755 435 l 262 435 l 262 0 l 123 0 l 123 972 l 262 972 l 262 557 l 755 557 l 755 972 l 894 972 l 894 0 l 755 0 l 755 435 m 460 1209 l 561 1209 l 754 1069 l 754 1035 l 626 1035 l 536 1100 l 508 1149 l 479 1101 l 382 1035 l 257 1035 l 257 1071 l 460 1209 "},"U":{"x_min":123.625,"x_max":862.5625,"ha":986,"o":"m 732 972 l 862 972 l 862 337 q 836 181 862 246 q 763 72 811 116 q 652 7 716 28 q 508 -13 587 -13 q 222 68 320 -13 q 123 309 123 149 l 123 972 l 262 972 l 262 361 q 324 164 262 220 q 506 109 386 109 q 677 170 623 109 q 732 366 732 231 l 732 972 "},"":{"x_min":123.625,"x_max":894.515625,"ha":1018,"o":"m 755 435 l 262 435 l 262 0 l 123 0 l 123 972 l 262 972 l 262 557 l 755 557 l 755 972 l 894 972 l 894 0 l 755 0 l 755 435 m 565 1209 l 749 1209 l 749 1177 l 501 1045 l 389 1045 l 565 1209 "},"Ñ":{"x_min":123.625,"x_max":897.296875,"ha":1021,"o":"m 326 617 l 243 754 l 237 754 l 254 617 l 254 0 l 123 0 l 123 986 l 201 986 l 697 355 l 776 226 l 783 226 l 766 355 l 766 972 l 897 972 l 897 -14 l 819 -14 l 326 617 m 264 1098 q 349 1159 308 1143 q 425 1175 389 1175 q 483 1167 454 1175 q 537 1151 511 1159 q 589 1134 564 1142 q 639 1127 614 1127 q 678 1133 658 1127 q 718 1157 699 1140 l 753 1086 q 677 1040 712 1052 q 608 1028 642 1028 q 551 1034 579 1028 q 497 1051 524 1041 q 446 1067 471 1060 q 396 1074 421 1074 q 347 1064 372 1074 q 297 1031 322 1055 l 264 1098 "},"F":{"x_min":123.625,"x_max":711.171875,"ha":785,"o":"m 123 972 l 711 972 l 711 853 l 262 853 l 262 543 l 679 543 l 679 424 l 262 424 l 262 0 l 123 0 l 123 972 "},"Ӹ":{"x_min":123.625,"x_max":1051.46875,"ha":1175,"o":"m 912 972 l 1051 972 l 1051 0 l 912 0 l 912 972 m 123 972 l 262 972 l 262 600 q 284 604 270 602 q 316 607 298 606 q 352 610 333 609 q 388 612 370 612 q 529 598 461 612 q 650 550 597 584 q 734 459 702 516 q 765 316 765 402 q 735 170 765 232 q 652 67 705 107 q 526 7 600 27 q 363 -13 452 -13 q 313 -12 343 -13 q 252 -8 284 -11 q 186 -1 219 -6 q 123 9 152 2 l 123 972 m 375 106 q 470 118 426 106 q 547 156 515 131 q 599 218 580 181 q 618 306 618 256 q 597 398 618 362 q 542 455 576 434 q 463 484 508 476 q 368 493 418 493 q 309 488 341 493 q 262 480 277 484 l 262 114 q 310 107 281 108 q 375 106 338 106 m 352 1104 q 375 1153 352 1135 q 438 1172 398 1172 q 500 1153 477 1172 q 524 1104 524 1135 q 500 1054 524 1073 q 438 1036 477 1036 q 375 1054 398 1036 q 352 1104 352 1073 m 649 1104 q 672 1153 649 1135 q 734 1172 695 1172 q 798 1153 774 1172 q 821 1104 821 1135 q 798 1054 821 1073 q 734 1036 774 1036 q 672 1054 695 1036 q 649 1104 649 1073 "},"":{"x_min":83.34375,"x_max":741.71875,"ha":831,"o":"m 715 59 q 594 2 666 23 q 437 -19 522 -19 q 278 8 345 -19 q 168 85 211 35 q 104 205 125 135 q 83 364 83 276 q 175 650 83 551 q 438 750 268 750 q 547 738 493 750 q 644 693 601 726 q 714 604 687 661 q 741 455 741 547 q 740 403 741 433 q 734 347 738 374 l 213 347 q 275 154 216 219 q 473 89 333 89 q 584 109 531 89 q 666 157 637 129 l 715 59 m 619 439 q 574 596 622 550 q 440 642 526 642 q 286 596 343 642 q 219 439 229 550 l 619 439 m 207 871 q 229 926 207 904 q 287 949 251 949 q 344 926 322 949 q 365 871 365 904 q 344 817 365 839 q 287 795 322 795 q 229 817 251 795 q 207 871 207 839 m 505 871 q 527 926 505 904 q 585 949 549 949 q 642 926 621 949 q 664 871 664 904 q 642 817 664 839 q 585 795 621 795 q 527 817 549 795 q 505 871 505 839 m 306 1164 q 348 1088 313 1114 q 442 1063 384 1063 q 536 1088 500 1063 q 578 1162 571 1114 l 695 1137 q 616 1018 677 1061 q 441 975 555 975 q 261 1012 331 975 q 177 1134 191 1050 l 306 1164 "},"Ԝ":{"x_min":11.109375,"x_max":1257.046875,"ha":1268,"o":"m 343 341 l 365 179 l 368 179 l 393 344 l 608 972 l 677 972 l 894 341 l 919 179 l 922 179 l 948 344 l 1120 972 l 1257 972 l 961 -14 l 882 -14 l 669 617 l 640 765 l 633 765 l 605 616 l 393 -14 l 312 -14 l 11 972 l 156 972 l 343 341 "},"Ќ":{"x_min":123.625,"x_max":882.015625,"ha":929,"o":"m 330 442 l 262 442 l 262 0 l 123 0 l 123 972 l 262 972 l 262 525 l 326 545 l 676 972 l 834 972 l 484 555 l 419 508 l 495 453 l 882 0 l 707 0 l 330 442 m 509 1209 l 693 1209 l 693 1177 l 445 1045 l 333 1045 l 509 1209 "},"∕":{"x_min":-21.296875,"x_max":789.875,"ha":770,"o":"m 706 992 l 789 932 l 62 -18 l -21 44 l 706 992 "},"å":{"x_min":62.5,"x_max":691.71875,"ha":808,"o":"m 113 683 q 423 743 238 743 q 557 721 506 743 q 636 666 608 699 q 672 592 663 633 q 682 511 682 551 q 676 357 682 434 q 670 190 670 280 q 675 87 670 137 q 691 -3 680 38 l 598 -3 l 563 108 l 550 108 q 512 66 534 87 q 459 27 490 44 q 389 0 429 11 q 298 -11 350 -11 q 204 3 247 -11 q 129 44 161 18 q 80 109 98 70 q 62 194 62 147 q 89 303 62 257 q 159 378 116 348 q 257 421 202 407 q 366 435 312 435 q 439 433 409 435 q 489 430 469 432 q 523 425 509 428 q 548 422 537 423 q 552 458 551 443 q 554 497 554 473 q 545 562 554 536 q 518 605 537 589 q 468 628 500 621 q 390 635 436 635 q 331 630 363 635 q 268 618 300 626 q 204 599 236 611 q 148 576 173 588 l 113 683 m 548 330 q 525 334 537 331 q 493 338 512 337 q 449 341 475 340 q 386 343 423 343 q 249 312 300 343 q 198 208 198 281 q 238 124 198 152 q 340 97 277 97 q 421 108 386 97 q 482 138 456 120 q 524 176 508 155 q 548 219 540 198 l 548 330 m 249 948 q 289 1044 249 1007 q 400 1081 329 1081 q 512 1048 467 1081 q 557 948 557 1015 q 545 897 557 920 q 512 856 533 873 q 462 828 492 838 q 400 818 433 818 q 291 852 333 818 q 249 948 249 886 m 328 948 q 351 903 328 920 q 400 886 374 886 q 455 901 432 886 q 478 948 478 916 q 454 996 478 980 q 400 1013 431 1013 q 350 997 372 1013 q 328 948 328 982 "},"0":{"x_min":61.109375,"x_max":765.34375,"ha":825,"o":"m 61 486 q 150 859 61 728 q 412 990 238 990 q 680 860 595 990 q 765 486 765 731 q 675 113 765 244 q 411 -18 584 -18 q 253 18 319 -18 q 145 120 187 54 q 81 279 102 186 q 61 486 61 372 m 197 486 q 209 329 197 401 q 247 205 222 258 q 314 122 273 152 q 412 93 355 93 q 577 190 525 93 q 629 486 629 287 q 618 642 629 570 q 581 766 607 713 q 513 849 555 819 q 412 879 472 879 q 248 780 300 879 q 197 486 197 681 "},"ō":{"x_min":83.34375,"x_max":793.125,"ha":876,"o":"m 83 364 q 106 525 83 454 q 176 647 130 597 q 288 723 222 697 q 438 750 354 750 q 594 720 527 750 q 705 639 661 691 q 771 517 750 587 q 793 364 793 447 q 768 204 793 275 q 699 83 744 133 q 588 7 654 33 q 438 -19 522 -19 q 280 10 347 -19 q 170 90 213 39 q 104 212 126 142 q 83 364 83 282 m 219 364 q 231 263 219 312 q 269 175 243 214 q 337 112 295 136 q 440 89 379 89 q 657 364 657 89 q 645 468 657 418 q 607 556 633 518 q 540 618 581 594 q 440 642 498 642 q 275 573 331 642 q 219 364 219 504 m 202 925 l 657 925 l 657 829 l 202 829 l 202 925 "},"”":{"x_min":61.109375,"x_max":466.703125,"ha":526,"o":"m 286 908 q 309 961 286 941 q 368 982 331 982 q 439 955 412 982 q 466 877 466 929 q 451 794 466 829 q 414 736 436 760 q 369 699 393 712 q 329 681 345 686 l 290 737 q 345 777 323 753 q 365 838 366 801 q 307 851 329 831 q 286 908 286 872 m 61 908 q 84 961 61 941 q 143 982 106 982 q 214 955 187 982 q 241 877 241 929 q 226 794 241 829 q 189 736 211 760 q 144 699 168 712 q 104 681 120 686 l 65 737 q 120 777 98 753 q 140 838 141 801 q 82 851 104 831 q 61 908 61 872 "},"Ӕ":{"x_min":-34.71875,"x_max":1195.921875,"ha":1290,"o":"m 595 820 l 543 673 l 354 379 l 601 379 l 601 820 l 595 820 m 601 262 l 281 262 l 115 0 l -34 0 l 598 972 l 1188 972 l 1188 853 l 740 853 l 740 557 l 1150 557 l 1150 438 l 740 438 l 740 119 l 1195 119 l 1195 0 l 601 0 l 601 262 "},"ö":{"x_min":83.34375,"x_max":793.125,"ha":876,"o":"m 83 364 q 106 525 83 454 q 176 647 130 597 q 288 723 222 697 q 438 750 354 750 q 594 720 527 750 q 705 639 661 691 q 771 517 750 587 q 793 364 793 447 q 768 204 793 275 q 699 83 744 133 q 588 7 654 33 q 438 -19 522 -19 q 280 10 347 -19 q 170 90 213 39 q 104 212 126 142 q 83 364 83 282 m 219 364 q 231 263 219 312 q 269 175 243 214 q 337 112 295 136 q 440 89 379 89 q 657 364 657 89 q 645 468 657 418 q 607 556 633 518 q 540 618 581 594 q 440 642 498 642 q 275 573 331 642 q 219 364 219 504 m 209 907 q 231 962 209 940 q 289 985 253 985 q 346 962 324 985 q 367 907 367 940 q 346 853 367 875 q 289 831 324 831 q 231 853 253 831 q 209 907 209 875 m 507 907 q 529 962 507 940 q 587 985 551 985 q 644 962 623 985 q 666 907 666 940 q 644 853 666 875 q 587 831 623 831 q 529 853 551 831 q 507 907 507 875 "},"":{"x_min":123.625,"x_max":1277.875,"ha":1358,"o":"m 262 557 l 443 557 q 565 877 458 765 q 862 990 672 990 q 1051 953 972 990 q 1180 851 1130 917 q 1254 691 1230 784 q 1277 486 1277 598 q 1173 113 1277 245 q 862 -18 1068 -18 q 683 14 759 -18 q 554 106 607 47 q 475 248 502 165 q 441 435 447 332 l 262 435 l 262 0 l 123 0 l 123 972 l 262 972 l 262 557 m 590 486 q 604 337 590 408 q 651 214 619 267 q 735 131 683 162 q 862 101 787 101 q 1063 194 997 101 q 1130 486 1130 287 q 1117 632 1130 562 q 1073 755 1104 702 q 990 839 1041 808 q 862 871 938 871 q 659 776 727 871 q 590 486 590 681 m 511 1210 q 553 1134 518 1160 q 647 1109 589 1109 q 741 1134 705 1109 q 783 1208 776 1160 l 900 1183 q 821 1064 882 1107 q 646 1021 760 1021 q 466 1058 536 1021 q 382 1180 396 1096 l 511 1210 "},"₶":{"x_min":44.453125,"x_max":788.953125,"ha":825,"o":"m 44 478 l 154 478 l 154 962 q 278 980 212 975 q 411 985 344 985 q 551 971 483 985 q 672 925 619 958 q 757 834 725 891 q 788 687 788 776 q 755 543 788 601 q 668 449 722 485 q 545 396 613 412 q 405 381 476 381 l 287 381 l 287 279 l 540 279 l 540 182 l 287 182 l 287 0 l 154 0 l 154 182 l 44 182 l 44 279 l 154 279 l 154 381 l 44 381 l 44 478 m 416 871 q 343 868 379 871 q 287 862 308 865 l 287 478 l 398 478 q 487 487 443 478 q 567 519 531 496 q 625 583 602 543 q 647 684 647 623 q 629 774 647 739 q 579 831 611 809 q 506 861 548 852 q 416 871 463 871 "},"ć":{"x_min":83.34375,"x_max":672.28125,"ha":735,"o":"m 672 50 q 558 -1 623 15 q 420 -19 493 -19 q 264 8 329 -19 q 159 86 200 36 q 101 207 119 136 q 83 364 83 278 q 172 649 83 548 q 430 750 262 750 q 558 736 504 750 q 655 704 612 723 l 622 600 q 541 630 584 619 q 445 642 497 642 q 219 364 219 642 q 231 261 219 311 q 272 174 244 212 q 345 112 300 136 q 455 89 390 89 q 557 105 513 89 q 630 144 601 121 l 672 50 m 446 1000 l 590 1000 l 590 968 l 435 792 l 357 792 l 446 1000 "},"þ":{"x_min":122.234375,"x_max":791.734375,"ha":875,"o":"m 122 974 l 250 974 l 250 647 l 261 647 q 349 721 297 694 q 476 749 401 749 q 713 661 634 749 q 791 380 791 574 q 765 215 791 289 q 691 88 738 140 q 575 8 643 36 q 422 -19 506 -19 q 373 -16 394 -19 q 332 -10 352 -14 q 293 0 312 -6 q 250 15 273 7 l 250 -278 l 122 -278 l 122 974 m 447 641 q 250 468 293 641 l 250 139 q 319 102 279 116 q 413 89 359 89 q 591 162 526 89 q 655 382 655 236 q 644 488 655 440 q 608 570 633 536 q 543 622 583 603 q 447 641 504 641 "},"]":{"x_min":56.953125,"x_max":343.078125,"ha":467,"o":"m 343 -319 l 56 -319 l 56 -208 l 215 -208 l 215 861 l 56 861 l 56 972 l 343 972 l 343 -319 "},"А":{"x_min":11.109375,"x_max":884.796875,"ha":896,"o":"m 634 254 l 250 254 l 147 0 l 11 0 l 411 986 l 483 986 l 884 0 l 740 0 l 634 254 m 291 371 l 594 371 l 481 647 l 444 795 l 441 795 l 404 644 l 291 371 "},"Ы":{"x_min":123.625,"x_max":1051.46875,"ha":1175,"o":"m 912 972 l 1051 972 l 1051 0 l 912 0 l 912 972 m 123 972 l 262 972 l 262 600 q 284 604 270 602 q 316 607 298 606 q 352 610 333 609 q 388 612 370 612 q 529 598 461 612 q 650 550 597 584 q 734 459 702 516 q 765 316 765 402 q 735 170 765 232 q 652 67 705 107 q 526 7 600 27 q 363 -13 452 -13 q 313 -12 343 -13 q 252 -8 284 -11 q 186 -1 219 -6 q 123 9 152 2 l 123 972 m 375 106 q 470 118 426 106 q 547 156 515 131 q 599 218 580 181 q 618 306 618 256 q 597 398 618 362 q 542 455 576 434 q 463 484 508 476 q 368 493 418 493 q 309 488 341 493 q 262 480 277 484 l 262 114 q 310 107 281 108 q 375 106 338 106 "},"":{"x_min":93.0625,"x_max":362.53125,"ha":451,"o":"m 273 0 l 229 -73 q 329 -109 297 -84 q 362 -180 362 -134 q 311 -274 362 -239 q 168 -310 259 -310 q 131 -308 150 -310 q 93 -303 112 -307 l 105 -253 q 181 -251 154 -255 q 223 -237 209 -247 q 240 -216 237 -227 q 244 -193 244 -204 q 209 -156 244 -169 q 106 -136 173 -143 l 188 0 l 273 0 "},"⃉":{"x_min":44.453125,"x_max":788.953125,"ha":825,"o":"m 44 478 l 154 478 l 154 962 q 278 980 212 975 q 411 985 344 985 q 551 971 483 985 q 672 925 619 958 q 757 834 725 891 q 788 687 788 776 q 755 543 788 601 q 668 449 722 485 q 545 396 613 412 q 405 381 476 381 l 287 381 l 287 279 l 540 279 l 540 182 l 287 182 l 287 0 l 154 0 l 154 182 l 44 182 l 44 279 l 154 279 l 154 381 l 44 381 l 44 478 m 416 871 q 343 868 379 871 q 287 862 308 865 l 287 478 l 398 478 q 487 487 443 478 q 567 519 531 496 q 625 583 602 543 q 647 684 647 623 q 629 774 647 739 q 579 831 611 809 q 506 861 548 852 q 416 871 463 871 "},"8":{"x_min":98.625,"x_max":727.84375,"ha":825,"o":"m 301 499 q 231 543 263 520 q 174 595 198 566 q 136 660 150 624 q 122 742 122 697 q 143 840 122 795 q 202 919 163 885 q 297 971 241 952 q 422 990 352 990 q 538 973 486 990 q 627 926 590 956 q 684 854 663 895 q 704 765 704 813 q 665 626 704 685 q 536 511 626 566 q 611 464 576 488 q 672 409 647 440 q 713 341 698 379 q 727 256 727 304 q 706 147 727 197 q 643 60 684 97 q 541 2 601 23 q 404 -18 480 -18 q 274 2 330 -18 q 178 56 218 22 q 118 136 138 90 q 98 236 98 183 q 148 386 98 323 q 301 499 198 448 m 387 456 q 261 357 298 412 q 223 254 223 302 q 236 193 223 222 q 272 141 248 163 q 330 106 295 119 q 411 93 365 93 q 483 103 448 93 q 543 133 518 113 q 584 182 569 152 q 600 251 600 212 q 581 318 600 288 q 534 372 563 348 q 466 417 504 397 q 387 456 427 437 m 450 548 q 545 640 513 594 q 577 738 577 685 q 564 797 577 772 q 529 841 551 823 q 479 869 508 859 q 418 879 450 879 q 347 867 377 879 q 295 836 316 855 q 262 794 273 817 q 251 745 251 770 q 268 679 251 708 q 311 626 284 649 q 375 585 338 604 q 450 548 411 566 "},"Ӝ":{"x_min":-2.78125,"x_max":1236.203125,"ha":1233,"o":"m 544 972 l 675 972 l 675 525 l 738 544 l 1034 972 l 1188 972 l 888 550 l 826 504 l 904 447 l 1236 0 l 1068 0 l 743 445 l 675 445 l 675 0 l 544 0 l 544 461 l 480 442 l 156 0 l -2 0 l 325 433 l 398 486 l 327 536 l 18 972 l 179 972 l 476 542 l 544 542 l 544 972 m 376 1104 q 399 1153 376 1135 q 462 1172 422 1172 q 524 1153 501 1172 q 548 1104 548 1135 q 524 1054 548 1073 q 462 1036 501 1036 q 399 1054 422 1036 q 376 1104 376 1073 m 673 1104 q 696 1153 673 1135 q 758 1172 719 1172 q 822 1153 798 1172 q 845 1104 845 1135 q 822 1054 845 1073 q 758 1036 798 1036 q 696 1054 719 1036 q 673 1104 673 1073 "},"R":{"x_min":123.625,"x_max":851.453125,"ha":907,"o":"m 123 962 q 188 972 152 968 q 259 979 223 976 q 331 983 295 982 q 400 985 368 985 q 534 971 469 985 q 647 925 598 957 q 727 841 697 893 q 757 715 757 790 q 738 609 757 657 q 688 526 720 562 q 613 466 657 490 q 518 429 569 441 l 590 380 l 851 0 l 691 0 l 402 410 l 262 429 l 262 0 l 123 0 l 123 962 m 404 866 q 364 866 384 866 q 325 864 344 866 q 288 861 305 863 q 262 857 272 860 l 262 521 l 376 521 q 468 531 426 521 q 542 563 511 541 q 591 619 573 584 q 609 704 609 654 q 556 822 609 779 q 404 866 504 866 "},"Ż":{"x_min":54.171875,"x_max":773.671875,"ha":828,"o":"m 54 122 l 577 794 l 645 850 l 54 850 l 54 972 l 773 972 l 773 850 l 245 173 l 180 122 l 773 122 l 773 0 l 54 0 l 54 122 m 315 1108 q 341 1160 315 1138 q 415 1183 368 1183 q 489 1160 462 1183 q 516 1108 516 1138 q 489 1053 516 1074 q 415 1032 462 1032 q 341 1053 368 1032 q 315 1108 315 1074 "},"Ң":{"x_min":123.625,"x_max":1029.25,"ha":1070,"o":"m 755 435 l 262 435 l 262 0 l 123 0 l 123 972 l 262 972 l 262 557 l 755 557 l 755 972 l 894 972 l 894 122 l 1029 122 l 1029 -178 l 933 -178 l 911 0 l 755 0 l 755 435 "},"ħ":{"x_min":0,"x_max":776.453125,"ha":899,"o":"m 0 881 l 130 881 l 130 972 l 258 972 l 258 881 l 495 881 l 495 789 l 258 789 l 258 638 l 273 638 q 373 719 315 688 q 518 750 431 750 q 633 735 584 750 q 713 684 682 720 q 761 585 745 647 q 776 430 776 523 l 776 0 l 648 0 l 648 402 q 641 506 648 462 q 613 579 633 549 q 559 622 593 608 q 473 636 525 636 q 402 623 437 636 q 338 588 368 611 q 288 535 309 566 q 258 465 268 504 l 258 0 l 130 0 l 130 789 l 0 789 l 0 881 "},"õ":{"x_min":83.34375,"x_max":793.125,"ha":876,"o":"m 83 364 q 106 525 83 454 q 176 647 130 597 q 288 723 222 697 q 438 750 354 750 q 594 720 527 750 q 705 639 661 691 q 771 517 750 587 q 793 364 793 447 q 768 204 793 275 q 699 83 744 133 q 588 7 654 33 q 438 -19 522 -19 q 280 10 347 -19 q 170 90 213 39 q 104 212 126 142 q 83 364 83 282 m 219 364 q 231 263 219 312 q 269 175 243 214 q 337 112 295 136 q 440 89 379 89 q 657 364 657 89 q 645 468 657 418 q 607 556 633 518 q 540 618 581 594 q 440 642 498 642 q 275 573 331 642 q 219 364 219 504 m 215 966 q 295 1032 259 1015 q 363 1050 331 1050 q 411 1040 388 1050 q 457 1020 434 1031 q 503 999 480 1008 q 552 990 526 990 q 627 1024 587 990 l 658 957 q 588 902 620 918 q 527 886 555 886 q 477 895 501 886 q 431 916 453 905 q 384 937 408 927 q 334 947 360 947 q 290 938 312 947 q 242 905 269 930 l 215 966 "},"":{"x_min":62.5,"x_max":795.890625,"ha":876,"o":"m 223 554 l 647 554 q 545 792 633 715 q 319 871 458 869 q 188 856 245 872 q 98 822 131 841 l 65 933 q 182 974 111 959 q 333 990 254 990 q 514 962 430 990 q 661 874 598 934 q 759 717 723 813 q 795 486 795 622 q 754 252 795 348 q 643 96 712 156 q 485 9 575 36 q 300 -18 395 -18 q 163 -6 223 -18 q 62 20 102 5 l 98 140 q 189 112 133 123 q 309 101 245 101 q 427 118 369 101 q 532 175 486 135 q 610 279 579 215 q 648 435 641 343 l 223 435 l 223 554 m 230 1210 q 272 1134 237 1160 q 366 1109 308 1109 q 460 1134 424 1109 q 502 1208 495 1160 l 619 1183 q 540 1064 601 1107 q 365 1021 479 1021 q 185 1058 255 1021 q 101 1180 115 1096 l 230 1210 "},"ҭ":{"x_min":0,"x_max":633.390625,"ha":633,"o":"m 252 621 l 0 621 l 0 729 l 633 729 l 633 621 l 380 621 l 380 108 l 487 108 l 487 -183 l 397 -183 l 375 0 l 252 0 l 252 621 "},"":{"x_min":-476.65625,"x_max":-116.90625,"ha":3,"o":"m -300 1209 l -116 1209 l -116 1177 l -364 1045 l -476 1045 l -300 1209 "},"ғ":{"x_min":0,"x_max":588.9375,"ha":622,"o":"m 588 621 l 247 621 l 247 400 l 551 400 l 551 303 l 247 303 l 247 0 l 119 0 l 119 303 l 0 303 l 0 400 l 119 400 l 119 729 l 588 729 l 588 621 "},"":{"x_min":123.625,"x_max":912.578125,"ha":993,"o":"m 123 972 q 188 978 151 976 q 264 982 225 980 q 342 984 304 983 q 412 985 380 985 q 634 948 540 985 q 789 846 727 911 q 882 690 851 780 q 912 493 912 600 q 884 304 912 395 q 793 143 855 213 q 632 29 730 72 q 395 -14 534 -14 q 332 -12 372 -14 q 251 -9 293 -11 q 174 -6 209 -8 q 123 -1 138 -4 l 123 972 m 416 863 q 375 863 397 863 q 330 861 352 863 q 290 858 308 860 q 262 856 272 857 l 262 113 q 289 111 269 112 q 331 110 309 110 q 373 108 354 109 q 401 108 393 108 q 575 140 505 108 q 688 227 645 173 q 747 350 730 281 q 765 493 765 419 q 748 621 765 555 q 691 739 732 686 q 584 828 651 793 q 416 863 518 863 m 492 1209 l 676 1209 l 676 1177 l 428 1045 l 316 1045 l 492 1209 "},"Ӎ":{"x_min":123.625,"x_max":1244.546875,"ha":1228,"o":"m 943 626 l 958 781 l 952 781 l 893 647 l 622 217 l 580 217 l 295 648 l 238 780 l 231 780 l 254 627 l 254 0 l 123 0 l 123 972 l 227 972 l 556 476 l 608 371 l 611 371 l 659 479 l 972 972 l 1082 972 l 1082 122 l 1244 122 l 1244 88 l 1105 -181 l 1013 -181 l 1083 0 l 943 0 l 943 626 "},"˙":{"x_min":83.34375,"x_max":266.6875,"ha":350,"o":"m 83 902 q 108 960 83 934 q 173 986 133 986 q 240 960 213 986 q 266 902 266 934 q 240 846 266 870 q 173 822 213 822 q 108 846 133 822 q 83 902 83 870 "},"ê":{"x_min":83.34375,"x_max":741.71875,"ha":831,"o":"m 715 59 q 594 2 666 23 q 437 -19 522 -19 q 278 8 345 -19 q 168 85 211 35 q 104 205 125 135 q 83 364 83 276 q 175 650 83 551 q 438 750 268 750 q 547 738 493 750 q 644 693 601 726 q 714 604 687 661 q 741 455 741 547 q 740 403 741 433 q 734 347 738 374 l 213 347 q 275 154 216 219 q 473 89 333 89 q 584 109 531 89 q 666 157 637 129 l 715 59 m 619 439 q 574 596 622 550 q 440 642 526 642 q 286 596 343 642 q 219 439 229 550 l 619 439 m 394 1074 l 451 1074 q 538 943 494 1007 q 624 814 583 879 l 513 814 l 451 909 l 415 1008 l 372 909 l 305 814 l 199 814 l 394 1074 "},"„":{"x_min":61.109375,"x_max":466.703125,"ha":526,"o":"m 61 70 q 84 123 61 103 q 143 144 106 144 q 214 117 187 144 q 241 39 241 91 q 226 -43 241 -8 q 189 -101 211 -77 q 144 -138 168 -125 q 104 -157 120 -151 l 65 -100 q 120 -60 98 -84 q 140 0 141 -36 q 82 13 104 -6 q 61 70 61 34 m 286 70 q 309 123 286 103 q 368 144 331 144 q 439 117 412 144 q 466 39 466 91 q 451 -43 466 -8 q 414 -101 436 -77 q 369 -138 393 -125 q 329 -157 345 -151 l 290 -100 q 345 -60 323 -84 q 365 0 366 -36 q 307 13 329 -6 q 286 70 286 34 "},"ӷ":{"x_min":122.234375,"x_max":591.71875,"ha":592,"o":"m 122 729 l 591 729 l 591 621 l 250 621 l 250 108 l 362 108 l 362 -183 l 272 -183 l 250 0 l 122 0 l 122 729 "},"ч":{"x_min":83.34375,"x_max":675.046875,"ha":797,"o":"m 211 729 l 211 549 q 215 470 211 505 q 236 410 220 435 q 281 372 252 385 q 355 359 309 359 q 474 375 426 359 q 547 410 522 391 l 547 729 l 675 729 l 675 0 l 547 0 l 547 309 q 466 271 520 292 q 322 251 412 251 q 218 263 263 251 q 143 306 173 276 q 98 387 113 337 q 83 515 83 438 l 83 729 l 211 729 "},"Â":{"x_min":11.109375,"x_max":884.796875,"ha":896,"o":"m 634 254 l 250 254 l 147 0 l 11 0 l 411 986 l 483 986 l 884 0 l 740 0 l 634 254 m 291 371 l 594 371 l 481 647 l 444 795 l 441 795 l 404 644 l 291 371 m 401 1209 l 502 1209 l 695 1069 l 695 1035 l 567 1035 l 477 1100 l 449 1149 l 420 1101 l 323 1035 l 198 1035 l 198 1071 l 401 1209 "},"Į":{"x_min":95.84375,"x_max":456.984375,"ha":553,"o":"m 206 880 l 95 880 l 95 972 l 456 972 l 456 880 l 345 880 l 345 92 l 456 92 l 456 0 l 351 0 q 281 -55 306 -23 q 256 -127 255 -87 q 279 -181 258 -159 q 340 -204 300 -204 q 370 -200 354 -204 q 405 -190 387 -197 l 422 -254 q 356 -279 398 -270 q 277 -289 315 -289 q 165 -254 206 -289 q 125 -161 125 -220 q 165 -65 125 -106 q 276 0 206 -23 l 95 0 l 95 92 l 206 92 l 206 880 "},"ҫ":{"x_min":83.34375,"x_max":672.28125,"ha":735,"o":"m 672 50 q 581 5 632 22 q 475 -17 531 -11 l 454 -247 l 366 -247 l 337 -12 q 219 31 268 0 q 140 112 170 63 q 97 224 111 160 q 83 363 83 288 q 172 649 83 548 q 430 750 262 750 q 558 736 504 750 q 655 704 612 723 l 622 600 q 541 630 584 619 q 445 642 497 642 q 219 363 219 642 q 231 262 219 310 q 272 175 244 213 q 345 113 300 136 q 455 91 390 91 q 557 107 513 91 q 630 146 601 123 l 672 50 "},"Ţ":{"x_min":26.390625,"x_max":820.90625,"ha":847,"o":"m 354 0 l 354 850 l 26 850 l 26 972 l 820 972 l 820 850 l 493 850 l 493 0 l 468 0 l 423 -74 q 524 -110 491 -85 q 556 -180 556 -135 q 505 -274 556 -239 q 362 -310 454 -310 q 325 -308 344 -310 q 287 -303 306 -307 l 300 -253 q 376 -251 348 -255 q 418 -237 404 -247 q 435 -216 431 -228 q 438 -193 438 -204 q 403 -157 438 -170 q 301 -137 368 -143 l 383 0 l 354 0 "},"₄":{"x_min":37.5,"x_max":581.984375,"ha":606,"o":"m 581 -11 l 456 -11 l 456 -139 l 348 -139 l 348 -11 l 37 -11 l 37 51 l 380 467 l 456 467 l 456 82 l 581 82 l 581 -11 m 348 248 l 358 315 l 354 315 l 320 253 l 209 118 l 158 73 l 236 82 l 348 82 l 348 248 "},"´":{"x_min":83.34375,"x_max":316.6875,"ha":400,"o":"m 172 1000 l 316 1000 l 316 968 l 161 792 l 83 792 l 172 1000 "},"Ĉ":{"x_min":80.5625,"x_max":811.171875,"ha":867,"o":"m 811 42 q 694 -4 765 8 q 544 -18 623 -18 q 367 11 451 -18 q 219 103 283 41 q 118 260 155 165 q 80 486 80 355 q 122 717 80 622 q 230 874 163 813 q 380 962 297 934 q 545 990 463 990 q 695 980 637 990 q 794 955 754 970 l 763 836 q 556 868 695 868 q 435 847 494 868 q 329 782 376 827 q 255 664 283 737 q 227 486 227 591 q 254 320 227 391 q 327 200 280 248 q 436 128 373 152 q 575 104 500 104 q 693 116 643 104 q 777 149 743 129 l 811 42 m 479 1209 l 580 1209 l 773 1069 l 773 1035 l 645 1035 l 555 1100 l 527 1149 l 498 1101 l 401 1035 l 276 1035 l 276 1071 l 479 1209 "},"И":{"x_min":123.625,"x_max":909.796875,"ha":1033,"o":"m 770 642 l 779 749 l 773 749 l 707 640 l 208 0 l 123 0 l 123 972 l 262 972 l 262 324 l 250 219 l 256 219 l 326 329 l 823 972 l 909 972 l 909 0 l 770 0 l 770 642 "},"Љ":{"x_min":-5.5625,"x_max":1361.21875,"ha":1408,"o":"m 825 972 l 825 600 q 849 604 832 602 q 888 607 866 606 q 932 610 909 609 q 972 612 954 612 q 1113 598 1044 612 q 1238 550 1183 584 q 1327 459 1293 517 q 1361 314 1361 402 q 1328 169 1361 231 q 1239 67 1295 107 q 1107 7 1183 27 q 941 -13 1030 -13 q 889 -12 920 -13 q 822 -8 858 -11 q 752 -1 787 -6 q 686 9 716 2 l 686 850 l 380 850 q 364 599 373 712 q 341 396 355 487 q 309 236 327 305 q 262 115 290 166 q 179 20 226 48 q 80 -7 131 -7 q 32 -3 51 -7 q -5 6 13 0 l 12 124 q 45 119 29 119 q 79 126 62 119 q 113 146 97 132 q 145 187 130 161 q 184 284 166 223 q 216 440 202 346 q 239 665 230 534 q 252 972 248 797 l 825 972 m 825 114 q 882 107 844 108 q 957 106 919 106 q 1054 117 1008 106 q 1136 154 1101 129 q 1193 217 1172 179 q 1213 307 1213 254 q 1191 399 1213 363 q 1132 456 1169 435 q 1048 485 1095 477 q 952 493 1001 493 q 920 491 940 493 q 882 488 901 490 q 847 484 863 487 q 825 480 832 481 l 825 114 "},"р":{"x_min":122.234375,"x_max":791.734375,"ha":875,"o":"m 122 729 l 208 729 l 233 636 l 245 636 q 343 720 283 690 q 477 750 402 750 q 713 661 636 750 q 791 380 791 573 q 766 214 791 289 q 692 88 740 140 q 575 8 644 36 q 422 -19 506 -19 q 371 -16 394 -19 q 329 -9 348 -14 q 290 1 309 -5 q 250 15 270 7 l 250 -278 l 122 -278 l 122 729 m 448 642 q 318 600 365 642 q 250 472 270 558 l 250 136 q 319 101 281 114 q 415 89 356 89 q 591 162 527 89 q 655 382 655 236 q 608 571 655 500 q 448 642 561 642 "},"Ω":{"x_min":112.515625,"x_max":1104.25,"ha":1215,"o":"m 112 114 l 286 114 l 426 98 l 426 136 l 347 148 q 256 204 298 169 q 181 288 213 240 q 131 396 150 336 q 112 527 112 456 q 147 718 112 633 q 246 864 181 803 q 402 957 311 924 q 607 990 494 990 q 817 955 725 990 q 973 858 909 920 q 1070 710 1037 795 q 1102 523 1102 624 q 1082 389 1102 449 q 1027 282 1061 329 q 953 203 994 236 q 872 149 912 170 l 786 136 l 786 98 l 929 114 l 1104 114 l 1104 0 l 663 0 l 663 205 q 759 232 708 212 q 853 290 809 252 q 926 386 897 327 q 955 529 955 444 q 936 652 955 591 q 874 760 916 712 q 765 838 832 808 q 605 868 698 868 q 348 781 437 868 q 259 524 259 694 q 286 384 259 443 q 356 288 313 326 q 450 231 398 251 q 550 205 501 211 l 550 0 l 112 0 l 112 114 "},"":{"x_min":61.109375,"x_max":738.953125,"ha":818,"o":"m 206 455 l 206 563 l 230 563 q 263 563 243 563 q 304 564 283 563 q 346 566 326 565 q 379 569 366 567 q 506 617 454 579 q 559 719 559 656 q 543 791 559 763 q 499 837 527 819 q 433 862 470 854 q 354 870 395 870 q 213 857 273 870 q 122 829 154 844 l 84 940 q 127 956 98 948 q 195 972 156 965 q 279 984 233 979 q 375 989 326 989 q 495 977 436 989 q 602 937 555 965 q 677 864 648 909 q 707 748 707 818 q 657 617 707 679 q 508 527 608 554 l 508 521 q 677 447 615 506 q 738 287 738 387 q 704 150 738 208 q 613 55 669 93 q 485 0 556 18 q 338 -18 413 -18 q 170 -6 238 -18 q 61 22 102 5 l 95 142 q 195 113 131 126 q 350 101 258 101 q 436 112 393 101 q 513 145 479 123 q 570 202 548 167 q 591 283 591 236 q 527 406 591 367 q 347 452 462 445 q 315 454 329 453 q 281 455 301 455 l 206 455 m 425 1033 l 329 1033 l 136 1173 l 136 1208 l 265 1208 l 354 1139 l 380 1094 l 409 1138 l 504 1208 l 628 1208 l 628 1171 l 425 1033 "},"т":{"x_min":0,"x_max":633.390625,"ha":633,"o":"m 633 621 l 380 621 l 380 0 l 252 0 l 252 621 l 0 621 l 0 729 l 633 729 l 633 621 "},"П":{"x_min":123.625,"x_max":875.0625,"ha":999,"o":"m 736 850 l 262 850 l 262 0 l 123 0 l 123 972 l 875 972 l 875 0 l 736 0 l 736 850 "},"Ö":{"x_min":80.5625,"x_max":957.015625,"ha":1038,"o":"m 80 486 q 110 699 80 605 q 196 857 140 792 q 334 955 252 921 q 518 990 415 990 q 710 953 627 990 q 847 850 793 916 q 929 691 902 784 q 957 486 957 598 q 927 272 957 366 q 840 114 897 179 q 702 16 783 50 q 518 -18 620 -18 q 325 18 406 -18 q 188 121 243 55 q 107 280 134 187 q 80 486 80 373 m 227 486 q 245 337 227 406 q 297 214 262 267 q 388 131 333 162 q 518 101 443 101 q 731 194 652 101 q 809 486 809 287 q 792 633 809 563 q 739 755 775 702 q 649 839 704 808 q 518 871 594 871 q 306 776 384 871 q 227 486 227 681 m 283 1104 q 306 1153 283 1135 q 369 1172 329 1172 q 431 1153 408 1172 q 455 1104 455 1135 q 431 1054 455 1073 q 369 1036 408 1036 q 306 1054 329 1036 q 283 1104 283 1073 m 580 1104 q 603 1153 580 1135 q 665 1172 626 1172 q 729 1153 705 1172 q 752 1104 752 1135 q 729 1054 752 1073 q 665 1036 705 1036 q 603 1054 626 1036 q 580 1104 580 1073 "},"z":{"x_min":66.671875,"x_max":640.328125,"ha":715,"o":"m 66 109 l 426 548 l 523 621 l 66 621 l 66 729 l 640 729 l 640 619 l 276 176 l 179 108 l 640 108 l 640 0 l 66 0 l 66 109 "},"™":{"x_min":52.78125,"x_max":1298.71875,"ha":1354,"o":"m 590 861 l 387 861 l 387 472 l 255 472 l 255 861 l 52 861 l 52 972 l 590 972 l 590 861 m 1175 697 l 1191 840 l 1184 840 l 1126 722 l 997 535 l 937 535 l 807 720 l 751 840 l 744 840 l 766 698 l 766 472 l 648 472 l 648 972 l 777 972 l 934 743 l 976 661 l 977 661 l 1022 745 l 1168 972 l 1298 972 l 1298 472 l 1175 472 l 1175 697 "},"Ř":{"x_min":123.625,"x_max":851.453125,"ha":907,"o":"m 123 962 q 188 972 152 968 q 259 979 223 976 q 331 983 295 982 q 400 985 368 985 q 534 971 469 985 q 647 925 598 957 q 727 841 697 893 q 757 715 757 790 q 738 609 757 657 q 688 526 720 562 q 613 466 657 490 q 518 429 569 441 l 590 380 l 851 0 l 691 0 l 402 410 l 262 429 l 262 0 l 123 0 l 123 962 m 404 866 q 364 866 384 866 q 325 864 344 866 q 288 861 305 863 q 262 857 272 860 l 262 521 l 376 521 q 468 531 426 521 q 542 563 511 541 q 591 619 573 584 q 609 704 609 654 q 556 822 609 779 q 404 866 504 866 m 426 1033 l 330 1033 l 137 1173 l 137 1208 l 266 1208 l 355 1139 l 381 1094 l 410 1138 l 505 1208 l 629 1208 l 629 1171 l 426 1033 "},"Ň":{"x_min":123.625,"x_max":897.296875,"ha":1021,"o":"m 326 617 l 243 754 l 237 754 l 254 617 l 254 0 l 123 0 l 123 986 l 201 986 l 697 355 l 776 226 l 783 226 l 766 355 l 766 972 l 897 972 l 897 -14 l 819 -14 l 326 617 m 555 1033 l 459 1033 l 266 1173 l 266 1208 l 395 1208 l 484 1139 l 510 1094 l 539 1138 l 634 1208 l 758 1208 l 758 1171 l 555 1033 "},"":{"x_min":61.109375,"x_max":738.953125,"ha":818,"o":"m 206 455 l 206 563 l 230 563 q 263 563 243 563 q 304 564 283 563 q 346 566 326 565 q 379 569 366 567 q 506 617 454 579 q 559 719 559 656 q 543 791 559 763 q 499 837 527 819 q 433 862 470 854 q 354 870 395 870 q 213 857 273 870 q 122 829 154 844 l 84 940 q 127 956 98 948 q 195 972 156 965 q 279 984 233 979 q 375 989 326 989 q 495 977 436 989 q 602 937 555 965 q 677 864 648 909 q 707 748 707 818 q 657 617 707 679 q 508 527 608 554 l 508 521 q 677 447 615 506 q 738 287 738 387 q 704 150 738 208 q 613 55 669 93 q 485 0 556 18 q 338 -18 413 -18 q 170 -6 238 -18 q 61 22 102 5 l 95 142 q 195 113 131 126 q 350 101 258 101 q 436 112 393 101 q 513 145 479 123 q 570 202 548 167 q 591 283 591 236 q 527 406 591 367 q 347 452 462 445 q 315 454 329 453 q 281 455 301 455 l 206 455 m 407 1033 l 311 1033 l 118 1173 l 118 1208 l 247 1208 l 336 1139 l 362 1094 l 391 1138 l 486 1208 l 610 1208 l 610 1171 l 407 1033 "},"É":{"x_min":123.625,"x_max":718.109375,"ha":813,"o":"m 123 972 l 711 972 l 711 853 l 262 853 l 262 557 l 672 557 l 672 438 l 262 438 l 262 119 l 718 119 l 718 0 l 123 0 l 123 972 m 494 1209 l 678 1209 l 678 1177 l 430 1045 l 318 1045 l 494 1209 "},"ұ":{"x_min":11.109375,"x_max":754.234375,"ha":765,"o":"m 138 1 l 323 1 l 11 729 l 159 729 l 348 262 l 391 88 l 402 88 l 445 263 l 615 729 l 754 729 l 455 1 l 641 1 l 641 -91 l 454 -91 l 454 -279 l 326 -279 l 326 -91 l 138 -91 l 138 1 "},"и":{"x_min":122.234375,"x_max":754.234375,"ha":876,"o":"m 626 416 l 645 560 l 630 560 l 562 424 l 220 0 l 122 0 l 122 729 l 250 729 l 250 298 l 240 170 l 255 170 l 319 294 l 654 729 l 754 729 l 754 0 l 626 0 l 626 416 "},"³":{"x_min":100.015625,"x_max":520.875,"ha":606,"o":"m 256 614 q 405 709 405 614 q 371 777 405 751 q 258 803 337 803 l 179 803 l 179 839 l 319 987 l 372 1023 l 295 1015 l 102 1015 l 102 1111 l 498 1111 l 498 1055 l 345 896 l 305 871 l 305 866 l 341 871 q 473 825 426 869 q 520 707 520 782 q 451 568 520 618 q 269 518 381 518 q 172 527 213 518 q 100 547 131 536 l 125 642 q 184 622 151 630 q 256 614 216 614 "},"Ӫ":{"x_min":80.5625,"x_max":957.015625,"ha":1038,"o":"m 80 486 q 110 699 80 605 q 196 857 140 792 q 334 955 252 921 q 518 990 415 990 q 710 953 627 990 q 847 850 793 916 q 929 691 902 784 q 957 486 957 598 q 927 272 957 366 q 840 114 897 179 q 702 16 783 50 q 518 -18 620 -18 q 325 18 406 -18 q 188 121 243 55 q 107 280 134 187 q 80 486 80 373 m 227 433 q 253 302 233 363 q 309 196 273 241 q 397 126 345 152 q 518 101 448 101 q 720 181 643 101 q 809 433 798 262 l 227 433 m 809 550 q 782 675 802 616 q 725 777 761 733 q 637 845 688 820 q 518 871 586 871 q 318 792 395 871 q 229 550 241 713 l 809 550 m 283 1104 q 306 1153 283 1135 q 369 1172 329 1172 q 431 1153 408 1172 q 455 1104 455 1135 q 431 1054 455 1073 q 369 1036 408 1036 q 306 1054 329 1036 q 283 1104 283 1073 m 580 1104 q 603 1153 580 1135 q 665 1172 626 1172 q 729 1153 705 1172 q 752 1104 752 1135 q 729 1054 752 1073 q 665 1036 705 1036 q 603 1054 626 1036 q 580 1104 580 1073 "},"[":{"x_min":123.625,"x_max":409.75,"ha":467,"o":"m 123 972 l 409 972 l 409 861 l 251 861 l 251 -208 l 409 -208 l 409 -319 l 123 -319 l 123 972 "},"Ҝ":{"x_min":123.625,"x_max":998.6875,"ha":1046,"o":"m 343 442 l 262 442 l 262 0 l 123 0 l 123 972 l 262 972 l 262 525 l 343 531 l 343 709 l 448 709 l 448 540 l 483 545 l 797 972 l 952 972 l 634 555 l 568 508 l 645 454 l 998 0 l 829 0 l 486 442 l 448 442 l 448 264 l 343 264 l 343 442 "},"⃆":{"x_min":44.453125,"x_max":788.953125,"ha":825,"o":"m 44 478 l 154 478 l 154 962 q 278 980 212 975 q 411 985 344 985 q 551 971 483 985 q 672 925 619 958 q 757 834 725 891 q 788 687 788 776 q 755 543 788 601 q 668 449 722 485 q 545 396 613 412 q 405 381 476 381 l 287 381 l 287 279 l 540 279 l 540 182 l 287 182 l 287 0 l 154 0 l 154 182 l 44 182 l 44 279 l 154 279 l 154 381 l 44 381 l 44 478 m 416 871 q 343 868 379 871 q 287 862 308 865 l 287 478 l 398 478 q 487 487 443 478 q 567 519 531 496 q 625 583 602 543 q 647 684 647 623 q 629 774 647 739 q 579 831 611 809 q 506 861 548 852 q 416 871 463 871 "},"":{"x_min":62.5,"x_max":691.71875,"ha":808,"o":"m 113 683 q 423 743 238 743 q 557 721 506 743 q 636 666 608 699 q 672 592 663 633 q 682 511 682 551 q 676 357 682 434 q 670 190 670 280 q 675 87 670 137 q 691 -3 680 38 l 598 -3 l 563 108 l 550 108 q 512 66 534 87 q 459 27 490 44 q 389 0 429 11 q 298 -11 350 -11 q 204 3 247 -11 q 129 44 161 18 q 80 109 98 70 q 62 194 62 147 q 89 303 62 257 q 159 378 116 348 q 257 421 202 407 q 366 435 312 435 q 439 433 409 435 q 489 430 469 432 q 523 425 509 428 q 548 422 537 423 q 552 458 551 443 q 554 497 554 473 q 545 562 554 536 q 518 605 537 589 q 468 628 500 621 q 390 635 436 635 q 331 630 363 635 q 268 618 300 626 q 204 599 236 611 q 148 576 173 588 l 113 683 m 548 330 q 525 334 537 331 q 493 338 512 337 q 449 341 475 340 q 386 343 423 343 q 249 312 300 343 q 198 208 198 281 q 238 124 198 152 q 340 97 277 97 q 421 108 386 97 q 482 138 456 120 q 524 176 508 155 q 548 219 540 198 l 548 330 m 169 925 l 624 925 l 624 829 l 169 829 l 169 925 "},"∏":{"x_min":122.234375,"x_max":904.234375,"ha":1026,"o":"m 765 850 l 261 850 l 261 -278 l 122 -278 l 122 972 l 904 972 l 904 -278 l 765 -278 l 765 850 "},"":{"x_min":123.625,"x_max":718.109375,"ha":813,"o":"m 123 972 l 711 972 l 711 853 l 262 853 l 262 557 l 672 557 l 672 438 l 262 438 l 262 119 l 718 119 l 718 0 l 123 0 l 123 972 m 173 1104 q 196 1153 173 1135 q 259 1172 219 1172 q 321 1153 298 1172 q 345 1104 345 1135 q 321 1054 345 1073 q 259 1036 298 1036 q 196 1054 219 1036 q 173 1104 173 1073 m 470 1104 q 493 1153 470 1135 q 555 1172 516 1172 q 619 1153 595 1172 q 642 1104 642 1135 q 619 1054 642 1073 q 555 1036 595 1036 q 493 1054 516 1036 q 470 1104 470 1073 m 277 1388 q 319 1312 284 1338 q 413 1287 355 1287 q 507 1312 471 1287 q 549 1386 542 1338 l 666 1361 q 587 1242 648 1285 q 412 1199 526 1199 q 232 1236 302 1199 q 148 1358 162 1274 l 277 1388 "},"ğ":{"x_min":83.34375,"x_max":745.890625,"ha":871,"o":"m 745 -4 q 661 -217 745 -147 q 415 -288 577 -288 q 262 -276 320 -288 q 162 -246 204 -265 l 193 -131 q 234 -148 211 -139 q 284 -164 258 -157 q 338 -175 311 -171 q 390 -180 365 -180 q 502 -168 458 -180 q 573 -131 547 -156 q 609 -67 600 -106 q 619 26 619 -28 l 619 77 l 604 77 q 526 19 581 41 q 391 -3 470 -3 q 158 82 233 -3 q 83 358 83 167 q 180 647 83 546 q 469 749 277 749 q 627 737 561 749 q 745 708 693 726 l 745 -4 m 419 105 q 552 148 504 105 q 618 260 600 191 l 618 620 q 544 635 586 629 q 450 641 502 641 q 280 572 341 641 q 219 361 219 503 q 264 171 219 238 q 419 105 309 105 m 256 1054 q 334 976 285 1002 q 439 950 384 950 q 540 975 494 950 q 614 1054 587 1001 l 677 1027 q 651 961 671 994 q 599 903 631 928 q 525 862 567 878 q 438 847 484 847 q 279 894 348 847 q 187 1020 210 941 l 256 1054 "},"Ӏ":{"x_min":95.84375,"x_max":456.984375,"ha":553,"o":"m 206 880 l 95 880 l 95 972 l 456 972 l 456 880 l 345 880 l 345 92 l 456 92 l 456 0 l 95 0 l 95 92 l 206 92 l 206 880 "},"ª":{"x_min":77.78125,"x_max":529.203125,"ha":607,"o":"m 108 937 q 210 969 145 956 q 352 983 275 983 q 486 946 450 983 q 522 838 522 909 q 520 738 522 786 q 518 645 518 690 q 520 584 518 614 q 529 528 522 554 l 433 528 l 413 594 l 408 594 q 384 569 398 583 q 352 546 370 556 q 308 528 333 535 q 250 522 283 522 q 125 558 172 522 q 77 655 77 594 q 100 727 77 698 q 161 774 122 756 q 253 800 201 792 q 366 809 305 809 q 387 808 377 809 q 408 807 397 807 q 397 877 413 857 q 322 898 381 898 q 209 886 259 898 q 130 861 158 874 l 108 937 m 408 731 q 375 733 391 732 q 341 734 358 734 q 285 731 312 734 q 238 720 258 728 q 206 698 218 711 q 194 665 194 685 q 215 624 194 638 q 272 610 236 610 q 327 616 304 610 q 367 634 351 623 q 393 658 383 645 q 408 684 402 672 l 408 731 "},"ї":{"x_min":55.5625,"x_max":412.53125,"ha":468,"o":"m 55 901 q 75 956 55 934 q 129 978 94 978 q 184 956 165 978 q 202 901 202 934 q 184 849 202 870 q 129 829 165 829 q 75 849 94 829 q 55 901 55 870 m 265 901 q 284 956 265 934 q 337 978 302 978 q 393 956 373 978 q 412 901 412 934 q 393 849 412 870 q 337 829 373 829 q 284 849 302 829 q 265 901 265 870 m 173 729 l 301 729 l 301 0 l 173 0 l 173 729 "},"T":{"x_min":26.390625,"x_max":820.90625,"ha":847,"o":"m 820 850 l 493 850 l 493 0 l 354 0 l 354 850 l 26 850 l 26 972 l 820 972 l 820 850 "},"š":{"x_min":75,"x_max":618.109375,"ha":693,"o":"m 490 204 q 477 250 490 232 q 441 282 463 269 q 390 305 419 296 q 329 325 361 315 q 247 349 288 336 q 174 385 206 362 q 120 444 141 408 q 100 536 100 480 q 164 697 100 644 q 345 750 229 750 q 493 733 433 750 q 597 697 552 716 l 566 589 q 477 624 529 607 q 362 642 425 642 q 261 619 294 642 q 227 539 227 597 q 240 499 227 515 q 273 471 252 483 q 322 450 294 459 q 380 433 350 441 q 463 407 422 422 q 540 368 505 393 q 596 307 575 344 q 618 212 618 269 q 548 45 618 110 q 340 -19 479 -19 q 185 0 251 -19 q 75 40 119 17 l 111 152 q 211 110 150 131 q 334 89 272 89 q 446 113 402 89 q 490 204 490 137 m 378 814 l 310 814 l 130 1074 l 251 1074 l 312 979 l 351 880 l 391 978 l 460 1074 l 568 1074 l 378 814 "},"є":{"x_min":83.34375,"x_max":702.828125,"ha":786,"o":"m 702 49 q 586 0 654 17 q 445 -19 518 -19 q 286 8 354 -19 q 172 86 218 36 q 105 207 127 136 q 83 364 83 278 q 110 528 83 455 q 186 649 137 600 q 303 723 234 697 q 454 749 372 749 q 588 737 531 749 q 688 706 645 725 l 654 598 q 569 629 615 617 q 472 641 523 641 q 299 588 363 641 q 219 424 234 536 l 587 424 l 587 316 l 219 316 q 242 226 225 268 q 291 154 259 185 q 370 106 323 123 q 484 89 418 89 q 587 105 540 89 q 666 144 634 122 l 702 49 "},"₷":{"x_min":44.453125,"x_max":788.953125,"ha":825,"o":"m 44 478 l 154 478 l 154 962 q 278 980 212 975 q 411 985 344 985 q 551 971 483 985 q 672 925 619 958 q 757 834 725 891 q 788 687 788 776 q 755 543 788 601 q 668 449 722 485 q 545 396 613 412 q 405 381 476 381 l 287 381 l 287 279 l 540 279 l 540 182 l 287 182 l 287 0 l 154 0 l 154 182 l 44 182 l 44 279 l 154 279 l 154 381 l 44 381 l 44 478 m 416 871 q 343 868 379 871 q 287 862 308 865 l 287 478 l 398 478 q 487 487 443 478 q 567 519 531 496 q 625 583 602 543 q 647 684 647 623 q 629 774 647 739 q 579 831 611 809 q 506 861 548 852 q 416 871 463 871 "},"Þ":{"x_min":123.625,"x_max":798.671875,"ha":853,"o":"m 123 972 l 262 972 l 262 868 q 386 873 322 873 q 529 860 456 873 q 662 814 602 847 q 760 722 722 781 q 798 570 798 663 q 763 420 798 482 q 671 320 729 358 q 539 263 613 281 q 386 245 465 245 q 360 245 377 245 q 324 247 343 246 q 288 249 305 247 q 262 251 270 250 l 262 0 l 123 0 l 123 972 m 262 370 q 285 367 269 368 q 318 365 301 366 q 352 364 336 364 q 376 364 368 364 q 475 371 426 364 q 563 401 523 379 q 627 464 602 423 q 651 568 651 504 q 627 660 651 624 q 566 717 604 696 q 482 746 529 738 q 390 754 436 754 q 317 752 352 754 q 262 745 281 751 l 262 370 "},"j":{"x_min":16.671875,"x_max":309.6875,"ha":433,"o":"m 155 729 l 283 729 l 283 -25 q 232 -226 283 -160 q 69 -292 181 -292 q 45 -292 58 -292 q 16 -289 31 -292 l 16 -184 q 89 -172 62 -185 q 131 -134 116 -160 q 150 -70 145 -108 q 155 20 155 -32 l 155 729 m 126 902 q 151 960 126 934 q 216 986 176 986 q 283 960 256 986 q 309 902 309 934 q 283 846 309 870 q 216 822 256 822 q 151 846 176 822 q 126 902 126 870 "},"":{"x_min":122.234375,"x_max":591.71875,"ha":625,"o":"m 591 621 l 250 621 l 250 428 l 581 428 l 581 331 l 250 331 l 250 0 l 122 0 l 122 729 l 591 729 l 591 621 "},"1":{"x_min":100.015625,"x_max":704.21875,"ha":825,"o":"m 156 117 l 368 117 l 368 762 l 384 847 l 323 778 l 158 667 l 100 748 l 434 989 l 495 989 l 495 117 l 704 117 l 704 0 l 156 0 l 156 117 "},"ҍ":{"x_min":0,"x_max":758.390625,"ha":800,"o":"m 0 729 l 179 729 l 179 972 l 306 972 l 306 729 l 563 729 l 563 629 l 306 629 l 306 449 q 392 458 354 455 q 458 461 430 461 q 597 444 540 461 q 690 398 654 427 q 742 329 726 369 q 758 243 758 288 q 670 52 758 112 q 397 -8 583 -8 q 287 -7 343 -8 q 179 -2 231 -6 l 179 629 l 0 629 l 0 729 m 306 106 q 370 101 341 102 q 425 100 400 100 q 575 133 529 100 q 622 233 622 166 q 576 328 622 293 q 431 364 530 364 q 372 361 404 364 q 306 352 340 359 l 306 106 "},"ℓ":{"x_min":101.390625,"x_max":563.9375,"ha":695,"o":"m 563 41 q 484 2 533 21 q 386 -17 434 -17 q 259 25 298 -17 q 219 157 219 67 l 219 302 l 150 241 l 101 302 l 219 405 l 219 758 q 233 863 219 819 q 271 934 247 907 q 328 975 295 962 q 398 989 361 989 q 508 948 465 989 q 551 823 551 907 q 495 605 551 720 q 313 367 440 490 l 313 173 q 337 88 313 111 q 394 66 361 66 q 470 80 429 66 q 540 111 512 95 l 563 41 m 462 816 q 443 885 462 864 q 398 906 423 906 q 366 901 381 906 q 339 881 351 896 q 320 841 327 867 q 313 773 313 815 l 313 479 q 427 653 391 569 q 462 816 462 737 "},"":{"x_min":138.90625,"x_max":542.6875,"ha":467,"o":"m 266 193 q 288 112 266 136 q 345 89 309 89 q 388 91 368 89 q 438 103 409 94 l 455 8 q 422 -1 441 3 q 381 -10 402 -6 q 340 -16 361 -14 q 302 -19 319 -19 q 183 19 227 -19 q 138 146 138 57 l 138 972 l 266 972 l 266 193 m 398 974 l 542 974 l 542 942 l 387 766 l 309 766 l 398 974 "},"ӡ":{"x_min":33.34375,"x_max":662.546875,"ha":729,"o":"m 275 -207 q 377 -192 329 -207 q 459 -150 425 -177 q 514 -85 494 -123 q 534 0 534 -47 q 463 149 534 101 q 268 197 393 197 l 156 197 l 156 238 l 380 554 l 468 630 l 344 621 l 38 621 l 38 729 l 618 729 l 618 677 l 366 346 l 297 288 l 365 298 q 479 277 425 298 q 574 219 533 256 q 638 131 615 182 q 662 17 662 80 q 631 -122 662 -61 q 548 -226 601 -184 q 423 -292 495 -269 q 268 -315 351 -315 q 141 -303 200 -315 q 33 -268 83 -291 l 68 -166 q 160 -195 109 -184 q 275 -207 211 -207 "},"Ү":{"x_min":9.71875,"x_max":847.296875,"ha":857,"o":"m 362 380 l 9 972 l 172 972 l 415 559 l 438 470 l 441 470 l 468 562 l 700 972 l 847 972 l 501 381 l 501 0 l 362 0 l 362 380 "},"ĉ":{"x_min":83.34375,"x_max":672.28125,"ha":735,"o":"m 672 50 q 558 -1 623 15 q 420 -19 493 -19 q 264 8 329 -19 q 159 86 200 36 q 101 207 119 136 q 83 364 83 278 q 172 649 83 548 q 430 750 262 750 q 558 736 504 750 q 655 704 612 723 l 622 600 q 541 630 584 619 q 445 642 497 642 q 219 364 219 642 q 231 261 219 311 q 272 174 244 212 q 345 112 300 136 q 455 89 390 89 q 557 105 513 89 q 630 144 601 121 l 672 50 m 382 1074 l 439 1074 q 526 943 482 1007 q 612 814 571 879 l 501 814 l 439 909 l 403 1008 l 360 909 l 293 814 l 187 814 l 382 1074 "},"ī":{"x_min":-6.65625,"x_max":448.9375,"ha":440,"o":"m 158 729 l 286 729 l 286 0 l 158 0 l 158 729 m -6 925 l 448 925 l 448 829 l -6 829 l -6 925 "},"ӹ":{"x_min":122.234375,"x_max":948.6875,"ha":1071,"o":"m 250 108 q 369 100 308 100 q 509 134 469 100 q 550 233 550 169 q 510 326 550 288 q 373 364 470 364 q 314 361 347 364 q 250 352 281 359 l 250 108 m 250 449 q 332 458 294 456 q 401 461 370 461 q 536 444 481 461 q 625 398 591 427 q 672 329 658 369 q 686 244 686 290 q 605 52 686 112 q 343 -8 525 -8 q 230 -6 284 -8 q 122 -1 176 -5 l 122 729 l 250 729 l 250 449 m 820 729 l 948 729 l 948 0 l 820 0 l 820 729 m 296 881 q 318 936 296 914 q 376 959 340 959 q 433 936 411 959 q 454 881 454 914 q 433 827 454 849 q 376 805 411 805 q 318 827 340 805 q 296 881 296 849 m 594 881 q 616 936 594 914 q 674 959 638 959 q 731 936 710 959 q 753 881 753 914 q 731 827 753 849 q 674 805 710 805 q 616 827 638 805 q 594 881 594 849 "},"О":{"x_min":80.5625,"x_max":957.015625,"ha":1038,"o":"m 80 486 q 110 699 80 605 q 196 857 140 792 q 334 955 252 921 q 518 990 415 990 q 710 953 627 990 q 847 850 793 916 q 929 691 902 784 q 957 486 957 598 q 927 272 957 366 q 840 114 897 179 q 702 16 783 50 q 518 -18 620 -18 q 325 18 406 -18 q 188 121 243 55 q 107 280 134 187 q 80 486 80 373 m 227 486 q 245 337 227 406 q 297 214 262 267 q 388 131 333 162 q 518 101 443 101 q 731 194 652 101 q 809 486 809 287 q 792 633 809 563 q 739 755 775 702 q 649 839 704 808 q 518 871 594 871 q 306 776 384 871 q 227 486 227 681 "},"Ď":{"x_min":123.625,"x_max":912.578125,"ha":993,"o":"m 123 972 q 188 978 151 976 q 264 982 225 980 q 342 984 304 983 q 412 985 380 985 q 634 948 540 985 q 789 846 727 911 q 882 690 851 780 q 912 493 912 600 q 884 304 912 395 q 793 143 855 213 q 632 29 730 72 q 395 -14 534 -14 q 332 -12 372 -14 q 251 -9 293 -11 q 174 -6 209 -8 q 123 -1 138 -4 l 123 972 m 416 863 q 375 863 397 863 q 330 861 352 863 q 290 858 308 860 q 262 856 272 857 l 262 113 q 289 111 269 112 q 331 110 309 110 q 373 108 354 109 q 401 108 393 108 q 575 140 505 108 q 688 227 645 173 q 747 350 730 281 q 765 493 765 419 q 748 621 765 555 q 691 739 732 686 q 584 828 651 793 q 416 863 518 863 m 473 1033 l 377 1033 l 184 1173 l 184 1208 l 313 1208 l 402 1139 l 428 1094 l 457 1138 l 552 1208 l 676 1208 l 676 1171 l 473 1033 "},"&":{"x_min":173.625,"x_max":1120.921875,"ha":1238,"o":"m 173 262 q 194 367 173 318 q 250 460 215 416 q 332 540 286 504 q 430 604 379 576 q 368 701 394 652 q 343 808 343 751 q 355 874 343 841 q 395 932 368 906 q 465 974 422 958 q 569 990 508 990 q 677 974 633 990 q 747 935 720 959 q 784 880 773 910 q 795 819 795 849 q 747 699 795 762 q 593 583 700 637 q 716 422 645 502 q 861 272 787 341 q 895 313 877 288 q 927 368 912 338 q 957 427 943 397 q 980 485 970 457 l 1080 433 q 1055 377 1072 409 q 1018 313 1038 345 q 977 250 998 280 q 938 199 957 220 q 993 154 969 173 q 1039 122 1018 136 q 1080 97 1061 108 q 1120 76 1100 86 l 1043 -18 q 957 33 1004 1 q 862 109 911 65 q 802 61 834 84 q 728 21 769 38 q 637 -6 687 4 q 527 -18 587 -18 q 391 0 455 -18 q 279 55 327 19 q 202 143 230 91 q 173 262 173 195 m 782 188 q 697 273 740 227 q 618 364 655 319 q 547 451 580 409 q 491 524 515 492 q 357 408 409 469 q 305 267 305 348 q 325 195 305 227 q 377 139 344 162 q 453 104 409 116 q 545 93 497 93 q 617 101 581 93 q 684 122 652 109 q 740 153 715 136 q 782 188 765 170 m 475 805 q 492 728 475 766 q 538 649 509 690 q 647 730 616 694 q 679 794 679 766 q 656 864 679 838 q 575 890 633 890 q 498 867 522 890 q 475 805 475 844 "},"G":{"x_min":80.5625,"x_max":847.296875,"ha":928,"o":"m 483 490 l 847 490 l 847 61 q 787 27 822 41 q 713 2 752 12 q 632 -12 673 -6 q 550 -18 590 -18 q 364 11 450 -18 q 215 104 279 41 q 116 261 152 166 q 80 486 80 356 q 124 716 80 620 q 237 873 168 812 q 392 962 306 934 q 562 990 477 990 q 714 979 654 990 q 815 954 775 969 l 782 836 q 573 868 709 868 q 449 848 511 868 q 338 783 387 829 q 258 665 288 738 q 227 486 227 592 q 253 315 227 387 q 325 195 279 242 q 433 126 370 148 q 569 104 495 104 q 657 113 615 104 q 732 138 700 122 l 732 384 l 483 409 l 483 490 "},"`":{"x_min":83.34375,"x_max":334.75,"ha":418,"o":"m 334 792 l 259 792 l 83 968 l 83 1000 l 236 1000 l 334 792 "},"":{"x_min":83.34375,"x_max":793.125,"ha":876,"o":"m 83 364 q 106 525 83 454 q 176 647 130 597 q 288 723 222 697 q 438 750 354 750 q 594 720 527 750 q 705 639 661 691 q 771 517 750 587 q 793 364 793 447 q 768 204 793 275 q 699 83 744 133 q 588 7 654 33 q 438 -19 522 -19 q 280 10 347 -19 q 170 90 213 39 q 104 212 126 142 q 83 364 83 282 m 219 364 q 231 263 219 312 q 269 175 243 214 q 337 112 295 136 q 440 89 379 89 q 657 364 657 89 q 645 468 657 418 q 607 556 633 518 q 540 618 581 594 q 440 642 498 642 q 275 573 331 642 q 219 364 219 504 m 321 989 q 340 940 328 958 q 369 913 353 922 q 408 902 386 904 q 453 900 429 900 q 498 902 476 900 q 536 915 519 905 q 565 941 553 925 q 585 987 578 958 l 685 958 q 605 843 669 876 q 450 810 540 810 q 367 816 407 810 q 294 840 326 823 q 238 884 261 857 q 207 952 215 911 l 321 989 "},"ý":{"x_min":11.109375,"x_max":726.453125,"ha":738,"o":"m 348 268 l 391 127 l 409 127 l 444 269 l 595 729 l 726 729 l 487 69 q 434 -62 461 1 q 374 -175 406 -126 q 302 -255 341 -225 q 211 -285 262 -285 q 116 -272 155 -285 l 137 -164 q 179 -171 158 -171 q 229 -164 206 -171 q 272 -138 252 -157 q 307 -88 291 -120 q 337 -4 323 -55 l 11 729 l 162 729 l 348 268 m 421 1000 l 565 1000 l 565 968 l 410 792 l 332 792 l 421 1000 "},"º":{"x_min":69.453125,"x_max":548.65625,"ha":618,"o":"m 69 753 q 87 858 69 814 q 137 932 105 902 q 213 975 169 961 q 308 989 256 989 q 403 975 359 989 q 479 934 447 962 q 530 861 512 907 q 548 753 548 816 q 530 644 548 689 q 479 571 512 598 q 403 530 447 543 q 308 517 359 517 q 213 530 256 517 q 137 571 169 543 q 87 644 105 598 q 69 753 69 689 m 191 753 q 221 642 191 677 q 308 607 251 607 q 395 638 363 607 q 426 753 426 670 q 395 867 426 836 q 308 899 365 899 q 222 867 252 899 q 191 753 191 836 "},"":{"x_min":34.71875,"x_max":743.109375,"ha":867,"o":"m 743 0 l 604 0 l 604 413 l 455 383 l 195 0 l 34 0 l 269 338 l 361 399 q 261 431 306 409 q 181 487 215 452 q 128 569 147 522 q 109 679 109 616 q 141 822 109 764 q 227 916 173 880 q 355 969 281 953 q 512 985 429 985 q 625 980 563 985 q 743 962 687 975 l 743 0 m 504 866 q 411 857 455 866 q 332 828 366 849 q 277 772 298 807 q 256 681 256 736 q 276 594 256 630 q 329 537 295 559 q 409 506 363 516 q 505 497 454 497 l 604 497 l 604 857 q 562 864 584 863 q 504 866 540 866 m 237 1161 l 723 1161 l 723 1067 l 237 1067 l 237 1161 "},"∞":{"x_min":79.171875,"x_max":1219.546875,"ha":1297,"o":"m 638 390 q 506 265 584 308 q 338 222 427 222 q 239 240 286 222 q 156 291 193 258 q 100 372 120 324 q 79 480 79 420 q 99 593 79 543 q 156 680 119 644 q 242 734 193 715 q 350 753 291 753 q 533 709 456 753 q 658 600 609 666 q 804 718 725 683 q 972 753 884 753 q 1070 734 1025 753 q 1148 683 1115 716 q 1200 602 1182 650 q 1219 495 1219 554 q 1198 382 1219 433 q 1141 296 1177 331 q 1054 241 1104 260 q 944 222 1004 222 q 845 235 891 222 q 761 272 800 249 q 693 326 723 295 q 638 390 662 356 m 947 341 q 1002 351 976 341 q 1048 381 1029 361 q 1079 428 1068 401 q 1091 491 1091 456 q 1082 545 1091 519 q 1054 590 1073 571 q 1008 622 1036 610 q 943 634 980 634 q 821 605 884 634 q 707 514 758 576 q 750 446 725 477 q 807 391 776 414 q 872 354 837 368 q 947 341 908 341 m 351 634 q 295 622 322 634 q 250 591 269 611 q 218 544 230 571 q 206 484 206 516 q 250 381 206 421 q 366 341 294 341 q 490 378 430 341 q 590 472 550 416 q 490 590 550 547 q 351 634 430 634 "},"ź":{"x_min":66.671875,"x_max":640.328125,"ha":715,"o":"m 66 109 l 426 548 l 523 621 l 66 621 l 66 729 l 640 729 l 640 619 l 276 176 l 179 108 l 640 108 l 640 0 l 66 0 l 66 109 m 361 1000 l 505 1000 l 505 968 l 350 792 l 272 792 l 361 1000 "},"":{"x_min":55.5625,"x_max":680.609375,"ha":803,"o":"m 552 288 l 420 270 l 213 0 l 55 0 l 238 239 l 238 237 l 316 290 q 163 359 219 301 q 106 500 106 417 q 131 612 106 565 q 203 690 156 660 q 315 735 250 721 q 463 749 381 749 q 574 742 516 749 q 680 723 632 735 l 680 0 l 552 0 l 552 288 m 552 367 l 552 629 q 502 638 530 636 q 452 641 473 641 q 295 607 348 641 q 243 502 243 574 q 304 397 243 432 q 466 366 366 363 l 552 367 m 310 989 q 329 940 317 958 q 358 913 342 922 q 397 902 375 904 q 442 900 418 900 q 487 902 465 900 q 525 915 508 905 q 554 941 542 925 q 574 987 567 958 l 674 958 q 594 843 658 876 q 439 810 529 810 q 356 816 396 810 q 283 840 315 823 q 227 884 250 857 q 196 952 204 911 l 310 989 "},"я":{"x_min":55.5625,"x_max":680.609375,"ha":803,"o":"m 552 288 l 420 270 l 213 0 l 55 0 l 238 239 l 238 237 l 316 290 q 163 359 219 301 q 106 500 106 417 q 131 612 106 565 q 203 690 156 660 q 315 735 250 721 q 463 749 381 749 q 574 742 516 749 q 680 723 632 735 l 680 0 l 552 0 l 552 288 m 552 367 l 552 629 q 502 638 530 636 q 452 641 473 641 q 295 607 348 641 q 243 502 243 574 q 304 397 243 432 q 466 366 366 363 l 552 367 "},"ӛ":{"x_min":88.890625,"x_max":748.671875,"ha":832,"o":"m 116 668 q 238 726 166 704 q 391 749 309 749 q 552 720 484 749 q 663 641 619 692 q 727 519 707 590 q 748 364 748 449 q 725 203 748 274 q 657 83 701 132 q 550 7 613 33 q 405 -19 486 -19 q 288 -3 345 -19 q 187 48 231 11 q 115 146 143 85 q 88 303 88 208 q 90 349 88 322 q 95 406 91 376 l 616 406 q 595 513 609 468 q 550 586 580 558 q 473 627 520 614 q 356 641 426 641 q 248 621 302 641 q 161 577 194 602 l 116 668 m 406 89 q 554 147 497 89 q 612 314 611 205 l 219 314 q 267 143 215 197 q 406 89 319 89 m 182 881 q 204 936 182 914 q 262 959 226 959 q 319 936 297 959 q 340 881 340 914 q 319 827 340 849 q 262 805 297 805 q 204 827 226 805 q 182 881 182 849 m 480 881 q 502 936 480 914 q 560 959 524 959 q 617 936 596 959 q 639 881 639 914 q 617 827 639 849 q 560 805 596 805 q 502 827 524 805 q 480 881 480 849 "},"Ё":{"x_min":123.625,"x_max":718.109375,"ha":813,"o":"m 123 972 l 711 972 l 711 853 l 262 853 l 262 557 l 672 557 l 672 438 l 262 438 l 262 119 l 718 119 l 718 0 l 123 0 l 123 972 m 173 1104 q 196 1153 173 1135 q 259 1172 219 1172 q 321 1153 298 1172 q 345 1104 345 1135 q 321 1054 345 1073 q 259 1036 298 1036 q 196 1054 219 1036 q 173 1104 173 1073 m 470 1104 q 493 1153 470 1135 q 555 1172 516 1172 q 619 1153 595 1172 q 642 1104 642 1135 q 619 1054 642 1073 q 555 1036 595 1036 q 493 1054 516 1036 q 470 1104 470 1073 "},"ń":{"x_min":122.234375,"x_max":768.109375,"ha":890,"o":"m 640 0 l 640 402 q 602 577 640 519 q 469 636 565 636 q 328 592 384 636 q 250 480 272 548 l 250 0 l 122 0 l 122 729 l 211 729 l 236 631 l 248 631 q 353 715 288 681 q 508 750 418 750 q 620 735 572 750 q 702 684 669 720 q 751 585 734 647 q 768 429 768 523 l 768 0 l 640 0 m 461 1000 l 605 1000 l 605 968 l 450 792 l 372 792 l 461 1000 "},"Г":{"x_min":123.625,"x_max":700.0625,"ha":675,"o":"m 700 850 l 262 850 l 262 0 l 123 0 l 123 972 l 700 972 l 700 850 "},"Ь":{"x_min":123.625,"x_max":798.671875,"ha":846,"o":"m 123 972 l 262 972 l 262 600 q 286 604 269 602 q 325 607 304 606 q 369 610 347 609 q 409 612 391 612 q 551 598 481 612 q 675 550 620 584 q 764 459 730 517 q 798 314 798 402 q 766 169 798 231 q 677 67 733 107 q 544 7 620 27 q 379 -13 468 -13 q 327 -12 358 -13 q 260 -8 295 -11 q 189 -1 225 -6 q 123 9 154 2 l 123 972 m 394 106 q 492 117 445 106 q 574 154 538 129 q 630 217 609 179 q 651 307 651 254 q 629 399 651 363 q 570 456 607 435 q 486 485 533 477 q 390 493 438 493 q 358 491 377 493 q 320 488 338 490 q 285 484 301 487 q 262 480 269 481 l 262 114 q 319 107 281 108 q 394 106 356 106 "},"ԓ":{"x_min":-8.328125,"x_max":688.9375,"ha":811,"o":"m 688 729 l 688 -33 q 642 -224 688 -162 q 490 -286 595 -286 q 431 -281 462 -286 l 431 -178 q 500 -168 475 -179 q 538 -137 525 -158 q 556 -80 552 -115 q 561 0 561 -45 l 561 621 l 325 621 l 322 579 q 299 332 312 441 q 261 147 286 223 q 194 32 236 72 q 86 -7 152 -7 q 31 -3 55 -7 q -8 6 8 0 l 11 123 q 51 118 29 118 q 111 142 84 118 q 156 233 137 166 q 188 419 176 299 q 206 729 201 538 l 688 729 "},"¤":{"x_min":55.5625,"x_max":769.5,"ha":825,"o":"m 130 837 l 238 729 l 268 680 q 334 713 297 703 q 412 724 370 724 q 555 680 497 724 l 586 729 l 694 837 l 769 759 l 662 650 l 613 621 q 657 479 657 561 q 646 401 657 437 q 613 337 636 365 l 662 310 l 769 201 l 694 124 l 586 230 l 556 278 q 491 246 529 258 q 412 235 452 235 q 268 278 327 235 l 238 230 l 130 124 l 55 201 l 162 310 l 209 337 q 168 479 168 398 q 179 555 168 519 q 209 622 190 590 l 162 650 l 55 759 l 130 837 m 276 479 q 313 378 276 418 q 412 338 351 338 q 510 378 472 338 q 548 479 548 418 q 510 580 548 539 q 412 621 472 621 q 313 580 351 621 q 276 479 276 539 "},"Ĝ":{"x_min":80.5625,"x_max":847.296875,"ha":928,"o":"m 483 490 l 847 490 l 847 61 q 787 27 822 41 q 713 2 752 12 q 632 -12 673 -6 q 550 -18 590 -18 q 364 11 450 -18 q 215 104 279 41 q 116 261 152 166 q 80 486 80 356 q 124 716 80 620 q 237 873 168 812 q 392 962 306 934 q 562 990 477 990 q 714 979 654 990 q 815 954 775 969 l 782 836 q 573 868 709 868 q 449 848 511 868 q 338 783 387 829 q 258 665 288 738 q 227 486 227 592 q 253 315 227 387 q 325 195 279 242 q 433 126 370 148 q 569 104 495 104 q 657 113 615 104 q 732 138 700 122 l 732 384 l 483 409 l 483 490 m 494 1209 l 595 1209 l 788 1069 l 788 1035 l 660 1035 l 570 1100 l 542 1149 l 513 1101 l 416 1035 l 291 1035 l 291 1071 l 494 1209 "},"p":{"x_min":122.234375,"x_max":791.734375,"ha":875,"o":"m 122 729 l 208 729 l 233 636 l 245 636 q 343 720 283 690 q 477 750 402 750 q 713 661 636 750 q 791 380 791 573 q 766 214 791 289 q 692 88 740 140 q 575 8 644 36 q 422 -19 506 -19 q 371 -16 394 -19 q 329 -9 348 -14 q 290 1 309 -5 q 250 15 270 7 l 250 -278 l 122 -278 l 122 729 m 448 642 q 318 600 365 642 q 250 472 270 558 l 250 136 q 319 101 281 114 q 415 89 356 89 q 591 162 527 89 q 655 382 655 236 q 608 571 655 500 q 448 642 561 642 "},"":{"x_min":83.34375,"x_max":572.265625,"ha":656,"o":"m 83 1098 q 168 1159 127 1143 q 244 1175 208 1175 q 302 1167 273 1175 q 356 1151 330 1159 q 408 1134 383 1142 q 458 1127 433 1127 q 497 1133 477 1127 q 537 1157 518 1140 l 572 1086 q 496 1040 531 1052 q 427 1028 461 1028 q 370 1034 398 1028 q 316 1051 343 1041 q 265 1067 290 1060 q 215 1074 240 1074 q 166 1064 191 1074 q 116 1031 141 1055 l 83 1098 "},"ӓ":{"x_min":62.5,"x_max":691.71875,"ha":808,"o":"m 113 683 q 423 743 238 743 q 557 721 506 743 q 636 666 608 699 q 672 592 663 633 q 682 511 682 551 q 676 357 682 434 q 670 190 670 280 q 675 87 670 137 q 691 -3 680 38 l 598 -3 l 563 108 l 550 108 q 512 66 534 87 q 459 27 490 44 q 389 0 429 11 q 298 -11 350 -11 q 204 3 247 -11 q 129 44 161 18 q 80 109 98 70 q 62 194 62 147 q 89 303 62 257 q 159 378 116 348 q 257 421 202 407 q 366 435 312 435 q 439 433 409 435 q 489 430 469 432 q 523 425 509 428 q 548 422 537 423 q 552 458 551 443 q 554 497 554 473 q 545 562 554 536 q 518 605 537 589 q 468 628 500 621 q 390 635 436 635 q 331 630 363 635 q 268 618 300 626 q 204 599 236 611 q 148 576 173 588 l 113 683 m 548 330 q 525 334 537 331 q 493 338 512 337 q 449 341 475 340 q 386 343 423 343 q 249 312 300 343 q 198 208 198 281 q 238 124 198 152 q 340 97 277 97 q 421 108 386 97 q 482 138 456 120 q 524 176 508 155 q 548 219 540 198 l 548 330 m 165 881 q 187 936 165 914 q 245 959 209 959 q 302 936 280 959 q 323 881 323 914 q 302 827 323 849 q 245 805 280 805 q 187 827 209 805 q 165 881 165 849 m 463 881 q 485 936 463 914 q 543 959 507 959 q 600 936 579 959 q 622 881 622 914 q 600 827 622 849 q 543 805 579 805 q 485 827 507 805 q 463 881 463 849 "},"":{"x_min":122.234375,"x_max":754.234375,"ha":876,"o":"m 250 729 l 250 298 l 240 170 l 255 170 l 319 294 l 654 729 l 754 729 l 754 -33 q 707 -224 754 -162 q 555 -286 661 -286 q 497 -281 527 -286 l 497 -178 q 565 -168 540 -179 q 604 -137 590 -158 q 622 -80 618 -115 q 626 0 626 -46 l 626 416 l 645 560 l 630 560 l 562 424 l 220 0 l 122 0 l 122 729 l 250 729 m 309 989 q 329 940 316 958 q 358 913 341 922 q 396 902 375 904 q 441 900 418 900 q 486 902 465 900 q 525 915 508 905 q 554 941 541 925 q 573 987 566 958 l 673 958 q 593 843 658 876 q 438 810 529 810 q 355 816 395 810 q 282 840 315 823 q 227 884 250 857 q 195 952 204 911 l 309 989 "},"Ю":{"x_min":123.625,"x_max":1277.875,"ha":1358,"o":"m 262 557 l 443 557 q 565 877 458 765 q 862 990 672 990 q 1051 953 972 990 q 1180 851 1130 917 q 1254 691 1230 784 q 1277 486 1277 598 q 1173 113 1277 245 q 862 -18 1068 -18 q 683 14 759 -18 q 554 106 607 47 q 475 248 502 165 q 441 435 447 332 l 262 435 l 262 0 l 123 0 l 123 972 l 262 972 l 262 557 m 590 486 q 604 337 590 408 q 651 214 619 267 q 735 131 683 162 q 862 101 787 101 q 1063 194 997 101 q 1130 486 1130 287 q 1117 632 1130 562 q 1073 755 1104 702 q 990 839 1041 808 q 862 871 938 871 q 659 776 727 871 q 590 486 590 681 "},"S":{"x_min":66.671875,"x_max":740.34375,"ha":807,"o":"m 601 255 q 563 345 601 312 q 469 403 526 379 q 347 449 412 427 q 225 504 281 470 q 130 590 168 537 q 93 727 93 642 q 179 917 93 845 q 427 990 266 990 q 598 976 520 990 q 720 939 676 962 l 677 823 q 573 856 643 841 q 420 871 504 871 q 279 830 326 871 q 231 737 231 790 q 269 649 231 683 q 363 590 306 616 q 486 541 420 565 q 608 483 551 517 q 702 397 665 448 q 740 268 740 347 q 715 150 740 202 q 643 59 690 97 q 529 2 595 22 q 377 -18 462 -18 q 185 0 263 -18 q 66 36 106 16 l 112 157 q 217 119 147 138 q 372 101 287 101 q 462 110 420 101 q 535 137 504 119 q 584 185 566 156 q 601 255 601 215 "},"/":{"x_min":-52.78125,"x_max":602.828125,"ha":550,"o":"m 500 989 l 602 941 l 48 -194 l -52 -144 l 500 989 "},"Ӭ":{"x_min":62.5,"x_max":795.890625,"ha":876,"o":"m 223 554 l 647 554 q 545 792 633 715 q 319 871 458 869 q 188 856 245 872 q 98 822 131 841 l 65 933 q 182 974 111 959 q 333 990 254 990 q 514 962 430 990 q 661 874 598 934 q 759 717 723 813 q 795 486 795 622 q 754 252 795 348 q 643 96 712 156 q 485 9 575 36 q 300 -18 395 -18 q 163 -6 223 -18 q 62 20 102 5 l 98 140 q 189 112 133 123 q 309 101 245 101 q 427 118 369 101 q 532 175 486 135 q 610 279 579 215 q 648 435 641 343 l 223 435 l 223 554 m 109 1104 q 132 1153 109 1135 q 195 1172 155 1172 q 257 1153 234 1172 q 281 1104 281 1135 q 257 1054 281 1073 q 195 1036 234 1036 q 132 1054 155 1036 q 109 1104 109 1073 m 406 1104 q 429 1153 406 1135 q 491 1172 452 1172 q 555 1153 531 1172 q 578 1104 578 1135 q 555 1054 578 1073 q 491 1036 531 1036 q 429 1054 452 1036 q 406 1104 406 1073 "},"":{"x_min":122.234375,"x_max":948.6875,"ha":1071,"o":"m 250 108 q 369 100 308 100 q 509 134 469 100 q 550 233 550 169 q 510 326 550 288 q 373 364 470 364 q 314 361 347 364 q 250 352 281 359 l 250 108 m 250 449 q 332 458 294 456 q 401 461 370 461 q 536 444 481 461 q 625 398 591 427 q 672 329 658 369 q 686 244 686 290 q 605 52 686 112 q 343 -8 525 -8 q 230 -6 284 -8 q 122 -1 176 -5 l 122 729 l 250 729 l 250 449 m 820 729 l 948 729 l 948 0 l 820 0 l 820 729 m 279 925 l 734 925 l 734 829 l 279 829 l 279 925 "},"ђ":{"x_min":0,"x_max":783.390625,"ha":883,"o":"m 0 833 l 134 833 l 134 972 l 262 972 l 262 833 l 495 833 l 495 741 l 262 741 l 262 516 l 277 516 q 379 595 320 566 q 523 625 437 625 q 639 610 590 625 q 720 559 688 595 q 768 460 752 522 q 783 302 783 398 l 783 -33 q 736 -224 783 -162 q 584 -286 690 -286 q 526 -281 556 -286 l 526 -178 q 594 -168 569 -179 q 633 -136 619 -158 q 651 -79 647 -114 q 655 1 655 -44 l 655 279 q 647 381 655 337 q 620 455 640 425 q 566 501 600 486 q 479 517 531 517 q 406 503 441 517 q 341 466 370 490 q 291 410 312 443 q 262 339 270 378 l 262 0 l 134 0 l 134 741 l 0 741 l 0 833 "},"y":{"x_min":11.109375,"x_max":726.453125,"ha":738,"o":"m 348 268 l 391 127 l 409 127 l 444 269 l 595 729 l 726 729 l 487 69 q 434 -62 461 1 q 374 -175 406 -126 q 302 -255 341 -225 q 211 -285 262 -285 q 116 -272 155 -285 l 137 -164 q 179 -171 158 -171 q 229 -164 206 -171 q 272 -138 252 -157 q 307 -88 291 -120 q 337 -4 323 -55 l 11 729 l 162 729 l 348 268 "},"ⱨ":{"x_min":122.234375,"x_max":863.953125,"ha":886,"o":"m 768 108 l 863 108 l 863 -183 l 773 -183 l 751 0 l 640 0 l 640 402 q 632 506 640 462 q 604 579 625 549 q 550 622 584 608 q 465 636 516 636 q 394 623 429 636 q 330 588 359 611 q 280 535 301 566 q 250 465 259 504 l 250 0 l 122 0 l 122 972 l 250 972 l 250 638 l 265 638 q 365 719 306 688 q 509 750 423 750 q 625 735 576 750 q 705 683 673 720 q 752 585 737 647 q 768 430 768 523 l 768 108 "},"–":{"x_min":177.796875,"x_max":827.84375,"ha":1006,"o":"m 177 459 l 827 459 l 827 340 l 177 340 l 177 459 "},"ë":{"x_min":83.34375,"x_max":741.71875,"ha":831,"o":"m 715 59 q 594 2 666 23 q 437 -19 522 -19 q 278 8 345 -19 q 168 85 211 35 q 104 205 125 135 q 83 364 83 276 q 175 650 83 551 q 438 750 268 750 q 547 738 493 750 q 644 693 601 726 q 714 604 687 661 q 741 455 741 547 q 740 403 741 433 q 734 347 738 374 l 213 347 q 275 154 216 219 q 473 89 333 89 q 584 109 531 89 q 666 157 637 129 l 715 59 m 619 439 q 574 596 622 550 q 440 642 526 642 q 286 596 343 642 q 219 439 229 550 l 619 439 m 219 907 q 241 962 219 940 q 299 985 263 985 q 356 962 334 985 q 377 907 377 940 q 356 853 377 875 q 299 831 334 831 q 241 853 263 831 q 219 907 219 875 m 517 907 q 539 962 517 940 q 597 985 561 985 q 654 962 633 985 q 676 907 676 940 q 654 853 676 875 q 597 831 633 831 q 539 853 561 831 q 517 907 517 875 "},"б":{"x_min":88.890625,"x_max":798.671875,"ha":882,"o":"m 215 582 q 331 680 266 651 q 490 710 395 710 q 717 622 636 710 q 798 367 798 535 q 774 198 798 271 q 704 77 750 125 q 593 5 658 29 q 445 -19 527 -19 q 178 89 268 -19 q 88 429 88 197 q 102 642 88 554 q 143 788 116 729 q 209 880 170 846 q 294 932 247 914 q 397 957 341 950 q 518 970 454 964 q 647 985 598 976 q 726 1014 695 993 l 740 900 q 654 871 708 880 q 505 856 601 862 q 386 840 438 851 q 295 801 334 829 q 233 721 256 774 q 201 585 209 669 l 215 582 m 225 347 q 237 248 225 294 q 277 166 250 201 q 345 109 304 130 q 444 89 387 89 q 662 354 662 89 q 650 452 662 407 q 614 531 638 497 q 552 583 590 564 q 462 602 513 602 q 281 535 337 602 q 225 347 225 469 "},"ƒ":{"x_min":-55.5625,"x_max":800.0625,"ha":825,"o":"m 487 618 l 365 -47 q 338 -142 355 -98 q 293 -218 322 -186 q 223 -270 265 -251 q 123 -289 181 -289 q 31 -277 81 -289 q -55 -254 -19 -266 l -26 -149 q 40 -170 9 -162 q 109 -178 70 -178 q 196 -134 166 -178 q 244 10 226 -91 l 350 618 l 223 618 l 223 729 l 369 729 l 381 787 q 406 876 390 838 q 448 940 422 915 q 513 977 475 965 q 609 990 552 990 q 710 977 659 990 q 800 949 761 964 l 763 848 q 692 870 727 862 q 620 879 657 879 q 545 849 566 879 q 512 748 525 820 l 506 729 l 688 729 l 688 618 l 487 618 "},"у":{"x_min":11.109375,"x_max":726.453125,"ha":738,"o":"m 348 268 l 391 127 l 409 127 l 444 269 l 595 729 l 726 729 l 487 69 q 434 -62 461 1 q 374 -175 406 -126 q 302 -255 341 -225 q 211 -285 262 -285 q 116 -272 155 -285 l 137 -164 q 179 -171 158 -171 q 229 -164 206 -171 q 272 -138 252 -157 q 307 -88 291 -120 q 337 -4 323 -55 l 11 729 l 162 729 l 348 268 "},"J":{"x_min":-48.609375,"x_max":312.53125,"ha":451,"o":"m 173 972 l 312 972 l 312 222 q 256 49 312 113 q 90 -14 200 -14 q 57 -12 76 -14 q 19 -7 38 -11 q -18 0 0 -4 q -48 9 -36 4 l -22 125 q 70 108 16 108 q 153 148 133 108 q 173 259 173 188 l 173 972 "},"ŕ":{"x_min":122.234375,"x_max":527.8125,"ha":528,"o":"m 502 608 q 456 621 479 615 q 415 627 434 627 q 300 589 341 627 q 250 494 259 551 l 250 0 l 122 0 l 122 729 l 211 729 l 236 632 l 248 632 q 322 716 280 686 q 429 746 365 746 q 475 742 448 746 q 527 730 501 739 l 502 608 m 291 1000 l 435 1000 l 435 968 l 280 792 l 202 792 l 291 1000 "},"ӌ":{"x_min":83.34375,"x_max":672.28125,"ha":795,"o":"m 544 313 q 453 280 509 298 q 320 262 397 262 q 143 316 202 262 q 83 508 83 370 l 83 729 l 211 729 l 211 550 q 215 475 211 509 q 235 418 220 442 q 277 382 250 395 q 351 370 305 370 q 469 385 422 370 q 544 420 516 400 l 544 729 l 672 729 l 672 0 l 520 0 l 493 -183 l 412 -183 l 412 108 l 544 108 l 544 313 "},"˘":{"x_min":93.0625,"x_max":583.375,"ha":671,"o":"m 162 1054 q 240 976 191 1002 q 345 950 290 950 q 446 975 400 950 q 520 1054 493 1001 l 583 1027 q 557 961 577 994 q 505 903 537 928 q 431 862 473 878 q 344 847 390 847 q 185 894 254 847 q 93 1020 116 941 l 162 1054 "},"":{"x_min":66.671875,"x_max":633.390625,"ha":717,"o":"m 205 324 l 205 421 l 312 421 q 371 429 343 421 q 422 452 400 437 q 457 487 444 466 q 470 530 470 507 q 427 611 470 589 q 297 634 384 634 q 185 620 236 634 q 102 593 134 607 l 68 690 q 338 742 158 742 q 536 696 469 742 q 602 562 602 650 q 593 514 602 539 q 566 466 584 489 q 522 424 548 443 q 463 396 497 405 l 463 380 q 595 318 558 364 q 633 201 633 273 q 569 63 633 122 q 376 -11 505 4 l 355 -247 l 268 -247 l 238 -13 q 141 0 181 -9 q 66 28 101 11 l 100 131 q 190 103 137 111 q 305 95 243 95 q 497 214 497 95 q 451 296 497 268 q 291 324 405 324 l 205 324 "},"D":{"x_min":123.625,"x_max":912.578125,"ha":993,"o":"m 123 972 q 188 978 151 976 q 264 982 225 980 q 342 984 304 983 q 412 985 380 985 q 634 948 540 985 q 789 846 727 911 q 882 690 851 780 q 912 493 912 600 q 884 304 912 395 q 793 143 855 213 q 632 29 730 72 q 395 -14 534 -14 q 332 -12 372 -14 q 251 -9 293 -11 q 174 -6 209 -8 q 123 -1 138 -4 l 123 972 m 416 863 q 375 863 397 863 q 330 861 352 863 q 290 858 308 860 q 262 856 272 857 l 262 113 q 289 111 269 112 q 331 110 309 110 q 373 108 354 109 q 401 108 393 108 q 575 140 505 108 q 688 227 645 173 q 747 350 730 281 q 765 493 765 419 q 748 621 765 555 q 691 739 732 686 q 584 828 651 793 q 416 863 518 863 "},"₻":{"x_min":44.453125,"x_max":788.953125,"ha":825,"o":"m 44 478 l 154 478 l 154 962 q 278 980 212 975 q 411 985 344 985 q 551 971 483 985 q 672 925 619 958 q 757 834 725 891 q 788 687 788 776 q 755 543 788 601 q 668 449 722 485 q 545 396 613 412 q 405 381 476 381 l 287 381 l 287 279 l 540 279 l 540 182 l 287 182 l 287 0 l 154 0 l 154 182 l 44 182 l 44 279 l 154 279 l 154 381 l 44 381 l 44 478 m 416 871 q 343 868 379 871 q 287 862 308 865 l 287 478 l 398 478 q 487 487 443 478 q 567 519 531 496 q 625 583 602 543 q 647 684 647 623 q 629 774 647 739 q 579 831 611 809 q 506 861 548 852 q 416 871 463 871 "},"ĺ":{"x_min":134.34375,"x_max":494.09375,"ha":467,"o":"m 266 193 q 288 112 266 136 q 345 89 309 89 q 388 91 368 89 q 438 103 409 94 l 455 8 q 422 -1 441 3 q 381 -10 402 -6 q 340 -16 361 -14 q 302 -19 319 -19 q 183 19 227 -19 q 138 146 138 57 l 138 972 l 266 972 l 266 193 m 310 1209 l 494 1209 l 494 1177 l 246 1045 l 134 1045 l 310 1209 "},"ł":{"x_min":9.71875,"x_max":455.59375,"ha":467,"o":"m 9 402 l 138 492 l 138 972 l 266 972 l 266 581 l 415 686 l 415 564 l 266 460 l 266 193 q 288 112 266 136 q 345 89 309 89 q 388 91 368 89 q 438 103 409 94 l 455 8 q 422 -1 441 3 q 381 -10 402 -6 q 340 -16 361 -14 q 302 -19 319 -19 q 183 19 227 -19 q 138 146 138 57 l 138 372 l 9 284 l 9 402 "},"ӳ":{"x_min":11.109375,"x_max":726.453125,"ha":738,"o":"m 348 268 l 391 127 l 409 127 l 444 269 l 595 729 l 726 729 l 487 69 q 434 -62 461 1 q 374 -175 406 -126 q 302 -255 341 -225 q 211 -285 262 -285 q 116 -272 155 -285 l 137 -164 q 179 -171 158 -171 q 229 -164 206 -171 q 272 -138 252 -157 q 307 -88 291 -120 q 337 -4 323 -55 l 11 729 l 162 729 l 348 268 m 289 1026 l 414 1026 l 414 1009 l 303 847 l 235 847 l 289 1026 m 532 1026 l 672 1026 l 672 1010 l 489 847 l 418 847 l 532 1026 "},"ц":{"x_min":122.234375,"x_max":847.296875,"ha":875,"o":"m 847 -183 l 761 -183 l 737 0 l 122 0 l 122 729 l 250 729 l 250 108 l 601 108 l 601 729 l 729 729 l 729 108 l 847 108 l 847 -183 "},"Л":{"x_min":-5.5625,"x_max":825.0625,"ha":949,"o":"m 686 850 l 380 850 q 364 599 373 712 q 341 396 355 487 q 309 236 327 305 q 262 115 290 166 q 179 20 226 48 q 80 -7 131 -7 q 32 -3 51 -7 q -5 6 13 0 l 12 124 q 45 119 29 119 q 79 126 62 119 q 113 146 97 132 q 145 187 130 161 q 184 284 166 223 q 216 440 202 346 q 239 665 230 534 q 252 972 248 797 l 825 972 l 825 0 l 686 0 l 686 850 "},"$":{"x_min":111.125,"x_max":737.5625,"ha":825,"o":"m 365 -18 q 215 -2 280 -15 q 111 30 150 11 l 154 147 q 238 116 186 130 q 365 99 290 101 l 365 445 q 274 488 319 465 q 193 543 229 511 q 136 621 158 576 q 115 730 115 666 q 177 904 115 838 q 365 986 240 970 l 365 1111 l 475 1111 l 475 989 q 601 975 551 986 q 691 945 651 963 l 651 832 q 580 856 623 845 q 475 872 537 867 l 475 554 q 569 509 522 533 q 654 451 616 484 q 714 373 691 418 q 737 266 737 329 q 670 79 737 151 q 475 -11 602 8 l 475 -139 l 365 -139 l 365 -18 m 444 101 q 558 146 515 110 q 601 253 601 183 q 588 307 601 283 q 554 349 576 330 q 504 383 533 368 q 444 412 476 398 l 444 101 m 395 872 q 283 828 315 865 q 251 740 251 791 q 293 650 251 684 q 395 588 334 616 l 395 872 "},"w":{"x_min":11.109375,"x_max":1166.765625,"ha":1167,"o":"m 650 729 l 769 452 l 829 312 l 866 172 l 876 172 l 908 316 l 1044 729 l 1166 729 l 901 -15 l 832 -15 l 627 455 l 627 454 l 591 588 l 550 452 l 550 454 l 354 -15 l 287 -15 l 11 729 l 151 729 l 305 316 l 331 171 l 344 171 l 383 319 l 551 729 l 650 729 "},"о":{"x_min":83.34375,"x_max":793.125,"ha":876,"o":"m 83 364 q 106 525 83 454 q 176 647 130 597 q 288 723 222 697 q 438 750 354 750 q 594 720 527 750 q 705 639 661 691 q 771 517 750 587 q 793 364 793 447 q 768 204 793 275 q 699 83 744 133 q 588 7 654 33 q 438 -19 522 -19 q 280 10 347 -19 q 170 90 213 39 q 104 212 126 142 q 83 364 83 282 m 219 364 q 231 263 219 312 q 269 175 243 214 q 337 112 295 136 q 440 89 379 89 q 657 364 657 89 q 645 468 657 418 q 607 556 633 518 q 540 618 581 594 q 440 642 498 642 q 275 573 331 642 q 219 364 219 504 "},"Д":{"x_min":6.9375,"x_max":983.40625,"ha":1022,"o":"m 983 -178 l 887 -178 l 863 0 l 125 0 l 102 -178 l 6 -178 l 6 122 l 115 122 q 153 192 127 137 q 204 349 179 247 q 248 605 230 451 q 265 972 266 759 l 844 972 l 844 122 l 983 122 l 983 -178 m 705 122 l 705 850 l 393 850 q 375 586 387 702 q 346 381 363 470 q 307 228 329 292 q 262 122 286 165 l 705 122 "},"Ç":{"x_min":80.5625,"x_max":811.171875,"ha":867,"o":"m 811 41 q 717 0 772 13 q 598 -17 662 -12 l 565 -73 q 666 -110 633 -85 q 698 -180 698 -135 q 647 -274 698 -239 q 504 -310 595 -310 q 467 -308 486 -310 q 429 -303 448 -307 l 441 -253 q 518 -251 490 -255 q 559 -237 545 -247 q 577 -216 573 -228 q 580 -193 580 -204 q 545 -156 580 -169 q 443 -136 509 -143 l 513 -17 q 346 19 425 -12 q 209 113 268 51 q 115 268 150 176 q 80 485 80 360 q 122 717 80 621 q 230 874 163 813 q 380 962 297 934 q 545 990 463 990 q 695 980 637 990 q 794 955 754 970 l 763 836 q 556 868 695 868 q 435 847 494 868 q 329 782 376 827 q 255 664 283 737 q 227 485 227 591 q 254 320 227 391 q 327 201 280 249 q 436 129 373 153 q 575 105 500 105 q 693 116 643 105 q 777 148 743 128 l 811 41 "},"Ŝ":{"x_min":66.671875,"x_max":740.34375,"ha":807,"o":"m 601 255 q 563 345 601 312 q 469 403 526 379 q 347 449 412 427 q 225 504 281 470 q 130 590 168 537 q 93 727 93 642 q 179 917 93 845 q 427 990 266 990 q 598 976 520 990 q 720 939 676 962 l 677 823 q 573 856 643 841 q 420 871 504 871 q 279 830 326 871 q 231 737 231 790 q 269 649 231 683 q 363 590 306 616 q 486 541 420 565 q 608 483 551 517 q 702 397 665 448 q 740 268 740 347 q 715 150 740 202 q 643 59 690 97 q 529 2 595 22 q 377 -18 462 -18 q 185 0 263 -18 q 66 36 106 16 l 112 157 q 217 119 147 138 q 372 101 287 101 q 462 110 420 101 q 535 137 504 119 q 584 185 566 156 q 601 255 601 215 m 376 1209 l 477 1209 l 670 1069 l 670 1035 l 542 1035 l 452 1100 l 424 1149 l 395 1101 l 298 1035 l 173 1035 l 173 1071 l 376 1209 "},"Ӛ":{"x_min":76.390625,"x_max":888.953125,"ha":970,"o":"m 226 434 q 222 400 223 417 q 220 367 220 384 q 235 268 220 316 q 280 182 250 220 q 357 123 311 145 q 468 101 404 101 q 675 183 602 101 q 750 434 748 266 l 226 434 m 750 551 q 660 793 737 715 q 430 871 583 871 q 359 864 394 871 q 293 849 325 858 q 236 829 262 840 q 194 809 211 818 l 162 920 q 284 968 206 946 q 456 990 362 990 q 638 961 558 990 q 775 871 719 933 q 859 715 830 810 q 888 486 888 619 q 783 113 888 245 q 465 -18 677 -18 q 296 11 369 -18 q 175 93 223 40 q 101 223 126 147 q 76 394 76 299 q 80 469 76 430 q 91 551 84 509 l 750 551 m 239 1104 q 262 1153 239 1135 q 325 1172 285 1172 q 387 1153 364 1172 q 411 1104 411 1135 q 387 1054 411 1073 q 325 1036 364 1036 q 262 1054 285 1036 q 239 1104 239 1073 m 536 1104 q 559 1153 536 1135 q 621 1172 582 1172 q 685 1153 661 1172 q 708 1104 708 1135 q 685 1054 708 1073 q 621 1036 661 1036 q 559 1054 582 1036 q 536 1104 536 1073 "},"ӣ":{"x_min":122.234375,"x_max":754.234375,"ha":876,"o":"m 626 416 l 645 560 l 630 560 l 562 424 l 220 0 l 122 0 l 122 729 l 250 729 l 250 298 l 240 170 l 255 170 l 319 294 l 654 729 l 754 729 l 754 0 l 626 0 l 626 416 m 198 925 l 653 925 l 653 829 l 198 829 l 198 925 "},"C":{"x_min":80.5625,"x_max":811.171875,"ha":867,"o":"m 811 42 q 694 -4 765 8 q 544 -18 623 -18 q 367 11 451 -18 q 219 103 283 41 q 118 260 155 165 q 80 486 80 355 q 122 717 80 622 q 230 874 163 813 q 380 962 297 934 q 545 990 463 990 q 695 980 637 990 q 794 955 754 970 l 763 836 q 556 868 695 868 q 435 847 494 868 q 329 782 376 827 q 255 664 283 737 q 227 486 227 591 q 254 320 227 391 q 327 200 280 248 q 436 128 373 152 q 575 104 500 104 q 693 116 643 104 q 777 149 743 129 l 811 42 "},"Ĵ":{"x_min":-48.609375,"x_max":488.609375,"ha":451,"o":"m 173 972 l 312 972 l 312 222 q 256 49 312 113 q 90 -14 200 -14 q 57 -12 76 -14 q 19 -7 38 -11 q -18 0 0 -4 q -48 9 -36 4 l -22 125 q 70 108 16 108 q 153 148 133 108 q 173 259 173 188 l 173 972 m 194 1209 l 295 1209 l 488 1069 l 488 1035 l 360 1035 l 270 1100 l 242 1149 l 213 1101 l 116 1035 l -8 1035 l -8 1071 l 194 1209 "},"Ҕ":{"x_min":123.625,"x_max":798.671875,"ha":878,"o":"m 262 0 l 123 0 l 123 972 l 700 972 l 700 850 l 262 850 l 262 499 q 334 517 281 505 q 469 529 386 529 q 588 513 529 529 q 694 459 647 498 q 770 355 741 420 q 798 190 798 290 q 706 -87 798 2 q 440 -178 613 -178 q 369 -176 391 -178 q 336 -172 347 -175 l 336 -51 q 377 -55 354 -54 q 443 -56 401 -56 q 597 1 544 -56 q 651 180 651 59 q 633 291 651 247 q 584 362 615 336 q 513 399 554 389 q 426 410 472 410 q 375 406 401 410 q 326 398 348 403 q 286 388 304 393 q 262 380 269 383 l 262 0 "},"È":{"x_min":123.625,"x_max":718.109375,"ha":813,"o":"m 123 972 l 711 972 l 711 853 l 262 853 l 262 557 l 672 557 l 672 438 l 262 438 l 262 119 l 718 119 l 718 0 l 123 0 l 123 972 m 501 1045 l 381 1045 l 141 1177 l 141 1209 l 324 1209 l 501 1045 "},"ﬁ":{"x_min":33.34375,"x_max":743.109375,"ha":893,"o":"m 743 729 l 743 0 l 615 0 l 615 621 l 288 621 l 288 0 l 161 0 l 161 621 l 33 621 l 33 729 l 161 729 l 161 774 q 234 938 161 887 q 448 990 306 990 q 615 972 540 990 q 737 928 690 955 l 698 829 q 593 867 654 852 q 468 882 533 882 q 374 873 409 882 q 320 846 338 865 q 295 799 301 827 q 288 729 288 770 l 743 729 "},"":{"x_min":62.5,"x_max":795.890625,"ha":876,"o":"m 223 554 l 647 554 q 545 792 633 715 q 319 871 458 869 q 188 856 245 872 q 98 822 131 841 l 65 933 q 182 974 111 959 q 333 990 254 990 q 514 962 430 990 q 661 874 598 934 q 759 717 723 813 q 795 486 795 622 q 754 252 795 348 q 643 96 712 156 q 485 9 575 36 q 300 -18 395 -18 q 163 -6 223 -18 q 62 20 102 5 l 98 140 q 189 112 133 123 q 309 101 245 101 q 427 118 369 101 q 532 175 486 135 q 610 279 579 215 q 648 435 641 343 l 223 435 l 223 554 m 244 1108 q 270 1160 244 1138 q 344 1183 297 1183 q 418 1160 391 1183 q 445 1108 445 1138 q 418 1053 445 1074 q 344 1032 391 1032 q 270 1053 297 1032 q 244 1108 244 1074 "},"X":{"x_min":37.5,"x_max":904.234375,"ha":942,"o":"m 388 494 l 68 972 l 233 972 l 443 652 l 480 572 l 516 652 l 736 972 l 888 972 l 558 504 l 904 0 l 741 0 l 509 338 l 466 423 l 427 338 l 190 0 l 37 0 l 388 494 "},"ô":{"x_min":83.34375,"x_max":793.125,"ha":876,"o":"m 83 364 q 106 525 83 454 q 176 647 130 597 q 288 723 222 697 q 438 750 354 750 q 594 720 527 750 q 705 639 661 691 q 771 517 750 587 q 793 364 793 447 q 768 204 793 275 q 699 83 744 133 q 588 7 654 33 q 438 -19 522 -19 q 280 10 347 -19 q 170 90 213 39 q 104 212 126 142 q 83 364 83 282 m 219 364 q 231 263 219 312 q 269 175 243 214 q 337 112 295 136 q 440 89 379 89 q 657 364 657 89 q 645 468 657 418 q 607 556 633 518 q 540 618 581 594 q 440 642 498 642 q 275 573 331 642 q 219 364 219 504 m 415 1074 l 472 1074 q 559 943 515 1007 q 645 814 604 879 l 534 814 l 472 909 l 436 1008 l 393 909 l 326 814 l 220 814 l 415 1074 "},"ҝ":{"x_min":122.234375,"x_max":880.625,"ha":903,"o":"m 350 324 l 250 324 l 250 0 l 122 0 l 122 731 l 250 731 l 250 385 l 350 393 l 350 587 l 437 587 l 437 401 l 497 408 l 687 729 l 812 729 l 648 449 l 556 385 l 659 312 l 880 0 l 734 0 l 504 324 l 437 324 l 437 153 l 350 153 l 350 324 "},"Ė":{"x_min":123.625,"x_max":718.109375,"ha":813,"o":"m 123 972 l 711 972 l 711 853 l 262 853 l 262 557 l 672 557 l 672 438 l 262 438 l 262 119 l 718 119 l 718 0 l 123 0 l 123 972 m 318 1108 q 344 1160 318 1138 q 418 1183 371 1183 q 492 1160 465 1183 q 519 1108 519 1138 q 492 1053 519 1074 q 418 1032 465 1032 q 344 1053 371 1032 q 318 1108 318 1074 "},"г":{"x_min":122.234375,"x_max":591.71875,"ha":592,"o":"m 591 621 l 250 621 l 250 0 l 122 0 l 122 729 l 591 729 l 591 621 "},"":{"x_min":66.671875,"x_max":670.890625,"ha":754,"o":"m 198 422 l 533 422 q 467 582 525 522 q 301 642 409 642 q 188 624 236 642 q 108 587 140 606 l 66 681 q 179 731 115 713 q 329 750 243 750 q 481 723 416 750 q 588 647 545 697 q 650 525 630 597 q 670 364 670 454 q 576 79 670 178 q 316 -19 481 -19 q 175 -7 241 -19 q 66 28 108 4 l 101 134 q 191 101 138 114 q 297 89 244 89 q 467 142 409 89 q 534 314 525 195 l 198 314 l 198 422 m 198 989 q 217 940 205 958 q 246 913 230 922 q 285 902 263 904 q 330 900 306 900 q 375 902 353 900 q 413 915 396 905 q 442 941 430 925 q 462 987 455 958 l 562 958 q 482 843 546 876 q 327 810 417 810 q 244 816 284 810 q 171 840 203 823 q 115 884 138 857 q 84 952 92 911 l 198 989 "},"х":{"x_min":41.671875,"x_max":780.625,"ha":822,"o":"m 323 373 l 61 729 l 223 729 l 365 542 l 413 444 l 470 542 l 618 729 l 762 729 l 497 379 q 638 190 566 286 q 780 0 711 94 l 622 0 l 462 206 l 406 311 l 350 206 l 188 0 l 41 0 l 323 373 "},"":{"x_min":123.625,"x_max":808.390625,"ha":890,"o":"m 776 747 q 764 675 776 711 q 728 608 752 640 q 666 554 704 577 q 577 519 629 530 l 577 513 q 663 491 622 508 q 737 445 705 474 q 788 374 769 416 q 808 276 808 333 q 773 146 808 201 q 682 55 738 91 q 553 3 625 20 q 409 -13 481 -13 q 348 -12 384 -13 q 272 -9 312 -11 q 193 -3 233 -7 q 123 6 154 0 l 123 964 q 256 979 180 973 q 420 985 333 985 q 543 974 480 985 q 658 937 607 964 q 743 865 709 911 q 776 747 776 819 m 259 113 q 288 109 269 110 q 331 106 308 108 q 377 104 354 105 q 419 104 400 104 q 510 113 466 104 q 587 144 554 123 q 641 197 620 165 q 661 273 661 229 q 636 361 661 329 q 573 411 612 394 q 486 434 534 429 q 390 439 437 439 l 259 439 l 259 113 m 336 547 q 397 549 362 547 q 455 553 431 551 q 521 578 490 563 q 576 613 552 592 q 613 660 600 633 q 627 722 627 687 q 609 797 627 769 q 559 841 590 826 q 490 862 529 856 q 411 868 451 868 q 321 865 362 868 q 259 861 280 863 l 259 547 l 336 547 m 467 1209 l 651 1209 l 651 1177 l 403 1045 l 291 1045 l 467 1209 "},"Ч":{"x_min":105.5625,"x_max":797.28125,"ha":921,"o":"m 244 972 l 244 664 q 288 520 244 571 q 429 470 333 470 q 560 486 500 470 q 658 531 620 503 l 658 972 l 797 972 l 797 0 l 658 0 l 658 413 q 550 371 618 391 q 395 351 483 351 q 277 366 330 351 q 185 416 223 381 q 126 504 147 451 q 105 635 105 558 l 105 972 l 244 972 "},"":{"x_min":80.5625,"x_max":811.171875,"ha":867,"o":"m 811 41 q 716 0 772 13 q 594 -17 659 -14 l 573 -247 l 486 -247 l 456 -11 q 309 37 377 1 q 190 135 241 73 q 109 283 138 196 q 80 485 80 370 q 122 717 80 621 q 230 874 163 813 q 380 962 297 934 q 545 990 463 990 q 695 980 637 990 q 794 955 754 970 l 763 839 q 556 871 695 871 q 435 850 494 871 q 329 783 376 829 q 255 664 283 737 q 227 485 227 591 q 254 319 227 391 q 327 199 280 248 q 436 126 373 150 q 575 102 500 102 q 693 114 643 102 q 777 147 743 127 l 811 41 "},"":{"x_min":123.625,"x_max":1277.875,"ha":1358,"o":"m 262 557 l 443 557 q 565 877 458 765 q 862 990 672 990 q 1051 953 972 990 q 1180 851 1130 917 q 1254 691 1230 784 q 1277 486 1277 598 q 1173 113 1277 245 q 862 -18 1068 -18 q 683 14 759 -18 q 554 106 607 47 q 475 248 502 165 q 441 435 447 332 l 262 435 l 262 0 l 123 0 l 123 972 l 262 972 l 262 557 m 590 486 q 604 337 590 408 q 651 214 619 267 q 735 131 683 162 q 862 101 787 101 q 1063 194 997 101 q 1130 486 1130 287 q 1117 632 1130 562 q 1073 755 1104 702 q 990 839 1041 808 q 862 871 938 871 q 659 776 727 871 q 590 486 590 681 m 440 1161 l 926 1161 l 926 1067 l 440 1067 l 440 1161 "},"ü":{"x_min":122.234375,"x_max":772.28125,"ha":895,"o":"m 250 729 l 250 327 q 256 225 250 269 q 281 150 263 180 q 331 104 300 120 q 411 89 362 89 q 547 136 494 89 q 627 252 600 183 l 627 729 l 755 729 l 755 206 q 759 99 755 154 q 772 0 763 44 l 686 0 l 652 121 l 638 121 q 538 19 602 58 q 379 -19 475 -19 q 267 -3 315 -19 q 186 48 219 11 q 138 146 154 85 q 122 298 122 207 l 122 729 l 250 729 m 200 907 q 222 962 200 940 q 280 985 244 985 q 337 962 315 985 q 358 907 358 940 q 337 853 358 875 q 280 831 315 831 q 222 853 244 831 q 200 907 200 875 m 498 907 q 520 962 498 940 q 578 985 542 985 q 635 962 614 985 q 657 907 657 940 q 635 853 657 875 q 578 831 614 831 q 520 853 542 831 q 498 907 498 875 "},"ь":{"x_min":122.234375,"x_max":701.4375,"ha":743,"o":"m 250 108 q 368 100 308 100 q 517 135 469 100 q 565 233 565 170 q 518 326 565 288 q 372 364 472 364 q 313 361 345 364 q 250 352 281 359 l 250 108 m 250 449 q 331 458 294 456 q 398 461 369 461 q 539 444 481 461 q 633 398 597 427 q 685 329 669 369 q 701 244 701 290 q 613 52 701 112 q 340 -8 526 -8 q 229 -6 281 -8 q 122 -1 176 -5 l 122 729 l 250 729 l 250 449 "},"Җ":{"x_min":-2.78125,"x_max":1237.59375,"ha":1246,"o":"m 544 972 l 675 972 l 675 525 l 738 544 l 1034 972 l 1188 972 l 888 550 l 826 504 l 904 447 l 1144 122 l 1237 122 l 1237 -178 l 1141 -178 l 1119 0 l 1068 0 l 743 445 l 675 445 l 675 0 l 544 0 l 544 461 l 480 442 l 156 0 l -2 0 l 325 433 l 398 486 l 327 536 l 18 972 l 179 972 l 476 542 l 544 542 l 544 972 "},"Ҍ":{"x_min":0,"x_max":900.078125,"ha":947,"o":"m 0 871 l 225 871 l 225 1000 l 363 1000 l 363 871 l 676 871 l 676 757 l 363 757 l 363 598 q 389 601 372 599 q 428 606 406 604 q 472 609 450 608 q 512 611 494 611 q 654 597 584 611 q 778 549 723 583 q 866 459 833 516 q 900 316 900 402 q 867 170 900 232 q 778 67 834 107 q 645 7 722 27 q 480 -13 569 -13 q 428 -12 459 -13 q 361 -8 397 -11 q 291 -1 326 -6 q 225 9 255 2 l 225 757 l 0 757 l 0 871 m 497 106 q 595 117 548 106 q 676 154 641 129 q 732 217 711 179 q 752 306 752 255 q 730 398 752 362 q 671 455 708 434 q 588 484 634 476 q 491 492 541 492 q 459 490 479 492 q 421 487 440 489 q 386 483 402 486 q 363 479 370 480 l 363 114 q 421 107 383 108 q 497 106 459 106 "},"":{"x_min":123.625,"x_max":711.171875,"ha":785,"o":"m 123 972 l 711 972 l 711 853 l 262 853 l 262 543 l 679 543 l 679 424 l 262 424 l 262 0 l 123 0 l 123 972 m 469 1209 l 653 1209 l 653 1177 l 405 1045 l 293 1045 l 469 1209 "},"Ÿ":{"x_min":9.71875,"x_max":847.296875,"ha":857,"o":"m 362 380 l 9 972 l 172 972 l 415 559 l 438 470 l 441 470 l 468 562 l 700 972 l 847 972 l 501 381 l 501 0 l 362 0 l 362 380 m 197 1104 q 220 1153 197 1135 q 283 1172 243 1172 q 345 1153 322 1172 q 369 1104 369 1135 q 345 1054 369 1073 q 283 1036 322 1036 q 220 1054 243 1036 q 197 1104 197 1073 m 494 1104 q 517 1153 494 1135 q 579 1172 540 1172 q 643 1153 619 1172 q 666 1104 666 1135 q 643 1054 666 1073 q 579 1036 619 1036 q 517 1054 540 1036 q 494 1104 494 1073 "},"€":{"x_min":9.71875,"x_max":807.015625,"ha":825,"o":"m 38 641 l 134 641 q 193 798 152 732 q 288 907 233 864 q 413 969 344 949 q 558 990 481 990 q 694 978 637 990 q 793 952 751 967 l 755 841 q 674 864 720 856 q 561 873 627 873 q 465 860 511 873 q 381 819 419 848 q 315 747 344 791 q 272 641 287 703 l 695 641 l 668 538 l 258 538 q 256 511 256 524 q 256 484 256 497 q 256 459 256 471 q 258 437 256 448 l 637 437 l 609 333 l 270 333 q 581 99 329 99 q 691 112 643 99 q 775 146 738 126 l 807 43 q 691 -4 761 8 q 555 -18 622 -18 q 275 67 386 -18 q 133 333 165 152 l 9 333 l 38 437 l 122 437 q 120 460 120 448 q 120 485 120 472 q 120 512 120 499 q 122 539 120 525 l 9 539 l 38 641 "},"ҽ":{"x_min":1.359375,"x_max":898.6875,"ha":988,"o":"m 872 59 q 751 2 823 23 q 594 -19 679 -19 q 438 6 504 -19 q 328 80 372 32 q 263 195 284 127 q 240 347 241 262 l 236 347 q 63 392 127 347 q 1 541 0 438 q 20 610 4 581 q 56 661 37 640 l 161 661 q 127 611 141 640 q 113 545 113 581 q 119 504 113 523 q 139 470 125 484 q 179 449 154 457 q 244 441 205 441 q 353 671 263 593 q 595 750 443 750 q 704 738 650 750 q 801 693 758 726 q 871 604 844 661 q 898 455 898 547 q 897 403 898 433 q 891 347 895 374 l 370 347 q 431 154 373 219 q 630 89 490 89 q 741 109 688 89 q 823 157 794 129 l 872 59 m 776 439 q 731 596 779 550 q 597 642 683 642 q 443 596 500 642 q 376 439 386 550 l 776 439 "},"в":{"x_min":122.234375,"x_max":725.0625,"ha":808,"o":"m 122 729 l 175 732 q 272 738 219 735 q 394 742 325 742 q 625 696 555 742 q 695 562 695 651 q 661 464 695 514 q 554 393 627 415 l 554 377 q 685 316 645 359 q 725 202 725 273 q 634 41 725 93 q 362 -11 544 -11 q 247 -7 301 -11 q 141 0 193 -4 q 131 0 136 0 q 122 1 127 1 l 122 729 m 250 100 q 309 94 280 96 q 381 92 338 92 q 540 120 491 92 q 588 213 588 148 q 579 262 588 240 q 547 299 569 284 q 486 324 525 315 q 393 333 448 333 l 250 333 l 250 100 m 408 421 q 466 429 438 421 q 516 452 494 437 q 552 488 538 468 q 565 531 565 508 q 525 613 565 590 q 390 636 486 636 q 325 633 358 636 q 250 630 293 631 l 250 421 l 408 421 "},"С":{"x_min":80.5625,"x_max":811.171875,"ha":867,"o":"m 811 42 q 694 -4 765 8 q 544 -18 623 -18 q 367 11 451 -18 q 219 103 283 41 q 118 260 155 165 q 80 486 80 355 q 122 717 80 622 q 230 874 163 813 q 380 962 297 934 q 545 990 463 990 q 695 980 637 990 q 794 955 754 970 l 763 836 q 556 868 695 868 q 435 847 494 868 q 329 782 376 827 q 255 664 283 737 q 227 486 227 591 q 254 320 227 391 q 327 200 280 248 q 436 128 373 152 q 575 104 500 104 q 693 116 643 104 q 777 149 743 129 l 811 42 "},"ß":{"x_min":33.34375,"x_max":873.6875,"ha":940,"o":"m 158 762 q 234 929 158 869 q 444 989 311 989 q 579 972 523 989 q 671 927 636 955 q 722 863 707 900 q 738 786 738 826 q 725 712 738 743 q 690 657 711 680 q 645 617 669 634 q 600 583 620 600 q 565 548 579 566 q 551 507 551 530 q 575 459 551 476 q 634 429 598 441 q 712 404 670 416 q 790 369 754 391 q 850 310 826 347 q 873 214 873 273 q 854 129 873 171 q 800 54 836 87 q 710 1 763 21 q 587 -19 657 -19 q 522 -16 551 -19 q 471 -7 494 -13 q 427 7 448 -1 q 386 28 406 15 l 422 129 q 458 111 440 119 q 495 99 476 104 q 538 91 515 94 q 593 89 562 89 q 646 96 619 89 q 695 118 673 104 q 729 153 716 133 q 743 198 743 173 q 719 264 743 240 q 659 302 695 287 q 581 328 623 317 q 504 358 540 339 q 444 409 468 378 q 420 496 420 440 q 434 566 420 537 q 469 616 448 594 q 515 656 490 639 q 561 691 540 673 q 595 729 581 708 q 609 780 609 750 q 602 818 609 799 q 575 850 594 836 q 525 872 556 864 q 448 881 494 881 q 323 846 359 881 q 287 725 287 812 l 287 0 l 158 0 l 158 618 l 33 618 l 33 729 l 158 729 l 158 762 "},"њ":{"x_min":122.234375,"x_max":1230.65625,"ha":1272,"o":"m 759 109 q 832 102 798 104 q 893 100 865 100 q 1050 135 1007 100 q 1094 243 1094 170 q 1084 297 1094 273 q 1052 339 1075 322 q 991 365 1029 356 q 898 375 954 375 q 835 372 870 375 q 759 361 800 369 l 759 109 m 759 466 q 854 479 811 476 q 927 483 898 483 q 1071 464 1013 483 q 1164 415 1129 446 q 1215 342 1200 384 q 1230 254 1230 301 q 1145 54 1230 116 q 863 -8 1059 -8 q 747 -3 805 -8 q 632 4 688 0 l 632 319 l 250 319 l 250 0 l 122 0 l 122 729 l 250 729 l 250 433 l 632 433 l 632 729 l 759 729 l 759 466 "},"₿":{"x_min":44.453125,"x_max":788.953125,"ha":825,"o":"m 44 478 l 154 478 l 154 962 q 278 980 212 975 q 411 985 344 985 q 551 971 483 985 q 672 925 619 958 q 757 834 725 891 q 788 687 788 776 q 755 543 788 601 q 668 449 722 485 q 545 396 613 412 q 405 381 476 381 l 287 381 l 287 279 l 540 279 l 540 182 l 287 182 l 287 0 l 154 0 l 154 182 l 44 182 l 44 279 l 154 279 l 154 381 l 44 381 l 44 478 m 416 871 q 343 868 379 871 q 287 862 308 865 l 287 478 l 398 478 q 487 487 443 478 q 567 519 531 496 q 625 583 602 543 q 647 684 647 623 q 629 774 647 739 q 579 831 611 809 q 506 861 548 852 q 416 871 463 871 "},"Ӓ":{"x_min":11.109375,"x_max":884.796875,"ha":896,"o":"m 634 254 l 250 254 l 147 0 l 11 0 l 411 986 l 483 986 l 884 0 l 740 0 l 634 254 m 291 371 l 594 371 l 481 647 l 444 795 l 441 795 l 404 644 l 291 371 m 212 1104 q 235 1153 212 1135 q 298 1172 258 1172 q 360 1153 337 1172 q 384 1104 384 1135 q 360 1054 384 1073 q 298 1036 337 1036 q 235 1054 258 1036 q 212 1104 212 1073 m 509 1104 q 532 1153 509 1135 q 594 1172 555 1172 q 658 1153 634 1172 q 681 1104 681 1135 q 658 1054 681 1073 q 594 1036 634 1036 q 532 1054 555 1036 q 509 1104 509 1073 "},"ǵ":{"x_min":83.34375,"x_max":745.890625,"ha":871,"o":"m 745 -4 q 661 -217 745 -147 q 415 -288 577 -288 q 262 -276 320 -288 q 162 -246 204 -265 l 193 -131 q 234 -148 211 -139 q 284 -164 258 -157 q 338 -175 311 -171 q 390 -180 365 -180 q 502 -168 458 -180 q 573 -131 547 -156 q 609 -67 600 -106 q 619 26 619 -28 l 619 77 l 604 77 q 526 19 581 41 q 391 -3 470 -3 q 158 82 233 -3 q 83 358 83 167 q 180 647 83 546 q 469 749 277 749 q 627 737 561 749 q 745 708 693 726 l 745 -4 m 419 105 q 552 148 504 105 q 618 260 600 191 l 618 620 q 544 635 586 629 q 450 641 502 641 q 280 572 341 641 q 219 361 219 503 q 264 171 219 238 q 419 105 309 105 m 471 1000 l 615 1000 l 615 968 l 460 792 l 382 792 l 471 1000 "},"Ű":{"x_min":123.625,"x_max":862.5625,"ha":986,"o":"m 732 972 l 862 972 l 862 337 q 836 181 862 246 q 763 72 811 116 q 652 7 716 28 q 508 -13 587 -13 q 222 68 320 -13 q 123 309 123 149 l 123 972 l 262 972 l 262 361 q 324 164 262 220 q 506 109 386 109 q 677 170 623 109 q 732 366 732 231 l 732 972 m 411 1180 l 561 1180 l 561 1157 l 409 1029 l 315 1029 l 411 1180 m 665 1180 l 825 1180 l 825 1157 l 607 1029 l 511 1029 l 665 1180 "},"Ԥ":{"x_min":123.625,"x_max":1011.1875,"ha":1051,"o":"m 736 850 l 262 850 l 262 0 l 123 0 l 123 972 l 875 972 l 875 122 l 1011 122 l 1011 -178 l 915 -178 l 893 0 l 736 0 l 736 850 "},"c":{"x_min":83.34375,"x_max":672.28125,"ha":735,"o":"m 672 50 q 558 -1 623 15 q 420 -19 493 -19 q 264 8 329 -19 q 159 86 200 36 q 101 207 119 136 q 83 364 83 278 q 172 649 83 548 q 430 750 262 750 q 558 736 504 750 q 655 704 612 723 l 622 600 q 541 630 584 619 q 445 642 497 642 q 219 364 219 642 q 231 261 219 311 q 272 174 244 212 q 345 112 300 136 q 455 89 390 89 q 557 105 513 89 q 630 144 601 121 l 672 50 "},"¶":{"x_min":55.5625,"x_max":633.390625,"ha":758,"o":"m 522 972 l 633 972 l 633 -181 l 522 -181 l 522 972 m 280 426 q 190 449 231 426 q 119 512 150 473 q 72 600 88 551 q 55 699 55 649 q 73 799 55 749 q 125 886 91 848 q 208 948 159 924 q 318 972 256 972 l 391 972 l 391 -181 l 280 -181 l 280 426 "},"":{"x_min":11.109375,"x_max":726.453125,"ha":738,"o":"m 348 268 l 391 127 l 409 127 l 444 269 l 595 729 l 726 729 l 487 69 q 434 -62 461 1 q 374 -175 406 -126 q 302 -255 341 -225 q 211 -285 262 -285 q 116 -272 155 -285 l 137 -164 q 179 -171 158 -171 q 229 -164 206 -171 q 272 -138 252 -157 q 307 -88 291 -120 q 337 -4 323 -55 l 11 729 l 162 729 l 348 268 m 405 1000 l 549 1000 l 549 968 l 394 792 l 316 792 l 405 1000 "},"­":{"x_min":88.890625,"x_max":458.375,"ha":547,"o":"m 88 461 l 458 461 l 458 342 l 88 342 l 88 461 "},":":{"x_min":137.515625,"x_max":323.640625,"ha":379,"o":"m 137 618 q 163 682 137 658 q 230 706 188 706 q 297 682 272 706 q 323 618 323 658 q 297 556 323 581 q 230 531 272 531 q 163 556 188 531 q 137 618 137 581 m 137 70 q 163 134 137 110 q 230 158 188 158 q 297 134 272 158 q 323 70 323 110 q 297 8 323 33 q 230 -17 272 -17 q 163 8 188 -17 q 137 70 137 33 "},"":{"x_min":61.109375,"x_max":241.6875,"ha":301,"o":"m 61 667 q 84 720 61 700 q 143 741 106 741 q 214 714 187 741 q 241 636 241 688 q 226 553 241 588 q 189 495 211 519 q 144 458 168 471 q 104 440 120 445 l 65 496 q 120 536 98 512 q 140 597 141 560 q 82 610 104 590 q 61 667 61 631 "},"":{"x_min":123.625,"x_max":1051.46875,"ha":1175,"o":"m 912 972 l 1051 972 l 1051 0 l 912 0 l 912 972 m 123 972 l 262 972 l 262 600 q 284 604 270 602 q 316 607 298 606 q 352 610 333 609 q 388 612 370 612 q 529 598 461 612 q 650 550 597 584 q 734 459 702 516 q 765 316 765 402 q 735 170 765 232 q 652 67 705 107 q 526 7 600 27 q 363 -13 452 -13 q 313 -12 343 -13 q 252 -8 284 -11 q 186 -1 219 -6 q 123 9 152 2 l 123 972 m 375 106 q 470 118 426 106 q 547 156 515 131 q 599 218 580 181 q 618 306 618 256 q 597 398 618 362 q 542 455 576 434 q 463 484 508 476 q 368 493 418 493 q 309 488 341 493 q 262 480 277 484 l 262 114 q 310 107 281 108 q 375 106 338 106 m 459 1210 q 501 1134 466 1160 q 595 1109 537 1109 q 689 1134 653 1109 q 731 1208 724 1160 l 848 1183 q 769 1064 830 1107 q 594 1021 708 1021 q 414 1058 484 1021 q 330 1180 344 1096 l 459 1210 "},"":{"x_min":83.34375,"x_max":593.109375,"ha":676,"o":"m 179 1180 l 329 1180 l 329 1157 l 177 1029 l 83 1029 l 179 1180 m 433 1180 l 593 1180 l 593 1157 l 375 1029 l 279 1029 l 433 1180 "},"":{"x_min":0,"x_max":743.109375,"ha":743,"o":"m 336 309 l 384 160 l 430 312 l 604 729 l 743 729 l 402 -15 l 347 -15 l 0 729 l 150 729 l 336 309 m 394 1000 l 538 1000 l 538 968 l 383 792 l 305 792 l 394 1000 "},"ś":{"x_min":75,"x_max":618.109375,"ha":693,"o":"m 490 204 q 477 250 490 232 q 441 282 463 269 q 390 305 419 296 q 329 325 361 315 q 247 349 288 336 q 174 385 206 362 q 120 444 141 408 q 100 536 100 480 q 164 697 100 644 q 345 750 229 750 q 493 733 433 750 q 597 697 552 716 l 566 589 q 477 624 529 607 q 362 642 425 642 q 261 619 294 642 q 227 539 227 597 q 240 499 227 515 q 273 471 252 483 q 322 450 294 459 q 380 433 350 441 q 463 407 422 422 q 540 368 505 393 q 596 307 575 344 q 618 212 618 269 q 548 45 618 110 q 340 -19 479 -19 q 185 0 251 -19 q 75 40 119 17 l 111 152 q 211 110 150 131 q 334 89 272 89 q 446 113 402 89 q 490 204 490 137 m 368 1000 l 512 1000 l 512 968 l 357 792 l 279 792 l 368 1000 "},"ӄ":{"x_min":122.234375,"x_max":713.953125,"ha":776,"o":"m 581 46 q 565 172 581 123 q 516 248 548 220 q 437 287 484 276 q 327 300 390 298 l 250 300 l 250 0 l 122 0 l 122 729 l 250 729 l 250 381 l 326 408 l 573 729 l 713 729 l 476 433 l 404 381 q 447 377 431 378 q 470 374 462 376 q 482 373 479 373 q 488 373 486 373 q 597 324 554 356 q 665 252 640 292 q 700 165 690 212 q 709 76 709 119 l 709 49 q 688 -103 709 -39 q 631 -208 668 -167 q 543 -268 594 -249 q 433 -288 493 -288 q 373 -283 411 -288 l 373 -180 q 527 -129 472 -186 q 581 46 581 -71 "}," ":{"x_min":0,"x_max":0,"ha":404},"У":{"x_min":6.9375,"x_max":845.90625,"ha":845,"o":"m 431 472 l 469 348 l 477 348 l 506 476 l 704 972 l 845 972 l 573 330 q 502 173 533 237 q 439 68 472 108 q 369 10 406 28 q 277 -8 331 -8 q 197 0 227 -8 q 140 23 168 7 l 180 137 q 235 117 209 120 q 283 114 261 114 q 352 149 323 114 q 402 255 380 184 l 6 972 l 166 972 l 431 472 "},"ү":{"x_min":11.109375,"x_max":754.234375,"ha":765,"o":"m 11 729 l 159 729 l 348 262 l 391 88 l 402 88 l 445 263 l 615 729 l 754 729 l 454 -2 l 454 -279 l 326 -279 l 326 -3 l 11 729 "},"¾":{"x_min":85.015625,"x_max":1251.984375,"ha":1336,"o":"m 1006 992 l 1089 932 l 362 -18 l 278 44 l 1006 992 m 1251 128 l 1126 128 l 1126 0 l 1018 0 l 1018 128 l 707 128 l 707 190 l 1050 606 l 1126 606 l 1126 221 l 1251 221 l 1251 128 m 1018 387 l 1028 454 l 1024 454 l 990 392 l 879 257 l 828 212 l 906 221 l 1018 221 l 1018 387 m 241 475 q 390 570 390 475 q 356 638 390 612 q 243 664 322 664 l 164 664 l 164 700 l 304 848 l 357 884 l 280 876 l 87 876 l 87 972 l 483 972 l 483 916 l 330 757 l 290 732 l 290 727 l 326 732 q 458 686 411 730 q 505 568 505 643 q 436 429 505 479 q 254 379 366 379 q 157 388 198 379 q 85 408 116 397 l 110 503 q 169 483 136 491 q 241 475 201 475 "},"":{"x_min":80.5625,"x_max":957.015625,"ha":1038,"o":"m 80 486 q 110 699 80 605 q 196 857 140 792 q 334 955 252 921 q 518 990 415 990 q 710 953 627 990 q 847 850 793 916 q 929 691 902 784 q 957 486 957 598 q 927 272 957 366 q 840 114 897 179 q 702 16 783 50 q 518 -18 620 -18 q 325 18 406 -18 q 188 121 243 55 q 107 280 134 187 q 80 486 80 373 m 227 433 q 253 302 233 363 q 309 196 273 241 q 397 126 345 152 q 518 101 448 101 q 720 181 643 101 q 809 433 798 262 l 227 433 m 809 550 q 782 675 802 616 q 725 777 761 733 q 637 845 688 820 q 518 871 586 871 q 318 792 395 871 q 229 550 241 713 l 809 550 m 388 1210 q 430 1134 395 1160 q 524 1109 466 1109 q 618 1134 582 1109 q 660 1208 653 1160 l 777 1183 q 698 1064 759 1107 q 523 1021 637 1021 q 343 1058 413 1021 q 259 1180 273 1096 l 388 1210 "},"⃁":{"x_min":44.453125,"x_max":788.953125,"ha":825,"o":"m 44 478 l 154 478 l 154 962 q 278 980 212 975 q 411 985 344 985 q 551 971 483 985 q 672 925 619 958 q 757 834 725 891 q 788 687 788 776 q 755 543 788 601 q 668 449 722 485 q 545 396 613 412 q 405 381 476 381 l 287 381 l 287 279 l 540 279 l 540 182 l 287 182 l 287 0 l 154 0 l 154 182 l 44 182 l 44 279 l 154 279 l 154 381 l 44 381 l 44 478 m 416 871 q 343 868 379 871 q 287 862 308 865 l 287 478 l 398 478 q 487 487 443 478 q 567 519 531 496 q 625 583 602 543 q 647 684 647 623 q 629 774 647 739 q 579 831 611 809 q 506 861 548 852 q 416 871 463 871 "},"Ģ":{"x_min":80.5625,"x_max":847.296875,"ha":928,"o":"m 483 490 l 847 490 l 847 61 q 787 27 822 41 q 713 2 752 12 q 632 -12 673 -6 q 550 -18 590 -18 q 364 11 450 -18 q 215 104 279 41 q 116 261 152 166 q 80 486 80 356 q 124 716 80 620 q 237 873 168 812 q 392 962 306 934 q 562 990 477 990 q 714 979 654 990 q 815 954 775 969 l 782 836 q 573 868 709 868 q 449 848 511 868 q 338 783 387 829 q 258 665 288 738 q 227 486 227 592 q 253 315 227 387 q 325 195 279 242 q 433 126 370 148 q 569 104 495 104 q 657 113 615 104 q 732 138 700 122 l 732 384 l 483 409 l 483 490 m 439 -141 q 464 -91 439 -110 q 520 -72 488 -72 q 590 -98 560 -72 q 620 -180 620 -124 q 606 -247 620 -218 q 573 -297 592 -276 q 532 -330 553 -318 q 494 -349 510 -343 l 453 -293 q 498 -260 480 -282 q 517 -207 517 -239 q 462 -194 485 -213 q 439 -141 439 -174 "},"":{"x_min":83.34375,"x_max":412.53125,"ha":496,"o":"m 83 1067 q 120 1152 83 1118 q 247 1187 158 1187 q 370 1156 327 1187 q 412 1067 412 1125 q 372 984 412 1017 q 247 951 331 951 q 123 982 163 951 q 83 1067 83 1014 m 180 1067 q 195 1031 180 1046 q 247 1016 211 1016 q 315 1067 315 1016 q 298 1107 315 1092 q 247 1122 281 1122 q 196 1107 212 1122 q 180 1067 180 1092 "},"m":{"x_min":122.234375,"x_max":1194.546875,"ha":1317,"o":"m 594 0 l 594 399 q 588 502 594 458 q 566 576 583 547 q 520 621 550 606 q 443 636 490 636 q 320 595 369 636 q 250 490 270 554 l 250 0 l 122 0 l 122 729 l 209 729 l 234 631 l 248 631 q 350 715 293 681 q 497 750 408 750 q 622 718 572 750 q 700 611 673 686 q 805 712 741 675 q 948 750 869 750 q 1061 734 1015 750 q 1137 681 1108 719 q 1180 580 1166 644 q 1194 419 1194 516 l 1194 0 l 1066 0 l 1066 419 q 1060 515 1066 474 q 1037 582 1054 555 q 991 622 1020 609 q 912 636 961 636 q 787 594 833 636 q 722 469 741 552 l 722 0 l 594 0 "},"Ҏ":{"x_min":123.625,"x_max":798.671875,"ha":853,"o":"m 123 962 q 250 980 181 975 q 386 985 319 985 q 529 972 456 985 q 662 926 602 959 q 760 834 722 893 q 798 682 798 775 q 751 510 798 577 q 629 407 704 443 l 730 265 l 654 211 l 538 375 q 463 361 502 365 q 386 357 425 357 q 360 357 377 357 q 324 359 343 358 q 288 361 305 359 q 262 363 270 362 l 262 0 l 123 0 l 123 962 m 447 654 l 548 506 q 622 568 593 527 q 651 680 651 609 q 627 772 651 736 q 566 829 604 808 q 482 858 529 850 q 390 866 436 866 q 317 864 352 866 q 262 857 281 863 l 262 482 q 285 479 269 480 q 318 477 301 478 q 352 476 336 476 q 376 476 368 476 q 423 477 400 476 q 470 482 447 478 l 380 608 l 447 654 "},"Е":{"x_min":123.625,"x_max":718.109375,"ha":813,"o":"m 123 972 l 711 972 l 711 853 l 262 853 l 262 557 l 672 557 l 672 438 l 262 438 l 262 119 l 718 119 l 718 0 l 123 0 l 123 972 "},"":{"x_min":123.625,"x_max":718.109375,"ha":813,"o":"m 123 972 l 711 972 l 711 853 l 262 853 l 262 557 l 672 557 l 672 438 l 262 438 l 262 119 l 718 119 l 718 0 l 123 0 l 123 972 m 175 1104 q 198 1153 175 1135 q 261 1172 221 1172 q 323 1153 300 1172 q 347 1104 347 1135 q 323 1054 347 1073 q 261 1036 300 1036 q 198 1054 221 1036 q 175 1104 175 1073 m 472 1104 q 495 1153 472 1135 q 557 1172 518 1172 q 621 1153 597 1172 q 644 1104 644 1135 q 621 1054 644 1073 q 557 1036 597 1036 q 495 1054 518 1036 q 472 1104 472 1073 m 164 1300 l 650 1300 l 650 1206 l 164 1206 l 164 1300 "},"ž":{"x_min":66.671875,"x_max":640.328125,"ha":715,"o":"m 66 109 l 426 548 l 523 621 l 66 621 l 66 729 l 640 729 l 640 619 l 276 176 l 179 108 l 640 108 l 640 0 l 66 0 l 66 109 m 381 814 l 313 814 l 133 1074 l 254 1074 l 315 979 l 354 880 l 394 978 l 463 1074 l 571 1074 l 381 814 "},"á":{"x_min":62.5,"x_max":691.71875,"ha":808,"o":"m 113 683 q 423 743 238 743 q 557 721 506 743 q 636 666 608 699 q 672 592 663 633 q 682 511 682 551 q 676 357 682 434 q 670 190 670 280 q 675 87 670 137 q 691 -3 680 38 l 598 -3 l 563 108 l 550 108 q 512 66 534 87 q 459 27 490 44 q 389 0 429 11 q 298 -11 350 -11 q 204 3 247 -11 q 129 44 161 18 q 80 109 98 70 q 62 194 62 147 q 89 303 62 257 q 159 378 116 348 q 257 421 202 407 q 366 435 312 435 q 439 433 409 435 q 489 430 469 432 q 523 425 509 428 q 548 422 537 423 q 552 458 551 443 q 554 497 554 473 q 545 562 554 536 q 518 605 537 589 q 468 628 500 621 q 390 635 436 635 q 331 630 363 635 q 268 618 300 626 q 204 599 236 611 q 148 576 173 588 l 113 683 m 548 330 q 525 334 537 331 q 493 338 512 337 q 449 341 475 340 q 386 343 423 343 q 249 312 300 343 q 198 208 198 281 q 238 124 198 152 q 340 97 277 97 q 421 108 386 97 q 482 138 456 120 q 524 176 508 155 q 548 219 540 198 l 548 330 m 371 1000 l 515 1000 l 515 968 l 360 792 l 282 792 l 371 1000 "},"×":{"x_min":111.125,"x_max":659.78125,"ha":770,"o":"m 194 731 l 386 550 l 579 731 l 659 643 l 470 471 l 659 296 l 579 210 l 386 390 l 193 209 l 111 293 l 301 471 l 113 643 l 194 731 "},"Ӱ":{"x_min":6.9375,"x_max":845.90625,"ha":845,"o":"m 431 472 l 469 348 l 477 348 l 506 476 l 704 972 l 845 972 l 573 330 q 502 173 533 237 q 439 68 472 108 q 369 10 406 28 q 277 -8 331 -8 q 197 0 227 -8 q 140 23 168 7 l 180 137 q 235 117 209 120 q 283 114 261 114 q 352 149 323 114 q 402 255 380 184 l 6 972 l 166 972 l 431 472 m 215 1104 q 238 1153 215 1135 q 301 1172 261 1172 q 363 1153 340 1172 q 387 1104 387 1135 q 363 1054 387 1073 q 301 1036 340 1036 q 238 1054 261 1036 q 215 1104 215 1073 m 512 1104 q 535 1153 512 1135 q 597 1172 558 1172 q 661 1153 637 1172 q 684 1104 684 1135 q 661 1054 684 1073 q 597 1036 637 1036 q 535 1054 558 1036 q 512 1104 512 1073 "},"ӆ":{"x_min":-8.328125,"x_max":811.171875,"ha":828,"o":"m 561 621 l 325 621 l 322 579 q 299 332 312 441 q 261 147 286 223 q 194 32 236 72 q 86 -7 152 -7 q 31 -3 55 -7 q -8 6 8 0 l 11 123 q 51 118 29 118 q 111 142 84 118 q 156 233 137 166 q 188 419 176 299 q 206 729 201 538 l 688 729 l 688 108 l 811 108 l 811 74 l 672 -183 l 580 -183 l 650 0 l 561 0 l 561 621 "},"п":{"x_min":122.234375,"x_max":736.171875,"ha":858,"o":"m 608 621 l 250 621 l 250 0 l 122 0 l 122 729 l 736 729 l 736 0 l 608 0 l 608 621 "},"K":{"x_min":123.625,"x_max":882.015625,"ha":929,"o":"m 330 442 l 262 442 l 262 0 l 123 0 l 123 972 l 262 972 l 262 525 l 326 545 l 676 972 l 834 972 l 484 555 l 419 508 l 495 453 l 882 0 l 707 0 l 330 442 "},"7":{"x_min":86.125,"x_max":730.609375,"ha":825,"o":"m 159 0 l 534 795 l 601 863 l 511 850 l 86 850 l 86 972 l 730 972 l 730 931 l 293 0 l 159 0 "},"¨":{"x_min":83.34375,"x_max":540.328125,"ha":624,"o":"m 83 907 q 105 962 83 940 q 163 985 127 985 q 220 962 198 985 q 241 907 241 940 q 220 853 241 875 q 163 831 198 831 q 105 853 127 831 q 83 907 83 875 m 381 907 q 403 962 381 940 q 461 985 425 985 q 518 962 497 985 q 540 907 540 940 q 518 853 540 875 q 461 831 497 831 q 403 853 425 831 q 381 907 381 875 "},"Y":{"x_min":9.71875,"x_max":847.296875,"ha":857,"o":"m 362 380 l 9 972 l 172 972 l 415 559 l 438 470 l 441 470 l 468 562 l 700 972 l 847 972 l 501 381 l 501 0 l 362 0 l 362 380 "},"E":{"x_min":123.625,"x_max":718.109375,"ha":813,"o":"m 123 972 l 711 972 l 711 853 l 262 853 l 262 557 l 672 557 l 672 438 l 262 438 l 262 119 l 718 119 l 718 0 l 123 0 l 123 972 "},"Ô":{"x_min":80.5625,"x_max":957.015625,"ha":1038,"o":"m 80 486 q 110 699 80 605 q 196 857 140 792 q 334 955 252 921 q 518 990 415 990 q 710 953 627 990 q 847 850 793 916 q 929 691 902 784 q 957 486 957 598 q 927 272 957 366 q 840 114 897 179 q 702 16 783 50 q 518 -18 620 -18 q 325 18 406 -18 q 188 121 243 55 q 107 280 134 187 q 80 486 80 373 m 227 486 q 245 337 227 406 q 297 214 262 267 q 388 131 333 162 q 518 101 443 101 q 731 194 652 101 q 809 486 809 287 q 792 633 809 563 q 739 755 775 702 q 649 839 704 808 q 518 871 594 871 q 306 776 384 871 q 227 486 227 681 m 469 1209 l 570 1209 l 763 1069 l 763 1035 l 635 1035 l 545 1100 l 517 1149 l 488 1101 l 391 1035 l 266 1035 l 266 1071 l 469 1209 "},"Є":{"x_min":80.5625,"x_max":808.390625,"ha":885,"o":"m 808 41 q 693 -4 762 8 q 544 -18 623 -18 q 367 11 451 -18 q 219 103 283 41 q 118 260 155 165 q 80 486 80 355 q 122 717 80 622 q 230 874 163 813 q 380 962 297 934 q 545 990 463 990 q 695 980 637 990 q 793 955 752 970 l 761 839 q 556 871 693 871 q 445 854 500 871 q 347 800 391 837 q 271 703 302 762 q 230 561 240 644 l 687 561 l 687 442 l 227 442 q 261 294 233 358 q 336 187 290 230 q 442 122 381 144 q 573 101 502 101 q 691 113 641 101 q 776 146 741 126 l 808 41 "},"Ï":{"x_min":43.34375,"x_max":512.828125,"ha":553,"o":"m 206 880 l 95 880 l 95 972 l 456 972 l 456 880 l 345 880 l 345 92 l 456 92 l 456 0 l 95 0 l 95 92 l 206 92 l 206 880 m 43 1104 q 66 1153 43 1135 q 129 1172 89 1172 q 191 1153 168 1172 q 215 1104 215 1135 q 191 1054 215 1073 q 129 1036 168 1036 q 66 1054 89 1036 q 43 1104 43 1073 m 340 1104 q 363 1153 340 1135 q 425 1172 386 1172 q 489 1153 465 1172 q 512 1104 512 1135 q 489 1054 512 1073 q 425 1036 465 1036 q 363 1054 386 1036 q 340 1104 340 1073 "},"ҕ":{"x_min":122.234375,"x_max":772.28125,"ha":856,"o":"m 250 0 l 122 0 l 122 729 l 587 729 l 587 621 l 250 621 l 250 363 q 340 385 290 374 q 462 397 390 397 q 580 379 525 397 q 679 322 636 362 q 747 218 722 283 q 772 59 772 153 q 688 -220 772 -128 q 422 -313 605 -313 q 357 -310 384 -313 q 316 -306 330 -307 l 316 -198 q 363 -202 330 -199 q 426 -205 397 -205 q 590 -137 538 -205 q 641 43 641 -70 q 582 226 641 166 q 418 286 523 286 q 317 272 362 286 q 250 249 272 258 l 250 0 "},"":{"x_min":61.109375,"x_max":738.953125,"ha":818,"o":"m 206 455 l 206 563 l 230 563 q 263 563 243 563 q 304 564 283 563 q 346 566 326 565 q 379 569 366 567 q 506 617 454 579 q 559 719 559 656 q 543 791 559 763 q 499 837 527 819 q 433 862 470 854 q 354 870 395 870 q 213 857 273 870 q 122 829 154 844 l 84 940 q 127 956 98 948 q 195 972 156 965 q 279 984 233 979 q 375 989 326 989 q 495 977 436 989 q 602 937 555 965 q 677 864 648 909 q 707 748 707 818 q 657 617 707 679 q 508 527 608 554 l 508 521 q 677 447 615 506 q 738 287 738 388 q 711 162 738 217 q 636 71 683 108 q 528 12 588 33 q 401 -15 468 -9 l 380 -247 l 293 -247 l 263 -15 q 144 -1 194 -10 q 61 22 94 8 l 95 145 q 195 116 131 129 q 350 104 258 104 q 436 114 393 104 q 513 146 479 124 q 570 202 548 168 q 591 283 591 236 q 527 406 591 367 q 347 452 462 445 q 315 454 329 453 q 281 455 301 455 l 206 455 "},"җ":{"x_min":8.328125,"x_max":1094.53125,"ha":1111,"o":"m 684 328 l 594 328 l 594 0 l 469 0 l 469 344 l 386 322 l 158 0 l 8 0 l 251 329 l 313 377 l 226 437 l 26 729 l 165 729 l 377 414 l 469 414 l 469 729 l 594 729 l 594 398 l 677 420 l 891 729 l 1029 729 l 819 439 l 752 386 l 838 325 l 986 108 l 1094 108 l 1094 -183 l 1004 -183 l 982 0 l 912 0 l 684 328 "},"₼":{"x_min":44.453125,"x_max":788.953125,"ha":825,"o":"m 44 478 l 154 478 l 154 962 q 278 980 212 975 q 411 985 344 985 q 551 971 483 985 q 672 925 619 958 q 757 834 725 891 q 788 687 788 776 q 755 543 788 601 q 668 449 722 485 q 545 396 613 412 q 405 381 476 381 l 287 381 l 287 279 l 540 279 l 540 182 l 287 182 l 287 0 l 154 0 l 154 182 l 44 182 l 44 279 l 154 279 l 154 381 l 44 381 l 44 478 m 416 871 q 343 868 379 871 q 287 862 308 865 l 287 478 l 398 478 q 487 487 443 478 q 567 519 531 496 q 625 583 602 543 q 647 684 647 623 q 629 774 647 739 q 579 831 611 809 q 506 861 548 852 q 416 871 463 871 "},"":{"x_min":83.34375,"x_max":702.828125,"ha":786,"o":"m 702 49 q 586 0 654 17 q 445 -19 518 -19 q 286 8 354 -19 q 172 86 218 36 q 105 207 127 136 q 83 364 83 278 q 110 528 83 455 q 186 649 137 600 q 303 723 234 697 q 454 749 372 749 q 588 737 531 749 q 688 706 645 725 l 654 598 q 569 629 615 617 q 472 641 523 641 q 299 588 363 641 q 219 424 234 536 l 587 424 l 587 316 l 219 316 q 242 226 225 268 q 291 154 259 185 q 370 106 323 123 q 484 89 418 89 q 587 105 540 89 q 666 144 634 122 l 702 49 m 202 881 q 224 936 202 914 q 282 959 246 959 q 339 936 317 959 q 360 881 360 914 q 339 827 360 849 q 282 805 317 805 q 224 827 246 805 q 202 881 202 849 m 500 881 q 522 936 500 914 q 580 959 544 959 q 637 936 616 959 q 659 881 659 914 q 637 827 659 849 q 580 805 616 805 q 522 827 544 805 q 500 881 500 849 "},"й":{"x_min":122.234375,"x_max":754.234375,"ha":876,"o":"m 626 416 l 645 560 l 630 560 l 562 424 l 220 0 l 122 0 l 122 729 l 250 729 l 250 298 l 240 170 l 255 170 l 319 294 l 654 729 l 754 729 l 754 0 l 626 0 l 626 416 m 319 989 q 338 940 326 958 q 367 913 351 922 q 406 902 384 904 q 451 900 427 900 q 496 902 474 900 q 534 915 517 905 q 563 941 551 925 q 583 987 576 958 l 683 958 q 603 843 667 876 q 448 810 538 810 q 365 816 405 810 q 292 840 324 823 q 236 884 259 857 q 205 952 213 911 l 319 989 "},"b":{"x_min":122.234375,"x_max":790.34375,"ha":874,"o":"m 122 972 l 250 972 l 250 639 l 263 639 q 355 721 295 694 q 481 749 415 749 q 711 656 633 749 q 790 377 790 564 q 687 87 790 187 q 398 -13 584 -13 q 232 2 306 -13 q 122 38 158 17 l 122 972 m 463 641 q 385 627 419 641 q 325 588 351 613 q 279 533 298 564 q 250 468 261 501 l 250 121 q 415 95 318 95 q 589 162 525 95 q 654 379 654 230 q 643 482 654 434 q 608 565 632 530 q 549 620 584 600 q 463 641 513 641 "},"":{"x_min":62.5,"x_max":795.890625,"ha":876,"o":"m 223 554 l 647 554 q 545 792 633 715 q 319 871 458 869 q 188 856 245 872 q 98 822 131 841 l 65 933 q 182 974 111 959 q 333 990 254 990 q 514 962 430 990 q 661 874 598 934 q 759 717 723 813 q 795 486 795 622 q 754 252 795 348 q 643 96 712 156 q 485 9 575 36 q 300 -18 395 -18 q 163 -6 223 -18 q 62 20 102 5 l 98 140 q 189 112 133 123 q 309 101 245 101 q 427 118 369 101 q 532 175 486 135 q 610 279 579 215 q 648 435 641 343 l 223 435 l 223 554 m 127 1161 l 613 1161 l 613 1067 l 127 1067 l 127 1161 "},"ﬂ":{"x_min":33.34375,"x_max":923.6875,"ha":935,"o":"m 608 868 q 525 878 570 875 q 443 882 479 882 q 359 872 390 882 q 311 843 327 862 q 291 795 295 823 q 286 729 286 766 l 445 729 l 445 621 l 286 621 l 286 0 l 158 0 l 158 621 l 33 621 l 33 729 l 158 729 l 158 774 q 224 939 158 888 q 443 990 290 990 q 508 987 469 990 q 588 982 547 985 q 668 974 629 978 q 736 965 707 969 l 736 197 q 757 113 736 138 q 813 89 777 89 q 857 91 833 89 q 908 102 880 93 l 923 7 q 850 -12 894 -5 q 772 -19 807 -19 q 652 19 697 -19 q 608 146 608 57 l 608 868 "},"":{"x_min":6.9375,"x_max":845.90625,"ha":845,"o":"m 431 472 l 469 348 l 477 348 l 506 476 l 704 972 l 845 972 l 573 330 q 502 173 533 237 q 439 68 472 108 q 369 10 406 28 q 277 -8 331 -8 q 197 0 227 -8 q 140 23 168 7 l 180 137 q 235 117 209 120 q 283 114 261 114 q 352 149 323 114 q 402 255 380 184 l 6 972 l 166 972 l 431 472 m 483 1209 l 667 1209 l 667 1177 l 419 1045 l 307 1045 l 483 1209 "},"ӏ":{"x_min":127.78125,"x_max":259.75,"ha":388,"o":"m 127 972 l 259 972 l 259 0 l 127 0 l 127 972 "},"":{"x_min":136.125,"x_max":263.90625,"ha":339,"o":"m 136 730 l 263 730 l 215 455 l 136 455 l 136 730 "},"ҋ":{"x_min":122.234375,"x_max":893.125,"ha":910,"o":"m 626 416 l 645 560 l 630 560 l 562 424 l 220 0 l 122 0 l 122 729 l 250 729 l 250 298 l 240 170 l 255 170 l 319 294 l 654 729 l 754 729 l 754 108 l 893 108 l 893 74 l 754 -183 l 662 -183 l 732 0 l 626 0 l 626 416 m 309 989 q 329 940 316 958 q 358 913 341 922 q 396 902 375 904 q 441 900 418 900 q 486 902 465 900 q 525 915 508 905 q 554 941 541 925 q 573 987 566 958 l 673 958 q 593 843 658 876 q 438 810 529 810 q 355 816 395 810 q 282 840 315 823 q 227 884 250 857 q 195 952 204 911 l 309 989 "},"ф":{"x_min":75,"x_max":1036.1875,"ha":1111,"o":"m 493 -3 q 429 -16 459 -14 q 376 -19 400 -19 q 153 76 231 -19 q 75 364 75 171 q 161 644 75 545 q 411 743 247 743 q 450 741 430 743 q 493 734 470 740 l 493 972 l 618 972 l 618 733 q 677 741 654 740 q 719 743 701 743 q 956 656 876 743 q 1036 379 1036 570 q 1014 216 1036 290 q 952 91 993 143 q 850 10 911 39 q 713 -19 790 -19 q 669 -15 698 -19 q 618 -5 640 -12 l 618 -278 l 493 -278 l 493 -3 m 691 640 q 654 638 669 640 q 615 630 638 637 l 615 89 q 656 84 636 85 q 700 84 676 84 q 854 160 802 84 q 905 379 905 236 q 894 487 905 438 q 858 569 883 536 q 792 621 833 603 q 691 640 751 640 m 412 84 q 449 85 430 84 q 495 92 468 86 l 495 630 q 454 637 470 635 q 415 640 437 640 q 260 572 315 640 q 205 364 205 505 q 217 253 205 304 q 254 164 229 201 q 319 105 280 126 q 412 84 358 84 "},"Щ":{"x_min":123.625,"x_max":1348.71875,"ha":1389,"o":"m 123 0 l 123 972 l 262 972 l 262 122 l 595 122 l 595 972 l 734 972 l 734 122 l 1068 122 l 1068 972 l 1207 972 l 1207 122 l 1348 122 l 1348 -178 l 1252 -178 l 1230 0 l 123 0 "},"L":{"x_min":123.625,"x_max":759.78125,"ha":786,"o":"m 759 0 l 123 0 l 123 972 l 262 972 l 262 122 l 759 122 l 759 0 "},"Ҡ":{"x_min":0,"x_max":1001.46875,"ha":1050,"o":"m 381 972 l 381 525 l 445 545 l 795 972 l 954 972 l 605 555 l 538 508 l 616 453 l 1001 0 l 826 0 l 450 442 l 381 442 l 381 0 l 243 0 l 243 850 l 0 850 l 0 972 l 381 972 "},"ď":{"x_min":83.34375,"x_max":966.703125,"ha":874,"o":"m 747 251 q 749 118 747 180 q 762 -3 751 56 l 677 -3 l 645 108 l 632 108 q 538 17 600 53 q 394 -19 476 -19 q 160 74 237 -19 q 83 360 83 167 q 178 645 83 546 q 445 745 273 745 q 497 742 475 745 q 541 738 520 740 q 579 729 561 735 q 619 718 598 724 l 619 972 l 747 972 l 747 251 m 619 595 q 550 627 587 618 q 452 637 513 637 q 278 571 340 637 q 216 358 216 506 q 227 251 216 300 q 262 165 238 201 q 325 109 286 129 q 420 89 363 89 q 552 131 505 89 q 619 257 600 173 l 619 595 m 966 972 q 949 889 963 931 q 915 809 934 846 q 875 742 895 771 q 841 701 855 713 l 786 732 q 825 845 812 783 q 838 972 838 908 l 966 972 "},"⃊":{"x_min":44.453125,"x_max":788.953125,"ha":825,"o":"m 44 478 l 154 478 l 154 962 q 278 980 212 975 q 411 985 344 985 q 551 971 483 985 q 672 925 619 958 q 757 834 725 891 q 788 687 788 776 q 755 543 788 601 q 668 449 722 485 q 545 396 613 412 q 405 381 476 381 l 287 381 l 287 279 l 540 279 l 540 182 l 287 182 l 287 0 l 154 0 l 154 182 l 44 182 l 44 279 l 154 279 l 154 381 l 44 381 l 44 478 m 416 871 q 343 868 379 871 q 287 862 308 865 l 287 478 l 398 478 q 487 487 443 478 q 567 519 531 496 q 625 583 602 543 q 647 684 647 623 q 629 774 647 739 q 579 831 611 809 q 506 861 548 852 q 416 871 463 871 "},"⃇":{"x_min":44.453125,"x_max":788.953125,"ha":825,"o":"m 44 478 l 154 478 l 154 962 q 278 980 212 975 q 411 985 344 985 q 551 971 483 985 q 672 925 619 958 q 757 834 725 891 q 788 687 788 776 q 755 543 788 601 q 668 449 722 485 q 545 396 613 412 q 405 381 476 381 l 287 381 l 287 279 l 540 279 l 540 182 l 287 182 l 287 0 l 154 0 l 154 182 l 44 182 l 44 279 l 154 279 l 154 381 l 44 381 l 44 478 m 416 871 q 343 868 379 871 q 287 862 308 865 l 287 478 l 398 478 q 487 487 443 478 q 567 519 531 496 q 625 583 602 543 q 647 684 647 623 q 629 774 647 739 q 579 831 611 809 q 506 861 548 852 q 416 871 463 871 "},"À":{"x_min":11.109375,"x_max":884.796875,"ha":896,"o":"m 634 254 l 250 254 l 147 0 l 11 0 l 411 986 l 483 986 l 884 0 l 740 0 l 634 254 m 291 371 l 594 371 l 481 647 l 444 795 l 441 795 l 404 644 l 291 371 m 526 1045 l 406 1045 l 166 1177 l 166 1209 l 349 1209 l 526 1045 "},"‑":{"x_min":88.890625,"x_max":458.375,"ha":547,"o":"m 88 461 l 458 461 l 458 342 l 88 342 l 88 461 "},"½":{"x_min":53.78125,"x_max":1214.265625,"ha":1299,"o":"m 951 992 l 1034 932 l 307 -18 l 223 44 l 951 992 m 1185 423 q 1170 344 1185 381 q 1130 270 1155 306 q 1069 199 1104 234 q 996 127 1035 163 l 926 85 l 926 83 l 1014 101 l 1214 101 l 1214 0 l 768 0 l 768 58 q 854 124 803 83 q 953 215 905 166 q 1034 313 1000 263 q 1068 406 1068 363 q 1039 468 1068 448 q 967 489 1011 489 q 887 474 925 489 q 821 443 848 459 l 783 534 q 878 577 825 562 q 987 593 932 593 q 1134 547 1083 593 q 1185 423 1185 502 m 245 809 l 256 863 l 214 825 l 99 757 l 53 837 l 288 982 l 360 982 l 360 389 l 245 389 l 245 809 "},"":{"x_min":83.34375,"x_max":793.125,"ha":876,"o":"m 83 364 q 106 525 83 454 q 176 647 130 597 q 288 723 222 697 q 438 750 354 750 q 594 720 527 750 q 705 639 661 691 q 771 517 750 587 q 793 364 793 447 q 768 204 793 275 q 699 83 744 133 q 588 7 654 33 q 438 -19 522 -19 q 280 10 347 -19 q 170 90 213 39 q 104 212 126 142 q 83 364 83 282 m 219 364 q 231 263 219 312 q 269 175 243 214 q 337 112 295 136 q 440 89 379 89 q 657 364 657 89 q 645 468 657 418 q 607 556 633 518 q 540 618 581 594 q 440 642 498 642 q 275 573 331 642 q 219 364 219 504 m 202 925 l 657 925 l 657 829 l 202 829 l 202 925 "},"'":{"x_min":136.125,"x_max":263.90625,"ha":339,"o":"m 136 972 l 263 972 l 215 697 l 136 697 l 136 972 "},"":{"x_min":83.34375,"x_max":672.28125,"ha":735,"o":"m 672 50 q 581 5 632 22 q 475 -17 531 -11 l 454 -247 l 366 -247 l 337 -12 q 219 31 268 0 q 140 112 170 63 q 97 224 111 160 q 83 363 83 288 q 172 649 83 548 q 430 750 262 750 q 558 736 504 750 q 655 704 612 723 l 622 600 q 541 630 584 619 q 445 642 497 642 q 219 363 219 642 q 231 262 219 310 q 272 175 244 213 q 345 113 300 136 q 455 91 390 91 q 557 107 513 91 q 630 146 601 123 l 672 50 "},"Ҽ":{"x_min":2.640625,"x_max":1101.484375,"ha":1197,"o":"m 430 430 q 775 101 455 101 q 901 120 843 101 q 1000 164 959 140 l 1034 54 q 911 3 982 25 q 748 -18 841 -18 q 566 8 648 -18 q 425 89 484 34 q 331 228 366 144 q 291 430 297 313 l 237 430 q 127 445 172 430 q 53 485 81 460 q 13 544 25 510 q 2 616 1 578 q 13 679 4 656 q 41 719 22 702 l 168 719 q 136 675 144 702 q 127 629 127 649 q 131 601 127 615 q 148 574 136 586 q 184 553 161 561 q 247 544 208 544 q 268 545 258 544 q 291 547 279 546 q 410 874 302 759 q 712 990 518 990 q 1002 883 904 990 q 1101 581 1101 776 q 1098 507 1101 545 q 1087 430 1094 470 l 430 430 m 958 549 q 961 582 961 565 q 962 614 962 599 q 948 712 962 666 q 904 794 934 759 q 827 850 873 829 q 715 871 780 871 q 507 789 579 871 q 429 549 436 707 l 958 549 "},"Р":{"x_min":123.625,"x_max":798.671875,"ha":853,"o":"m 123 962 q 250 980 181 975 q 386 985 319 985 q 529 972 456 985 q 662 926 602 959 q 760 834 722 893 q 798 682 798 775 q 763 532 798 594 q 671 432 729 470 q 539 375 613 393 q 386 357 465 357 q 360 357 377 357 q 324 359 343 358 q 288 361 305 359 q 262 363 270 362 l 262 0 l 123 0 l 123 962 m 390 866 q 317 864 352 866 q 262 857 281 863 l 262 482 q 285 479 269 480 q 318 477 301 478 q 352 476 336 476 q 376 476 368 476 q 475 483 426 476 q 563 513 523 491 q 627 576 602 535 q 651 680 651 616 q 627 772 651 736 q 566 829 604 808 q 482 858 529 850 q 390 866 436 866 "},"˛":{"x_min":93.0625,"x_max":390.3125,"ha":479,"o":"m 326 0 q 251 -54 279 -23 q 225 -127 223 -86 q 247 -181 226 -159 q 308 -204 268 -204 q 338 -200 322 -204 q 373 -190 355 -197 l 390 -254 q 325 -279 366 -270 q 245 -289 283 -289 q 134 -254 175 -289 q 93 -161 93 -220 q 136 -64 93 -105 q 254 0 180 -23 l 326 0 "},"Ԧ":{"x_min":123.625,"x_max":947.296875,"ha":975,"o":"m 675 0 l 675 317 q 491 502 675 502 q 360 485 420 502 q 262 439 300 468 l 262 0 l 123 0 l 123 972 l 262 972 l 262 558 q 369 600 302 580 q 523 621 436 621 q 640 606 587 621 q 732 559 693 591 q 792 475 770 527 q 813 347 813 423 l 813 122 l 947 122 l 947 -178 l 851 -178 l 829 0 l 675 0 "},"Ć":{"x_min":80.5625,"x_max":811.171875,"ha":867,"o":"m 811 42 q 694 -4 765 8 q 544 -18 623 -18 q 367 11 451 -18 q 219 103 283 41 q 118 260 155 165 q 80 486 80 355 q 122 717 80 622 q 230 874 163 813 q 380 962 297 934 q 545 990 463 990 q 695 980 637 990 q 794 955 754 970 l 763 836 q 556 868 695 868 q 435 847 494 868 q 329 782 376 827 q 255 664 283 737 q 227 486 227 591 q 254 320 227 391 q 327 200 280 248 q 436 128 373 152 q 575 104 500 104 q 693 116 643 104 q 777 149 743 129 l 811 42 m 623 1209 l 807 1209 l 807 1177 l 559 1045 l 447 1045 l 623 1209 "},"":{"x_min":83.34375,"x_max":741.71875,"ha":831,"o":"m 715 59 q 594 2 666 23 q 437 -19 522 -19 q 278 8 345 -19 q 168 85 211 35 q 104 205 125 135 q 83 364 83 276 q 175 650 83 551 q 438 750 268 750 q 547 738 493 750 q 644 693 601 726 q 714 604 687 661 q 741 455 741 547 q 740 403 741 433 q 734 347 738 374 l 213 347 q 275 154 216 219 q 473 89 333 89 q 584 109 531 89 q 666 157 637 129 l 715 59 m 619 439 q 574 596 622 550 q 440 642 526 642 q 286 596 343 642 q 219 439 229 550 l 619 439 m 193 895 q 215 950 193 928 q 273 973 237 973 q 330 950 308 973 q 351 895 351 928 q 330 841 351 863 q 273 819 308 819 q 215 841 237 819 q 193 895 193 863 m 491 895 q 513 950 491 928 q 571 973 535 973 q 628 950 607 973 q 650 895 650 928 q 628 841 650 863 q 571 819 607 819 q 513 841 535 819 q 491 895 491 863 m 180 1161 l 666 1161 l 666 1067 l 180 1067 l 180 1161 "},"Т":{"x_min":26.390625,"x_max":820.90625,"ha":847,"o":"m 820 850 l 493 850 l 493 0 l 354 0 l 354 850 l 26 850 l 26 972 l 820 972 l 820 850 "},"£":{"x_min":61.109375,"x_max":744.5,"ha":825,"o":"m 61 535 l 161 535 q 130 611 143 571 q 118 709 118 652 q 140 829 118 777 q 205 917 163 881 q 306 971 247 952 q 438 990 365 990 q 602 974 531 990 q 716 940 672 959 l 675 822 q 584 854 643 838 q 440 871 525 871 q 304 827 352 871 q 256 714 256 783 q 273 617 256 659 q 311 535 290 575 l 548 535 l 548 424 l 363 424 q 377 368 372 397 q 383 305 383 339 q 368 221 383 264 q 326 148 354 178 l 270 104 l 270 97 l 359 117 l 744 117 l 744 0 l 61 0 l 61 117 l 63 117 q 145 133 111 118 q 202 173 180 148 q 235 228 225 197 q 245 293 245 260 q 237 364 245 332 q 218 424 229 396 l 61 424 l 61 535 "},"ů":{"x_min":122.234375,"x_max":772.28125,"ha":895,"o":"m 250 729 l 250 327 q 256 225 250 269 q 281 150 263 180 q 331 104 300 120 q 411 89 362 89 q 547 136 494 89 q 627 252 600 183 l 627 729 l 755 729 l 755 206 q 759 99 755 154 q 772 0 763 44 l 686 0 l 652 121 l 638 121 q 538 19 602 58 q 379 -19 475 -19 q 267 -3 315 -19 q 186 48 219 11 q 138 146 154 85 q 122 298 122 207 l 122 729 l 250 729 m 290 948 q 330 1044 290 1007 q 441 1081 370 1081 q 553 1048 508 1081 q 598 948 598 1015 q 586 897 598 920 q 553 856 574 873 q 503 828 533 838 q 441 818 474 818 q 332 852 374 818 q 290 948 290 886 m 369 948 q 392 903 369 920 q 441 886 415 886 q 496 901 473 886 q 519 948 519 916 q 495 996 519 980 q 441 1013 472 1013 q 391 997 413 1013 q 369 948 369 982 "},"Ō":{"x_min":80.5625,"x_max":957.015625,"ha":1038,"o":"m 80 486 q 110 699 80 605 q 196 857 140 792 q 334 955 252 921 q 518 990 415 990 q 710 953 627 990 q 847 850 793 916 q 929 691 902 784 q 957 486 957 598 q 927 272 957 366 q 840 114 897 179 q 702 16 783 50 q 518 -18 620 -18 q 325 18 406 -18 q 188 121 243 55 q 107 280 134 187 q 80 486 80 373 m 227 486 q 245 337 227 406 q 297 214 262 267 q 388 131 333 162 q 518 101 443 101 q 731 194 652 101 q 809 486 809 287 q 792 633 809 563 q 739 755 775 702 q 649 839 704 808 q 518 871 594 871 q 306 776 384 871 q 227 486 227 681 m 284 1161 l 770 1161 l 770 1067 l 284 1067 l 284 1161 "},"ԥ":{"x_min":122.234375,"x_max":833.40625,"ha":861,"o":"m 608 621 l 250 621 l 250 0 l 122 0 l 122 729 l 736 729 l 736 108 l 833 108 l 833 -183 l 743 -183 l 720 0 l 608 0 l 608 621 "},"Ǵ":{"x_min":80.5625,"x_max":847.296875,"ha":928,"o":"m 483 490 l 847 490 l 847 61 q 787 27 822 41 q 713 2 752 12 q 632 -12 673 -6 q 550 -18 590 -18 q 364 11 450 -18 q 215 104 279 41 q 116 261 152 166 q 80 486 80 356 q 124 716 80 620 q 237 873 168 812 q 392 962 306 934 q 562 990 477 990 q 714 979 654 990 q 815 954 775 969 l 782 836 q 573 868 709 868 q 449 848 511 868 q 338 783 387 829 q 258 665 288 738 q 227 486 227 592 q 253 315 227 387 q 325 195 279 242 q 433 126 370 148 q 569 104 495 104 q 657 113 615 104 q 732 138 700 122 l 732 384 l 483 409 l 483 490 m 641 1209 l 825 1209 l 825 1177 l 577 1045 l 465 1045 l 641 1209 "},"а":{"x_min":62.5,"x_max":691.71875,"ha":808,"o":"m 113 683 q 423 743 238 743 q 557 721 506 743 q 636 666 608 699 q 672 592 663 633 q 682 511 682 551 q 676 357 682 434 q 670 190 670 280 q 675 87 670 137 q 691 -3 680 38 l 598 -3 l 563 108 l 550 108 q 512 66 534 87 q 459 27 490 44 q 389 0 429 11 q 298 -11 350 -11 q 204 3 247 -11 q 129 44 161 18 q 80 109 98 70 q 62 194 62 147 q 89 303 62 257 q 159 378 116 348 q 257 421 202 407 q 366 435 312 435 q 439 433 409 435 q 489 430 469 432 q 523 425 509 428 q 548 422 537 423 q 552 458 551 443 q 554 497 554 473 q 545 562 554 536 q 518 605 537 589 q 468 628 500 621 q 390 635 436 635 q 331 630 363 635 q 268 618 300 626 q 204 599 236 611 q 148 576 173 588 l 113 683 m 548 330 q 525 334 537 331 q 493 338 512 337 q 449 341 475 340 q 386 343 423 343 q 249 312 300 343 q 198 208 198 281 q 238 124 198 152 q 340 97 277 97 q 421 108 386 97 q 482 138 456 120 q 524 176 508 155 q 548 219 540 198 l 548 330 "},"Ğ":{"x_min":80.5625,"x_max":847.296875,"ha":928,"o":"m 483 490 l 847 490 l 847 61 q 787 27 822 41 q 713 2 752 12 q 632 -12 673 -6 q 550 -18 590 -18 q 364 11 450 -18 q 215 104 279 41 q 116 261 152 166 q 80 486 80 356 q 124 716 80 620 q 237 873 168 812 q 392 962 306 934 q 562 990 477 990 q 714 979 654 990 q 815 954 775 969 l 782 836 q 573 868 709 868 q 449 848 511 868 q 338 783 387 829 q 258 665 288 738 q 227 486 227 592 q 253 315 227 387 q 325 195 279 242 q 433 126 370 148 q 569 104 495 104 q 657 113 615 104 q 732 138 700 122 l 732 384 l 483 409 l 483 490 m 332 1211 q 412 1143 358 1166 q 537 1120 466 1120 q 661 1146 611 1120 q 736 1211 712 1173 l 797 1179 q 757 1109 783 1140 q 697 1057 732 1079 q 620 1025 662 1036 q 536 1014 579 1014 q 455 1023 495 1014 q 379 1051 415 1032 q 313 1100 343 1070 q 265 1170 283 1129 l 332 1211 "},"ә":{"x_min":88.890625,"x_max":748.671875,"ha":832,"o":"m 116 668 q 238 726 166 704 q 391 749 309 749 q 552 720 484 749 q 663 641 619 692 q 727 519 707 590 q 748 364 748 449 q 725 203 748 274 q 657 83 701 132 q 550 7 613 33 q 405 -19 486 -19 q 288 -3 345 -19 q 187 48 231 11 q 115 146 143 85 q 88 303 88 208 q 90 349 88 322 q 95 406 91 376 l 616 406 q 595 513 609 468 q 550 586 580 558 q 473 627 520 614 q 356 641 426 641 q 248 621 302 641 q 161 577 194 602 l 116 668 m 406 89 q 554 147 497 89 q 612 314 611 205 l 219 314 q 267 143 215 197 q 406 89 319 89 "},"v":{"x_min":0,"x_max":743.109375,"ha":743,"o":"m 336 309 l 384 160 l 430 312 l 604 729 l 743 729 l 402 -15 l 347 -15 l 0 729 l 150 729 l 336 309 "},"Ї":{"x_min":95.84375,"x_max":456.984375,"ha":553,"o":"m 102 1102 q 125 1154 102 1135 q 180 1173 147 1173 q 234 1154 212 1173 q 256 1102 256 1135 q 234 1050 256 1069 q 180 1031 212 1031 q 125 1050 147 1031 q 102 1102 102 1069 m 297 1102 q 319 1154 297 1135 q 375 1173 341 1173 q 430 1154 408 1173 q 452 1102 452 1135 q 430 1050 452 1069 q 375 1031 408 1031 q 319 1050 341 1031 q 297 1102 297 1069 m 206 880 l 95 880 l 95 972 l 456 972 l 456 880 l 345 880 l 345 92 l 456 92 l 456 0 l 95 0 l 95 92 l 206 92 l 206 880 "},"û":{"x_min":122.234375,"x_max":772.28125,"ha":895,"o":"m 250 729 l 250 327 q 256 225 250 269 q 281 150 263 180 q 331 104 300 120 q 411 89 362 89 q 547 136 494 89 q 627 252 600 183 l 627 729 l 755 729 l 755 206 q 759 99 755 154 q 772 0 763 44 l 686 0 l 652 121 l 638 121 q 538 19 602 58 q 379 -19 475 -19 q 267 -3 315 -19 q 186 48 219 11 q 138 146 154 85 q 122 298 122 207 l 122 729 l 250 729 m 428 1074 l 485 1074 q 572 943 528 1007 q 658 814 617 879 l 547 814 l 485 909 l 449 1008 l 406 909 l 339 814 l 233 814 l 428 1074 "},"Ź":{"x_min":54.171875,"x_max":773.671875,"ha":828,"o":"m 54 122 l 577 794 l 645 850 l 54 850 l 54 972 l 773 972 l 773 850 l 245 173 l 180 122 l 773 122 l 773 0 l 54 0 l 54 122 m 490 1209 l 674 1209 l 674 1177 l 426 1045 l 314 1045 l 490 1209 "},"Ĺ":{"x_min":123.625,"x_max":759.78125,"ha":786,"o":"m 759 0 l 123 0 l 123 972 l 262 972 l 262 122 l 759 122 l 759 0 m 352 1209 l 536 1209 l 536 1177 l 288 1045 l 176 1045 l 352 1209 "},"Č":{"x_min":80.5625,"x_max":811.171875,"ha":867,"o":"m 811 42 q 694 -4 765 8 q 544 -18 623 -18 q 367 11 451 -18 q 219 103 283 41 q 118 260 155 165 q 80 486 80 355 q 122 717 80 622 q 230 874 163 813 q 380 962 297 934 q 545 990 463 990 q 695 980 637 990 q 794 955 754 970 l 763 836 q 556 868 695 868 q 435 847 494 868 q 329 782 376 827 q 255 664 283 737 q 227 486 227 591 q 254 320 227 391 q 327 200 280 248 q 436 128 373 152 q 575 104 500 104 q 693 116 643 104 q 777 149 743 129 l 811 42 m 582 1033 l 486 1033 l 293 1173 l 293 1208 l 422 1208 l 511 1139 l 537 1094 l 566 1138 l 661 1208 l 785 1208 l 785 1171 l 582 1033 "},"":{"x_min":83.34375,"x_max":793.125,"ha":876,"o":"m 83 364 q 106 525 83 454 q 176 647 130 597 q 288 723 222 697 q 438 750 354 750 q 594 720 527 750 q 705 639 661 691 q 771 517 750 587 q 793 364 793 447 q 768 204 793 275 q 699 83 744 133 q 588 7 654 33 q 438 -19 522 -19 q 280 10 347 -19 q 170 90 213 39 q 104 212 126 142 q 83 364 83 282 m 219 364 q 231 263 219 312 q 269 175 243 214 q 337 112 295 136 q 440 89 379 89 q 657 364 657 89 q 645 468 657 418 q 607 556 633 518 q 540 618 581 594 q 440 642 498 642 q 275 573 331 642 q 219 364 219 504 m 346 902 q 371 960 346 934 q 436 986 396 986 q 503 960 476 986 q 529 902 529 934 q 503 846 529 870 q 436 822 476 822 q 371 846 396 822 q 346 902 346 870 "},"x":{"x_min":41.671875,"x_max":780.625,"ha":822,"o":"m 323 373 l 61 729 l 223 729 l 365 542 l 413 444 l 470 542 l 618 729 l 762 729 l 497 379 q 638 190 566 286 q 780 0 711 94 l 622 0 l 462 206 l 406 311 l 350 206 l 188 0 l 41 0 l 323 373 "},"è":{"x_min":83.34375,"x_max":741.71875,"ha":831,"o":"m 715 59 q 594 2 666 23 q 437 -19 522 -19 q 278 8 345 -19 q 168 85 211 35 q 104 205 125 135 q 83 364 83 276 q 175 650 83 551 q 438 750 268 750 q 547 738 493 750 q 644 693 601 726 q 714 604 687 661 q 741 455 741 547 q 740 403 741 433 q 734 347 738 374 l 213 347 q 275 154 216 219 q 473 89 333 89 q 584 109 531 89 q 666 157 637 129 l 715 59 m 619 439 q 574 596 622 550 q 440 642 526 642 q 286 596 343 642 q 219 439 229 550 l 619 439 m 517 792 l 442 792 l 266 968 l 266 1000 l 419 1000 l 517 792 "},"":{"x_min":83.34375,"x_max":741.71875,"ha":831,"o":"m 715 59 q 594 2 666 23 q 437 -19 522 -19 q 278 8 345 -19 q 168 85 211 35 q 104 205 125 135 q 83 364 83 276 q 175 650 83 551 q 438 750 268 750 q 547 738 493 750 q 644 693 601 726 q 714 604 687 661 q 741 455 741 547 q 740 403 741 433 q 734 347 738 374 l 213 347 q 275 154 216 219 q 473 89 333 89 q 584 109 531 89 q 666 157 637 129 l 715 59 m 619 439 q 574 596 622 550 q 440 642 526 642 q 286 596 343 642 q 219 439 229 550 l 619 439 m 196 925 l 651 925 l 651 829 l 196 829 l 196 925 "},"Ń":{"x_min":123.625,"x_max":897.296875,"ha":1021,"o":"m 326 617 l 243 754 l 237 754 l 254 617 l 254 0 l 123 0 l 123 986 l 201 986 l 697 355 l 776 226 l 783 226 l 766 355 l 766 972 l 897 972 l 897 -14 l 819 -14 l 326 617 m 603 1209 l 787 1209 l 787 1177 l 539 1045 l 427 1045 l 603 1209 "},"":{"x_min":61.109375,"x_max":241.6875,"ha":301,"o":"m 241 618 q 218 565 241 584 q 158 546 194 546 q 87 572 113 546 q 61 650 61 598 q 75 732 61 697 q 111 789 90 766 q 155 826 131 812 q 197 846 179 840 l 234 790 q 180 750 201 775 q 162 689 159 725 q 220 675 198 695 q 241 618 241 654 "},"ḿ":{"x_min":122.234375,"x_max":1194.546875,"ha":1317,"o":"m 594 0 l 594 399 q 588 502 594 458 q 566 576 583 547 q 520 621 550 606 q 443 636 490 636 q 320 595 369 636 q 250 490 270 554 l 250 0 l 122 0 l 122 729 l 209 729 l 234 631 l 248 631 q 350 715 293 681 q 497 750 408 750 q 622 718 572 750 q 700 611 673 686 q 805 712 741 675 q 948 750 869 750 q 1061 734 1015 750 q 1137 681 1108 719 q 1180 580 1166 644 q 1194 419 1194 516 l 1194 0 l 1066 0 l 1066 419 q 1060 515 1066 474 q 1037 582 1054 555 q 991 622 1020 609 q 912 636 961 636 q 787 594 833 636 q 722 469 741 552 l 722 0 l 594 0 m 689 1000 l 833 1000 l 833 968 l 678 792 l 600 792 l 689 1000 "},"μ":{"x_min":109.734375,"x_max":805.625,"ha":883,"o":"m 237 729 l 237 331 q 277 147 237 209 q 416 86 316 86 q 570 139 508 86 q 657 279 633 192 l 657 729 l 784 729 l 784 234 q 788 115 784 176 q 805 0 791 55 l 722 0 l 676 119 l 659 119 q 618 68 643 93 q 561 24 593 43 q 488 -6 529 5 q 402 -18 448 -18 q 288 3 329 -18 q 219 59 248 25 l 200 59 l 237 -106 l 237 -279 l 109 -279 l 109 729 l 237 729 "},".":{"x_min":72.234375,"x_max":258.359375,"ha":331,"o":"m 72 70 q 97 134 72 110 q 165 158 123 158 q 232 134 206 158 q 258 70 258 110 q 232 8 258 33 q 165 -17 206 -17 q 97 8 123 -17 q 72 70 72 33 "},"ӑ":{"x_min":62.5,"x_max":691.71875,"ha":808,"o":"m 113 683 q 423 743 238 743 q 557 721 506 743 q 636 666 608 699 q 672 592 663 633 q 682 511 682 551 q 676 357 682 434 q 670 190 670 280 q 675 87 670 137 q 691 -3 680 38 l 598 -3 l 563 108 l 550 108 q 512 66 534 87 q 459 27 490 44 q 389 0 429 11 q 298 -11 350 -11 q 204 3 247 -11 q 129 44 161 18 q 80 109 98 70 q 62 194 62 147 q 89 303 62 257 q 159 378 116 348 q 257 421 202 407 q 366 435 312 435 q 439 433 409 435 q 489 430 469 432 q 523 425 509 428 q 548 422 537 423 q 552 458 551 443 q 554 497 554 473 q 545 562 554 536 q 518 605 537 589 q 468 628 500 621 q 390 635 436 635 q 331 630 363 635 q 268 618 300 626 q 204 599 236 611 q 148 576 173 588 l 113 683 m 548 330 q 525 334 537 331 q 493 338 512 337 q 449 341 475 340 q 386 343 423 343 q 249 312 300 343 q 198 208 198 281 q 238 124 198 152 q 340 97 277 97 q 421 108 386 97 q 482 138 456 120 q 524 176 508 155 q 548 219 540 198 l 548 330 m 258 989 q 277 940 265 958 q 306 913 290 922 q 345 902 323 904 q 390 900 366 900 q 435 902 413 900 q 473 915 456 905 q 502 941 490 925 q 522 987 515 958 l 622 958 q 542 843 606 876 q 387 810 477 810 q 304 816 344 810 q 231 840 263 823 q 175 884 198 857 q 144 952 152 911 l 258 989 "},"‘":{"x_min":61.109375,"x_max":241.6875,"ha":301,"o":"m 241 860 q 218 807 241 826 q 158 788 194 788 q 87 814 113 788 q 61 892 61 840 q 75 974 61 939 q 111 1031 90 1008 q 155 1068 131 1054 q 197 1088 179 1082 l 234 1032 q 180 992 201 1017 q 162 931 159 967 q 220 917 198 937 q 241 860 241 896 "},"π":{"x_min":61.109375,"x_max":973.6875,"ha":1070,"o":"m 834 181 q 850 119 834 136 q 893 102 865 102 q 926 103 908 102 q 963 109 944 104 l 973 18 q 914 1 950 9 q 836 -6 879 -6 q 734 35 762 -6 q 707 148 707 76 l 707 621 l 397 621 l 397 0 l 269 0 l 269 621 l 238 621 q 186 603 206 621 q 141 554 165 586 l 61 597 q 136 694 91 659 q 262 729 180 729 l 969 729 l 969 621 l 834 621 l 834 181 "},"9":{"x_min":73.609375,"x_max":740.34375,"ha":825,"o":"m 73 676 q 95 799 73 741 q 158 899 116 856 q 262 965 200 941 q 406 990 325 990 q 546 965 484 990 q 651 894 608 940 q 717 783 694 848 q 740 635 740 717 q 700 361 740 479 q 591 161 661 243 q 427 36 520 80 q 225 -18 333 -8 l 197 86 q 354 128 284 95 q 473 211 423 161 q 555 327 523 262 q 600 466 587 391 q 557 429 579 444 q 510 404 536 413 q 453 392 484 395 q 381 389 422 389 q 264 408 320 389 q 165 463 208 427 q 98 553 123 500 q 73 676 73 606 m 206 686 q 263 544 206 592 q 411 497 320 497 q 535 520 484 497 q 609 577 586 544 q 612 606 612 594 q 612 634 612 619 q 600 724 612 680 q 561 804 587 769 q 495 860 536 838 q 400 882 455 882 q 257 829 308 882 q 206 686 206 777 "},"ԝ":{"x_min":11.109375,"x_max":1166.765625,"ha":1167,"o":"m 650 729 l 769 452 l 829 312 l 866 172 l 876 172 l 908 316 l 1044 729 l 1166 729 l 901 -15 l 832 -15 l 627 455 l 627 454 l 591 588 l 550 452 l 550 454 l 354 -15 l 287 -15 l 11 729 l 151 729 l 305 316 l 331 171 l 344 171 l 383 319 l 551 729 l 650 729 "},"":{"x_min":122.234375,"x_max":768.109375,"ha":890,"o":"m 640 0 l 640 402 q 632 506 640 462 q 604 579 625 549 q 550 622 584 608 q 465 636 516 636 q 394 623 429 636 q 330 588 359 611 q 280 535 301 566 q 250 465 259 504 l 250 0 l 122 0 l 122 972 l 250 972 l 250 638 l 265 638 q 365 719 306 688 q 509 750 423 750 q 625 735 576 750 q 705 684 673 720 q 752 585 737 647 q 768 430 768 523 l 768 0 l 640 0 m 504 1000 l 648 1000 l 648 968 l 493 792 l 415 792 l 504 1000 "},"l":{"x_min":138.90625,"x_max":455.59375,"ha":467,"o":"m 266 193 q 288 112 266 136 q 345 89 309 89 q 388 91 368 89 q 438 103 409 94 l 455 8 q 422 -1 441 3 q 381 -10 402 -6 q 340 -16 361 -14 q 302 -19 319 -19 q 183 19 227 -19 q 138 146 138 57 l 138 972 l 266 972 l 266 193 "},"Ъ":{"x_min":-2.78125,"x_max":916.734375,"ha":964,"o":"m 241 850 l -2 850 l -2 972 l 380 972 l 380 600 q 404 604 387 602 q 444 607 422 606 q 488 610 466 609 q 529 612 511 612 q 669 598 600 612 q 793 550 738 584 q 882 459 848 517 q 916 314 916 402 q 884 171 916 232 q 796 68 852 109 q 663 7 740 27 q 497 -13 586 -13 q 445 -12 476 -13 q 378 -8 413 -11 q 306 -1 343 -6 q 241 9 270 2 l 241 850 m 512 106 q 610 118 563 106 q 692 156 657 131 q 748 218 727 181 q 769 307 769 256 q 747 399 769 363 q 688 456 725 435 q 604 485 651 477 q 508 493 558 493 q 476 491 495 493 q 438 488 456 490 q 403 484 419 487 q 380 480 387 481 l 380 114 q 438 107 401 108 q 512 106 476 106 "},"Ś":{"x_min":66.671875,"x_max":740.34375,"ha":807,"o":"m 601 255 q 563 345 601 312 q 469 403 526 379 q 347 449 412 427 q 225 504 281 470 q 130 590 168 537 q 93 727 93 642 q 179 917 93 845 q 427 990 266 990 q 598 976 520 990 q 720 939 676 962 l 677 823 q 573 856 643 841 q 420 871 504 871 q 279 830 326 871 q 231 737 231 790 q 269 649 231 683 q 363 590 306 616 q 486 541 420 565 q 608 483 551 517 q 702 397 665 448 q 740 268 740 347 q 715 150 740 202 q 643 59 690 97 q 529 2 595 22 q 377 -18 462 -18 q 185 0 263 -18 q 66 36 106 16 l 112 157 q 217 119 147 138 q 372 101 287 101 q 462 110 420 101 q 535 137 504 119 q 584 185 566 156 q 601 255 601 215 m 512 1209 l 696 1209 l 696 1177 l 448 1045 l 336 1045 l 512 1209 "},"Ü":{"x_min":123.625,"x_max":862.5625,"ha":986,"o":"m 732 972 l 862 972 l 862 337 q 836 181 862 246 q 763 72 811 116 q 652 7 716 28 q 508 -13 587 -13 q 222 68 320 -13 q 123 309 123 149 l 123 972 l 262 972 l 262 361 q 324 164 262 220 q 506 109 386 109 q 677 170 623 109 q 732 366 732 231 l 732 972 m 262 1104 q 285 1153 262 1135 q 348 1172 308 1172 q 410 1153 387 1172 q 434 1104 434 1135 q 410 1054 434 1073 q 348 1036 387 1036 q 285 1054 308 1036 q 262 1104 262 1073 m 559 1104 q 582 1153 559 1135 q 644 1172 605 1172 q 708 1153 684 1172 q 731 1104 731 1135 q 708 1054 731 1073 q 644 1036 684 1036 q 582 1054 605 1036 q 559 1104 559 1073 "},"à":{"x_min":62.5,"x_max":691.71875,"ha":808,"o":"m 113 683 q 423 743 238 743 q 557 721 506 743 q 636 666 608 699 q 672 592 663 633 q 682 511 682 551 q 676 357 682 434 q 670 190 670 280 q 675 87 670 137 q 691 -3 680 38 l 598 -3 l 563 108 l 550 108 q 512 66 534 87 q 459 27 490 44 q 389 0 429 11 q 298 -11 350 -11 q 204 3 247 -11 q 129 44 161 18 q 80 109 98 70 q 62 194 62 147 q 89 303 62 257 q 159 378 116 348 q 257 421 202 407 q 366 435 312 435 q 439 433 409 435 q 489 430 469 432 q 523 425 509 428 q 548 422 537 423 q 552 458 551 443 q 554 497 554 473 q 545 562 554 536 q 518 605 537 589 q 468 628 500 621 q 390 635 436 635 q 331 630 363 635 q 268 618 300 626 q 204 599 236 611 q 148 576 173 588 l 113 683 m 548 330 q 525 334 537 331 q 493 338 512 337 q 449 341 475 340 q 386 343 423 343 q 249 312 300 343 q 198 208 198 281 q 238 124 198 152 q 340 97 277 97 q 421 108 386 97 q 482 138 456 120 q 524 176 508 155 q 548 219 540 198 l 548 330 m 474 792 l 399 792 l 223 968 l 223 1000 l 376 1000 l 474 792 "},"":{"x_min":61.109375,"x_max":738.953125,"ha":818,"o":"m 206 455 l 206 563 l 230 563 q 263 563 243 563 q 304 564 283 563 q 346 566 326 565 q 379 569 366 567 q 506 617 454 579 q 559 719 559 656 q 543 791 559 763 q 499 837 527 819 q 433 862 470 854 q 354 870 395 870 q 213 857 273 870 q 122 829 154 844 l 84 940 q 127 956 98 948 q 195 972 156 965 q 279 984 233 979 q 375 989 326 989 q 495 977 436 989 q 602 937 555 965 q 677 864 648 909 q 707 748 707 818 q 657 617 707 679 q 508 527 608 554 l 508 521 q 677 447 615 506 q 738 287 738 387 q 704 150 738 208 q 613 55 669 93 q 485 0 556 18 q 338 -18 413 -18 q 170 -6 238 -18 q 61 22 102 5 l 95 142 q 195 113 131 126 q 350 101 258 101 q 436 112 393 101 q 513 145 479 123 q 570 202 548 167 q 591 283 591 236 q 527 406 591 367 q 347 452 462 445 q 315 454 329 453 q 281 455 301 455 l 206 455 "},"ó":{"x_min":83.34375,"x_max":793.125,"ha":876,"o":"m 83 364 q 106 525 83 454 q 176 647 130 597 q 288 723 222 697 q 438 750 354 750 q 594 720 527 750 q 705 639 661 691 q 771 517 750 587 q 793 364 793 447 q 768 204 793 275 q 699 83 744 133 q 588 7 654 33 q 438 -19 522 -19 q 280 10 347 -19 q 170 90 213 39 q 104 212 126 142 q 83 364 83 282 m 219 364 q 231 263 219 312 q 269 175 243 214 q 337 112 295 136 q 440 89 379 89 q 657 364 657 89 q 645 468 657 418 q 607 556 633 518 q 540 618 581 594 q 440 642 498 642 q 275 573 331 642 q 219 364 219 504 m 451 1000 l 595 1000 l 595 968 l 440 792 l 362 792 l 451 1000 "},"⃃":{"x_min":44.453125,"x_max":788.953125,"ha":825,"o":"m 44 478 l 154 478 l 154 962 q 278 980 212 975 q 411 985 344 985 q 551 971 483 985 q 672 925 619 958 q 757 834 725 891 q 788 687 788 776 q 755 543 788 601 q 668 449 722 485 q 545 396 613 412 q 405 381 476 381 l 287 381 l 287 279 l 540 279 l 540 182 l 287 182 l 287 0 l 154 0 l 154 182 l 44 182 l 44 279 l 154 279 l 154 381 l 44 381 l 44 478 m 416 871 q 343 868 379 871 q 287 862 308 865 l 287 478 l 398 478 q 487 487 443 478 q 567 519 531 496 q 625 583 602 543 q 647 684 647 623 q 629 774 647 739 q 579 831 611 809 q 506 861 548 852 q 416 871 463 871 "},"₴":{"x_min":56.953125,"x_max":688.9375,"ha":825,"o":"m 688 439 l 688 336 l 331 336 q 275 270 301 312 q 248 188 248 227 q 290 117 248 141 q 430 93 333 93 q 550 106 502 93 q 633 139 598 120 l 669 34 q 573 -1 634 15 q 404 -18 512 -18 q 187 32 259 -18 q 115 176 115 83 q 123 224 115 199 q 143 272 131 249 q 190 336 155 294 l 56 336 l 56 439 l 688 439 m 56 540 l 56 643 l 422 643 q 478 710 458 669 q 498 791 498 751 q 463 858 498 838 q 345 879 429 879 q 242 865 283 879 q 165 836 201 851 l 125 942 q 170 961 147 952 q 220 976 193 970 q 284 986 248 983 q 369 990 320 990 q 566 946 500 990 q 632 813 632 902 q 611 715 632 762 q 558 643 590 669 l 688 643 l 688 540 l 56 540 "},"":{"x_min":34.71875,"x_max":743.109375,"ha":867,"o":"m 743 0 l 604 0 l 604 413 l 455 383 l 195 0 l 34 0 l 269 338 l 361 399 q 261 431 306 409 q 181 487 215 452 q 128 569 147 522 q 109 679 109 616 q 141 822 109 764 q 227 916 173 880 q 355 969 281 953 q 512 985 429 985 q 625 980 563 985 q 743 962 687 975 l 743 0 m 504 866 q 411 857 455 866 q 332 828 366 849 q 277 772 298 807 q 256 681 256 736 q 276 594 256 630 q 329 537 295 559 q 409 506 363 516 q 505 497 454 497 l 604 497 l 604 857 q 562 864 584 863 q 504 866 540 866 m 331 1210 q 373 1134 338 1160 q 467 1109 409 1109 q 561 1134 525 1109 q 603 1208 596 1160 l 720 1183 q 641 1064 702 1107 q 466 1021 580 1021 q 286 1058 356 1021 q 202 1180 216 1096 l 331 1210 "},"¦":{"x_min":123.625,"x_max":234.734375,"ha":358,"o":"m 123 288 l 234 288 l 234 -181 l 123 -181 l 123 288 m 234 503 l 123 503 l 123 972 l 234 972 l 234 503 "},"":{"x_min":-9.71875,"x_max":813.953125,"ha":920,"o":"m -9 825 l 123 825 l 123 972 l 262 972 l 262 825 l 593 825 l 593 722 l 262 722 l 262 558 q 369 600 302 580 q 523 621 436 621 q 640 606 587 621 q 732 559 693 591 q 792 475 770 527 q 813 347 813 423 l 813 0 l 675 0 l 675 317 q 491 502 675 502 q 360 485 420 502 q 262 439 300 468 l 262 0 l 123 0 l 123 722 l -9 722 l -9 825 "},"Ѣ":{"x_min":0,"x_max":900.078125,"ha":947,"o":"m 0 871 l 225 871 l 225 1000 l 363 1000 l 363 871 l 676 871 l 676 757 l 363 757 l 363 598 q 389 601 372 599 q 428 606 406 604 q 472 609 450 608 q 512 611 494 611 q 654 597 584 611 q 778 549 723 583 q 866 459 833 516 q 900 316 900 402 q 867 170 900 232 q 778 67 834 107 q 645 7 722 27 q 480 -13 569 -13 q 428 -12 459 -13 q 361 -8 397 -11 q 291 -1 326 -6 q 225 9 255 2 l 225 757 l 0 757 l 0 871 m 497 106 q 595 117 548 106 q 676 154 641 129 q 732 217 711 179 q 752 306 752 255 q 730 398 752 362 q 671 455 708 434 q 588 484 634 476 q 491 492 541 492 q 459 490 479 492 q 421 487 440 489 q 386 483 402 486 q 363 479 370 480 l 363 114 q 421 107 383 108 q 497 106 459 106 "},"Ӈ":{"x_min":123.625,"x_max":894.515625,"ha":1018,"o":"m 894 0 l 894 -33 q 845 -227 894 -162 q 690 -292 797 -292 q 663 -290 676 -292 q 634 -286 650 -289 l 634 -170 q 702 -162 677 -171 q 738 -133 726 -153 q 752 -79 750 -112 q 755 0 755 -46 l 755 435 l 262 435 l 262 0 l 123 0 l 123 972 l 262 972 l 262 557 l 755 557 l 755 972 l 894 972 l 894 0 "},"":{"x_min":83.34375,"x_max":284.75,"ha":368,"o":"m 83 1108 q 109 1160 83 1138 q 183 1183 136 1183 q 257 1160 230 1183 q 284 1108 284 1138 q 257 1053 284 1074 q 183 1032 230 1032 q 109 1053 136 1032 q 83 1108 83 1074 "},"Ő":{"x_min":80.5625,"x_max":957.015625,"ha":1038,"o":"m 80 486 q 110 699 80 605 q 196 857 140 792 q 334 955 252 921 q 518 990 415 990 q 710 953 627 990 q 847 850 793 916 q 929 691 902 784 q 957 486 957 598 q 927 272 957 366 q 840 114 897 179 q 702 16 783 50 q 518 -18 620 -18 q 325 18 406 -18 q 188 121 243 55 q 107 280 134 187 q 80 486 80 373 m 227 486 q 245 337 227 406 q 297 214 262 267 q 388 131 333 162 q 518 101 443 101 q 731 194 652 101 q 809 486 809 287 q 792 633 809 563 q 739 755 775 702 q 649 839 704 808 q 518 871 594 871 q 306 776 384 871 q 227 486 227 681 m 453 1180 l 603 1180 l 603 1157 l 451 1029 l 357 1029 l 453 1180 m 707 1180 l 867 1180 l 867 1157 l 649 1029 l 553 1029 l 707 1180 "},"Ṕ":{"x_min":123.625,"x_max":798.671875,"ha":853,"o":"m 123 962 q 250 980 181 975 q 386 985 319 985 q 529 972 456 985 q 662 926 602 959 q 760 834 722 893 q 798 682 798 775 q 763 532 798 594 q 671 432 729 470 q 539 375 613 393 q 386 357 465 357 q 360 357 377 357 q 324 359 343 358 q 288 361 305 359 q 262 363 270 362 l 262 0 l 123 0 l 123 962 m 390 866 q 317 864 352 866 q 262 857 281 863 l 262 482 q 285 479 269 480 q 318 477 301 478 q 352 476 336 476 q 376 476 368 476 q 475 483 426 476 q 563 513 523 491 q 627 576 602 535 q 651 680 651 616 q 627 772 651 736 q 566 829 604 808 q 482 858 529 850 q 390 866 436 866 m 477 1209 l 661 1209 l 661 1177 l 413 1045 l 301 1045 l 477 1209 "},"Ž":{"x_min":54.171875,"x_max":773.671875,"ha":828,"o":"m 54 122 l 577 794 l 645 850 l 54 850 l 54 972 l 773 972 l 773 850 l 245 173 l 180 122 l 773 122 l 773 0 l 54 0 l 54 122 m 439 1033 l 343 1033 l 150 1173 l 150 1208 l 279 1208 l 368 1139 l 394 1094 l 423 1138 l 518 1208 l 642 1208 l 642 1171 l 439 1033 "},"Ҧ":{"x_min":123.625,"x_max":1412.609375,"ha":1490,"o":"m 875 312 l 875 0 l 736 0 l 736 850 l 262 850 l 262 0 l 123 0 l 123 972 l 875 972 l 875 499 q 947 517 894 505 q 1083 529 1000 529 q 1202 513 1143 529 q 1307 459 1261 498 q 1383 355 1354 420 q 1412 190 1412 290 q 1318 -87 1412 2 q 1054 -178 1225 -178 q 983 -176 1005 -178 q 950 -172 961 -175 l 950 -54 q 991 -58 968 -57 q 1057 -59 1015 -59 q 1211 0 1158 -59 q 1265 180 1265 57 q 1247 292 1265 248 q 1198 362 1229 336 q 1127 399 1168 389 q 1040 410 1086 410 q 988 406 1015 410 q 940 398 962 403 q 900 388 918 393 q 875 380 883 383 l 875 312 "},"е":{"x_min":83.34375,"x_max":741.71875,"ha":831,"o":"m 715 59 q 594 2 666 23 q 437 -19 522 -19 q 278 8 345 -19 q 168 85 211 35 q 104 205 125 135 q 83 364 83 276 q 175 650 83 551 q 438 750 268 750 q 547 738 493 750 q 644 693 601 726 q 714 604 687 661 q 741 455 741 547 q 740 403 741 433 q 734 347 738 374 l 213 347 q 275 154 216 219 q 473 89 333 89 q 584 109 531 89 q 666 157 637 129 l 715 59 m 619 439 q 574 596 622 550 q 440 642 526 642 q 286 596 343 642 q 219 439 229 550 l 619 439 "},"Î":{"x_min":29.34375,"x_max":526.609375,"ha":553,"o":"m 206 880 l 95 880 l 95 972 l 456 972 l 456 880 l 345 880 l 345 92 l 456 92 l 456 0 l 95 0 l 95 92 l 206 92 l 206 880 m 232 1209 l 333 1209 l 526 1069 l 526 1035 l 398 1035 l 308 1100 l 280 1149 l 251 1101 l 154 1035 l 29 1035 l 29 1071 l 232 1209 "},"e":{"x_min":83.34375,"x_max":741.71875,"ha":831,"o":"m 715 59 q 594 2 666 23 q 437 -19 522 -19 q 278 8 345 -19 q 168 85 211 35 q 104 205 125 135 q 83 364 83 276 q 175 650 83 551 q 438 750 268 750 q 547 738 493 750 q 644 693 601 726 q 714 604 687 661 q 741 455 741 547 q 740 403 741 433 q 734 347 738 374 l 213 347 q 275 154 216 219 q 473 89 333 89 q 584 109 531 89 q 666 157 637 129 l 715 59 m 619 439 q 574 596 622 550 q 440 642 526 642 q 286 596 343 642 q 219 439 229 550 l 619 439 "},"ļ":{"x_min":138.90625,"x_max":455.59375,"ha":467,"o":"m 266 193 q 288 112 266 136 q 345 89 309 89 q 388 91 368 89 q 438 103 409 94 l 455 8 q 422 -1 441 3 q 381 -10 402 -6 q 340 -16 361 -14 q 302 -19 319 -19 q 183 19 227 -19 q 138 146 138 57 l 138 972 l 266 972 l 266 193 m 184 -141 q 209 -91 184 -110 q 265 -72 233 -72 q 335 -98 305 -72 q 365 -180 365 -124 q 351 -247 365 -218 q 318 -297 337 -276 q 277 -330 298 -318 q 239 -349 255 -343 l 198 -293 q 243 -260 225 -282 q 262 -207 262 -239 q 207 -194 230 -213 q 184 -141 184 -174 "},"":{"x_min":61.109375,"x_max":466.6875,"ha":526,"o":"m 61 667 q 84 720 61 700 q 143 741 106 741 q 214 714 187 741 q 241 636 241 688 q 226 553 241 588 q 189 495 211 519 q 144 458 168 471 q 104 440 120 445 l 65 496 q 120 536 98 512 q 140 597 141 560 q 82 610 104 590 q 61 667 61 631 m 286 667 q 309 720 286 700 q 368 741 331 741 q 439 714 412 741 q 466 636 466 688 q 451 553 466 588 q 414 495 436 519 q 369 458 393 471 q 329 440 345 445 l 290 496 q 345 536 323 512 q 365 597 366 560 q 307 610 329 590 q 286 667 286 631 "},"Ѓ":{"x_min":123.625,"x_max":700.0625,"ha":675,"o":"m 700 850 l 262 850 l 262 0 l 123 0 l 123 972 l 700 972 l 700 850 m 473 1209 l 657 1209 l 657 1177 l 409 1045 l 297 1045 l 473 1209 "},"ò":{"x_min":83.34375,"x_max":793.125,"ha":876,"o":"m 83 364 q 106 525 83 454 q 176 647 130 597 q 288 723 222 697 q 438 750 354 750 q 594 720 527 750 q 705 639 661 691 q 771 517 750 587 q 793 364 793 447 q 768 204 793 275 q 699 83 744 133 q 588 7 654 33 q 438 -19 522 -19 q 280 10 347 -19 q 170 90 213 39 q 104 212 126 142 q 83 364 83 282 m 219 364 q 231 263 219 312 q 269 175 243 214 q 337 112 295 136 q 440 89 379 89 q 657 364 657 89 q 645 468 657 418 q 607 556 633 518 q 540 618 581 594 q 440 642 498 642 q 275 573 331 642 q 219 364 219 504 m 499 792 l 424 792 l 248 968 l 248 1000 l 401 1000 l 499 792 "},"^":{"x_min":84.734375,"x_max":683.390625,"ha":770,"o":"m 369 986 l 422 986 l 683 597 l 547 597 l 429 780 l 393 876 l 348 779 l 209 597 l 84 597 l 369 986 "},"к":{"x_min":122.234375,"x_max":751.453125,"ha":760,"o":"m 329 328 l 250 328 l 250 0 l 122 0 l 122 729 l 250 729 l 250 397 l 326 422 l 575 729 l 715 729 l 477 446 l 479 446 l 404 391 l 494 329 l 751 0 l 590 0 l 329 328 "},"Ӑ":{"x_min":11.109375,"x_max":884.796875,"ha":896,"o":"m 634 254 l 250 254 l 147 0 l 11 0 l 411 986 l 483 986 l 884 0 l 740 0 l 634 254 m 291 371 l 594 371 l 481 647 l 444 795 l 441 795 l 404 644 l 291 371 m 318 1210 q 360 1134 325 1160 q 454 1109 396 1109 q 548 1134 512 1109 q 590 1208 583 1160 l 707 1183 q 628 1064 689 1107 q 453 1021 567 1021 q 273 1058 343 1021 q 189 1180 203 1096 l 318 1210 "},"ū":{"x_min":122.234375,"x_max":772.28125,"ha":895,"o":"m 250 729 l 250 327 q 256 225 250 269 q 281 150 263 180 q 331 104 300 120 q 411 89 362 89 q 547 136 494 89 q 627 252 600 183 l 627 729 l 755 729 l 755 206 q 759 99 755 154 q 772 0 763 44 l 686 0 l 652 121 l 638 121 q 538 19 602 58 q 379 -19 475 -19 q 267 -3 315 -19 q 186 48 219 11 q 138 146 154 85 q 122 298 122 207 l 122 729 l 250 729 m 200 925 l 655 925 l 655 829 l 200 829 l 200 925 "},"ˆ":{"x_min":95.84375,"x_max":520.875,"ha":613,"o":"m 290 1074 l 347 1074 q 434 943 390 1007 q 520 814 479 879 l 409 814 l 347 909 l 311 1008 l 268 909 l 201 814 l 95 814 l 290 1074 "},"ȷ":{"x_min":16.671875,"x_max":283.359375,"ha":433,"o":"m 155 729 l 283 729 l 283 -25 q 232 -226 283 -160 q 69 -292 181 -292 q 45 -292 58 -292 q 16 -289 31 -292 l 16 -184 q 89 -172 62 -185 q 131 -134 116 -160 q 150 -70 145 -108 q 155 20 155 -32 l 155 729 "},"č":{"x_min":83.34375,"x_max":672.28125,"ha":735,"o":"m 672 50 q 558 -1 623 15 q 420 -19 493 -19 q 264 8 329 -19 q 159 86 200 36 q 101 207 119 136 q 83 364 83 278 q 172 649 83 548 q 430 750 262 750 q 558 736 504 750 q 655 704 612 723 l 622 600 q 541 630 584 619 q 445 642 497 642 q 219 364 219 642 q 231 261 219 311 q 272 174 244 212 q 345 112 300 136 q 455 89 390 89 q 557 105 513 89 q 630 144 601 121 l 672 50 m 437 814 l 369 814 l 189 1074 l 310 1074 l 371 979 l 410 880 l 450 978 l 519 1074 l 627 1074 l 437 814 "},"’":{"x_min":61.109375,"x_max":241.6875,"ha":301,"o":"m 61 909 q 84 962 61 942 q 143 983 106 983 q 214 956 187 983 q 241 878 241 930 q 226 795 241 830 q 189 737 211 761 q 144 700 168 713 q 104 682 120 687 l 65 738 q 120 778 98 754 q 140 839 141 802 q 82 852 104 832 q 61 909 61 873 "},"-":{"x_min":88.890625,"x_max":458.375,"ha":547,"o":"m 88 461 l 458 461 l 458 342 l 88 342 l 88 461 "},"Q":{"x_min":80.5625,"x_max":1070.921875,"ha":1038,"o":"m 1070 -252 q 998 -265 1034 -261 q 926 -269 962 -269 q 777 -254 850 -269 q 636 -222 704 -239 q 506 -189 569 -204 q 388 -175 444 -175 q 320 -183 354 -175 l 320 -64 q 404 -56 362 -56 q 529 -70 466 -56 q 657 -101 593 -84 q 791 -132 722 -118 q 934 -147 859 -147 q 1000 -143 966 -147 q 1070 -131 1034 -140 l 1070 -252 m 80 486 q 110 699 80 605 q 196 857 140 792 q 334 955 252 921 q 518 990 415 990 q 710 953 627 990 q 847 850 793 916 q 929 691 902 784 q 957 486 957 598 q 927 272 957 366 q 840 114 897 179 q 702 16 783 50 q 518 -18 620 -18 q 325 18 406 -18 q 188 121 243 55 q 107 280 134 187 q 80 486 80 373 m 227 486 q 245 337 227 406 q 297 214 262 267 q 388 131 333 162 q 518 101 443 101 q 731 194 652 101 q 809 486 809 287 q 792 633 809 563 q 739 755 775 702 q 649 839 704 808 q 518 871 594 871 q 306 776 384 871 q 227 486 227 681 "},"ј":{"x_min":16.671875,"x_max":308.6875,"ha":433,"o":"m 155 729 l 283 729 l 283 -25 q 232 -226 283 -160 q 69 -292 181 -292 q 45 -292 58 -292 q 16 -289 31 -292 l 16 -184 q 89 -172 62 -185 q 131 -134 116 -160 q 150 -70 145 -108 q 155 20 155 -32 l 155 729 m 125 902 q 150 960 125 934 q 215 986 175 986 q 282 960 255 986 q 308 902 308 934 q 282 846 308 870 q 215 822 255 822 q 150 846 175 822 q 125 902 125 870 "},"ě":{"x_min":83.34375,"x_max":741.71875,"ha":831,"o":"m 715 59 q 594 2 666 23 q 437 -19 522 -19 q 278 8 345 -19 q 168 85 211 35 q 104 205 125 135 q 83 364 83 276 q 175 650 83 551 q 438 750 268 750 q 547 738 493 750 q 644 693 601 726 q 714 604 687 661 q 741 455 741 547 q 740 403 741 433 q 734 347 738 374 l 213 347 q 275 154 216 219 q 473 89 333 89 q 584 109 531 89 q 666 157 637 129 l 715 59 m 619 439 q 574 596 622 550 q 440 642 526 642 q 286 596 343 642 q 219 439 229 550 l 619 439 m 456 814 l 388 814 l 208 1074 l 329 1074 l 390 979 l 429 880 l 469 978 l 538 1074 l 646 1074 l 456 814 "},"œ":{"x_min":83.34375,"x_max":1305.65625,"ha":1395,"o":"m 216 362 q 228 259 216 308 q 266 172 240 209 q 334 111 293 134 q 436 89 376 89 q 600 154 544 89 q 655 362 655 219 q 643 469 655 418 q 605 558 632 520 q 537 618 579 596 q 436 641 495 641 q 272 573 327 641 q 216 362 216 506 m 708 114 q 597 17 666 53 q 436 -19 527 -19 q 279 9 345 -19 q 168 89 212 37 q 104 210 125 140 q 83 362 83 279 q 174 648 83 547 q 436 749 265 749 q 534 741 491 749 q 609 717 576 733 q 668 674 643 700 q 718 611 694 647 q 836 710 765 672 q 1002 749 907 749 q 1111 737 1057 749 q 1208 692 1165 725 q 1278 603 1251 660 q 1305 456 1305 546 q 1304 407 1305 435 q 1297 348 1304 379 l 777 348 q 793 235 779 284 q 838 153 808 186 q 918 103 869 120 q 1036 87 966 87 q 1141 102 1090 87 q 1229 145 1193 118 l 1275 58 q 1154 1 1226 22 q 1002 -19 1083 -19 q 834 15 905 -19 q 718 114 762 50 l 708 114 m 1180 440 q 1135 596 1183 549 q 1004 643 1087 643 q 852 596 908 643 q 784 440 795 549 l 1180 440 "},"Ҋ":{"x_min":123.625,"x_max":1072.3125,"ha":1056,"o":"m 770 642 l 779 749 l 773 749 l 707 640 l 208 0 l 123 0 l 123 972 l 262 972 l 262 324 l 250 219 l 256 219 l 326 329 l 823 972 l 909 972 l 909 122 l 1072 122 l 1072 88 l 933 -181 l 841 -181 l 911 0 l 770 0 l 770 642 m 388 1210 q 431 1134 395 1160 q 525 1109 466 1109 q 618 1134 583 1109 q 661 1208 654 1160 l 777 1183 q 698 1064 759 1107 q 523 1021 637 1021 q 343 1058 413 1021 q 259 1180 273 1096 l 388 1210 "},"":{"x_min":93.0625,"x_max":755.609375,"ha":808,"o":"m 548 452 q 515 452 529 452 q 483 450 501 452 q 305 403 370 443 q 240 283 240 362 q 259 202 240 237 q 311 145 277 167 q 392 112 345 123 q 495 101 438 101 q 622 117 562 101 q 715 153 682 133 l 755 48 q 646 3 718 25 q 475 -18 575 -18 q 320 0 390 -18 q 199 52 250 16 q 120 143 148 89 q 93 272 93 197 q 151 437 93 372 q 318 517 209 503 l 318 522 q 233 560 269 536 q 173 615 197 585 q 138 680 150 646 q 126 748 126 714 q 154 857 126 811 q 229 932 181 902 q 341 975 277 961 q 476 989 404 989 q 559 984 518 989 q 635 970 600 979 q 699 952 670 962 q 743 933 727 943 l 704 825 q 657 841 683 833 q 603 855 632 848 q 545 865 575 861 q 487 870 515 870 q 330 838 388 870 q 272 733 272 807 q 289 669 272 697 q 335 621 306 642 q 400 587 363 600 q 473 568 436 574 q 534 563 498 564 q 598 563 570 563 l 625 563 l 625 452 l 548 452 m 214 1104 q 237 1153 214 1135 q 300 1172 260 1172 q 362 1153 339 1172 q 386 1104 386 1135 q 362 1054 386 1073 q 300 1036 339 1036 q 237 1054 260 1036 q 214 1104 214 1073 m 511 1104 q 534 1153 511 1135 q 596 1172 557 1172 q 660 1153 636 1172 q 683 1104 683 1135 q 660 1054 683 1073 q 596 1036 636 1036 q 534 1054 557 1036 q 511 1104 511 1073 "},"":{"x_min":80.5625,"x_max":957.015625,"ha":1038,"o":"m 80 486 q 110 699 80 605 q 196 857 140 792 q 334 955 252 921 q 518 990 415 990 q 710 953 627 990 q 847 850 793 916 q 929 691 902 784 q 957 486 957 598 q 927 272 957 366 q 840 114 897 179 q 702 16 783 50 q 518 -18 620 -18 q 325 18 406 -18 q 188 121 243 55 q 107 280 134 187 q 80 486 80 373 m 227 486 q 245 337 227 406 q 297 214 262 267 q 388 131 333 162 q 518 101 443 101 q 731 194 652 101 q 809 486 809 287 q 792 633 809 563 q 739 755 775 702 q 649 839 704 808 q 518 871 594 871 q 306 776 384 871 q 227 486 227 681 m 383 1210 q 425 1134 390 1160 q 519 1109 461 1109 q 613 1134 577 1109 q 655 1208 648 1160 l 772 1183 q 693 1064 754 1107 q 518 1021 632 1021 q 338 1058 408 1021 q 254 1180 268 1096 l 383 1210 "},"ҏ":{"x_min":122.234375,"x_max":791.734375,"ha":875,"o":"m 122 729 l 208 729 l 233 636 l 245 636 q 343 720 283 690 q 477 750 402 750 q 713 661 636 750 q 791 380 791 573 q 766 216 791 289 q 693 90 740 143 l 786 -12 l 705 -87 l 605 22 q 520 -7 565 3 q 422 -19 475 -19 q 371 -16 394 -19 q 329 -9 348 -14 q 290 1 309 -5 q 250 15 270 7 l 250 -278 l 122 -278 l 122 729 m 516 270 l 600 175 q 641 263 626 211 q 655 382 655 315 q 608 571 655 500 q 448 642 561 642 q 318 600 365 642 q 250 472 270 558 l 250 136 q 319 101 281 114 q 415 89 356 89 q 533 115 484 89 l 444 210 l 516 270 "},"ӗ":{"x_min":83.34375,"x_max":741.71875,"ha":831,"o":"m 715 59 q 594 2 666 23 q 437 -19 522 -19 q 278 8 345 -19 q 168 85 211 35 q 104 205 125 135 q 83 364 83 276 q 175 650 83 551 q 438 750 268 750 q 547 738 493 750 q 644 693 601 726 q 714 604 687 661 q 741 455 741 547 q 740 403 741 433 q 734 347 738 374 l 213 347 q 275 154 216 219 q 473 89 333 89 q 584 109 531 89 q 666 157 637 129 l 715 59 m 619 439 q 574 596 622 550 q 440 642 526 642 q 286 596 343 642 q 219 439 229 550 l 619 439 m 310 989 q 329 940 317 958 q 358 913 342 922 q 397 902 375 904 q 442 900 418 900 q 487 902 465 900 q 525 915 508 905 q 554 941 542 925 q 574 987 567 958 l 674 958 q 594 843 658 876 q 439 810 529 810 q 356 816 396 810 q 283 840 315 823 q 227 884 250 857 q 196 952 204 911 l 310 989 "},"ҩ":{"x_min":83.34375,"x_max":1030.640625,"ha":1086,"o":"m 433 643 q 219 366 219 630 q 235 261 219 312 q 283 173 251 211 q 363 111 315 134 q 475 89 411 89 q 516 92 491 89 q 566 111 540 96 q 465 221 505 148 q 425 397 425 293 q 438 505 425 447 q 484 613 451 563 q 574 695 518 662 q 716 729 630 729 q 845 704 791 729 q 932 638 898 680 q 980 538 965 595 q 995 418 995 481 q 978 316 995 365 q 933 225 961 266 q 869 150 905 183 q 795 96 833 116 q 837 86 818 89 q 872 84 857 84 q 933 92 901 84 q 997 127 965 100 q 1015 82 1008 100 q 1027 46 1022 64 l 1030 35 q 954 -3 1001 11 q 851 -19 908 -19 q 759 -2 805 -19 q 680 39 713 14 q 570 -6 629 5 q 458 -19 511 -19 q 299 9 369 -19 q 181 88 229 37 q 108 209 133 139 q 83 362 83 279 q 170 641 83 540 q 433 751 256 742 l 433 643 m 555 378 q 593 228 555 296 q 694 121 632 160 q 757 167 727 139 q 810 234 787 196 q 846 318 833 272 q 859 415 859 364 q 850 489 859 453 q 823 555 841 526 q 778 602 805 584 q 713 621 751 621 q 634 598 665 621 q 586 541 604 576 q 562 463 569 507 q 555 378 555 419 "},"#":{"x_min":36.109375,"x_max":748.671875,"ha":825,"o":"m 423 307 l 266 307 l 208 79 l 95 79 l 154 307 l 36 307 l 59 407 l 180 407 l 225 579 l 112 579 l 136 679 l 251 679 l 306 893 l 419 893 l 363 679 l 520 679 l 576 893 l 688 893 l 633 679 l 748 679 l 722 579 l 607 579 l 562 407 l 672 407 l 645 307 l 536 307 l 476 79 l 365 79 l 423 307 m 293 407 l 450 407 l 494 579 l 337 579 l 293 407 "},"Џ":{"x_min":123.625,"x_max":875.0625,"ha":999,"o":"m 262 972 l 262 122 l 736 122 l 736 972 l 875 972 l 875 0 l 569 0 l 547 -247 l 459 -247 l 429 0 l 123 0 l 123 972 l 262 972 "},"":{"x_min":83.34375,"x_max":443.09375,"ha":526,"o":"m 443 1045 l 323 1045 l 83 1177 l 83 1209 l 266 1209 l 443 1045 "},"Å":{"x_min":11.109375,"x_max":884.796875,"ha":896,"o":"m 284 1067 q 322 1153 284 1119 q 448 1187 359 1187 q 571 1156 529 1187 q 613 1067 613 1125 q 593 1002 613 1024 q 552 972 572 980 q 495 953 529 959 l 884 0 l 740 0 l 634 254 l 250 254 l 147 0 l 11 0 l 398 953 q 338 972 368 959 q 304 1001 325 978 q 284 1067 284 1023 m 291 371 l 594 371 l 481 647 l 444 795 l 441 795 l 404 644 l 291 371 m 381 1067 q 397 1031 381 1047 q 448 1016 412 1016 q 516 1067 516 1016 q 500 1107 516 1092 q 448 1122 483 1122 q 397 1107 413 1122 q 381 1067 381 1092 "},"ș":{"x_min":75,"x_max":618.109375,"ha":693,"o":"m 490 204 q 477 250 490 232 q 441 282 463 269 q 390 305 419 296 q 329 325 361 315 q 247 349 288 336 q 174 385 206 362 q 120 444 141 408 q 100 536 100 480 q 164 697 100 644 q 345 750 229 750 q 493 733 433 750 q 597 697 552 716 l 566 589 q 477 624 529 607 q 362 642 425 642 q 261 619 294 642 q 227 539 227 597 q 240 499 227 515 q 273 471 252 483 q 322 450 294 459 q 380 433 350 441 q 463 407 422 422 q 540 368 505 393 q 596 307 575 344 q 618 212 618 269 q 548 45 618 110 q 340 -19 479 -19 q 185 0 251 -19 q 75 40 119 17 l 111 152 q 211 110 150 131 q 334 89 272 89 q 446 113 402 89 q 490 204 490 137 m 250 -141 q 275 -91 250 -110 q 331 -72 299 -72 q 401 -98 371 -72 q 431 -180 431 -124 q 417 -247 431 -218 q 384 -297 403 -276 q 343 -330 364 -318 q 305 -349 321 -343 l 264 -293 q 309 -260 291 -282 q 328 -207 328 -239 q 273 -194 296 -213 q 250 -141 250 -174 "},"":{"x_min":-8.328125,"x_max":788.953125,"ha":817,"o":"m 561 621 l 325 621 l 322 579 q 299 332 312 441 q 261 147 286 223 q 194 32 236 72 q 86 -7 152 -7 q 31 -3 55 -7 q -8 6 8 0 l 11 123 q 51 118 29 118 q 111 142 84 118 q 156 233 137 166 q 188 419 176 299 q 206 729 201 538 l 688 729 l 688 108 l 788 108 l 788 -183 l 698 -183 l 676 0 l 561 0 l 561 621 "},"Ѵ":{"x_min":-6.9375,"x_max":1004.25,"ha":915,"o":"m 472 -14 l 401 -14 l -6 972 l 145 972 l 408 324 l 445 173 l 448 173 l 473 327 l 587 676 q 645 827 618 767 q 702 921 672 887 q 770 969 733 956 q 861 983 808 983 q 945 973 913 983 q 1004 949 976 964 l 966 836 q 910 856 936 852 q 861 861 884 861 q 793 831 820 861 q 737 719 765 801 l 472 -14 "},"Ә":{"x_min":76.390625,"x_max":888.953125,"ha":970,"o":"m 226 434 q 222 400 223 417 q 220 367 220 384 q 235 268 220 316 q 280 182 250 220 q 357 123 311 145 q 468 101 404 101 q 675 183 602 101 q 750 434 748 266 l 226 434 m 750 551 q 660 793 737 715 q 430 871 583 871 q 359 864 394 871 q 293 849 325 858 q 236 829 262 840 q 194 809 211 818 l 162 920 q 284 968 206 946 q 456 990 362 990 q 638 961 558 990 q 775 871 719 933 q 859 715 830 810 q 888 486 888 619 q 783 113 888 245 q 465 -18 677 -18 q 296 11 369 -18 q 175 93 223 40 q 101 223 126 147 q 76 394 76 299 q 80 469 76 430 q 91 551 84 509 l 750 551 "},"¸":{"x_min":93.0625,"x_max":362.53125,"ha":451,"o":"m 273 0 l 229 -73 q 329 -109 297 -84 q 362 -180 362 -134 q 311 -274 362 -239 q 168 -310 259 -310 q 131 -308 150 -310 q 93 -303 112 -307 l 105 -253 q 181 -251 154 -255 q 223 -237 209 -247 q 240 -216 237 -227 q 244 -193 244 -204 q 209 -156 244 -169 q 106 -136 173 -143 l 188 0 l 273 0 "},"=":{"x_min":59.734375,"x_max":709.78125,"ha":770,"o":"m 59 646 l 709 646 l 709 529 l 59 529 l 59 646 m 59 407 l 709 407 l 709 290 l 59 290 l 59 407 "},"Ћ":{"x_min":26.390625,"x_max":1045.921875,"ha":1140,"o":"m 493 0 l 354 0 l 354 850 l 26 850 l 26 972 l 820 972 l 820 850 l 493 850 l 493 549 q 600 591 533 570 q 754 612 668 612 q 871 598 818 612 q 963 552 925 584 q 1024 467 1002 520 q 1045 338 1045 414 l 1045 0 l 907 0 l 907 308 q 722 493 907 493 q 591 476 651 493 q 493 430 530 459 l 493 0 "},"ú":{"x_min":122.234375,"x_max":772.28125,"ha":895,"o":"m 250 729 l 250 327 q 256 225 250 269 q 281 150 263 180 q 331 104 300 120 q 411 89 362 89 q 547 136 494 89 q 627 252 600 183 l 627 729 l 755 729 l 755 206 q 759 99 755 154 q 772 0 763 44 l 686 0 l 652 121 l 638 121 q 538 19 602 58 q 379 -19 475 -19 q 267 -3 315 -19 q 186 48 219 11 q 138 146 154 85 q 122 298 122 207 l 122 729 l 250 729 m 453 1000 l 597 1000 l 597 968 l 442 792 l 364 792 l 453 1000 "},"˚":{"x_min":93.0625,"x_max":401.421875,"ha":490,"o":"m 93 948 q 133 1044 93 1007 q 244 1081 173 1081 q 356 1048 311 1081 q 401 948 401 1015 q 389 897 401 920 q 356 856 377 873 q 306 828 336 838 q 244 818 277 818 q 135 852 177 818 q 93 948 93 886 m 172 948 q 195 903 172 920 q 244 886 218 886 q 299 901 276 886 q 322 948 322 916 q 298 996 322 980 q 244 1013 275 1013 q 194 997 216 1013 q 172 948 172 982 "},"д":{"x_min":0,"x_max":833.40625,"ha":867,"o":"m 833 -183 l 745 -183 l 723 0 l 109 0 l 84 -183 l 0 -183 l 0 108 l 93 108 q 128 166 106 124 q 170 282 150 208 q 207 466 191 356 q 225 729 223 576 l 715 729 l 715 108 l 833 108 l 833 -183 m 587 108 l 587 621 l 340 621 q 327 487 336 558 q 304 347 319 416 q 270 216 290 279 q 225 108 251 153 l 587 108 "},"ӥ":{"x_min":122.234375,"x_max":754.234375,"ha":876,"o":"m 626 416 l 645 560 l 630 560 l 562 424 l 220 0 l 122 0 l 122 729 l 250 729 l 250 298 l 240 170 l 255 170 l 319 294 l 654 729 l 754 729 l 754 0 l 626 0 l 626 416 m 198 881 q 220 936 198 914 q 278 959 242 959 q 335 936 313 959 q 356 881 356 914 q 335 827 356 849 q 278 805 313 805 q 220 827 242 805 q 198 881 198 849 m 496 881 q 518 936 496 914 q 576 959 540 959 q 633 936 612 959 q 655 881 655 914 q 633 827 655 849 q 576 805 612 805 q 518 827 540 805 q 496 881 496 849 "},"¯":{"x_min":83.34375,"x_max":538.9375,"ha":622,"o":"m 83 925 l 538 925 l 538 829 l 83 829 l 83 925 "},"":{"x_min":81.953125,"x_max":262.515625,"ha":346,"o":"m 81 -141 q 106 -91 81 -110 q 162 -72 130 -72 q 232 -98 202 -72 q 262 -180 262 -124 q 248 -247 262 -218 q 215 -297 234 -276 q 174 -330 195 -318 q 136 -349 152 -343 l 95 -293 q 140 -260 122 -282 q 159 -207 159 -239 q 104 -194 127 -213 q 81 -141 81 -174 "},"u":{"x_min":122.234375,"x_max":772.28125,"ha":895,"o":"m 250 729 l 250 327 q 256 225 250 269 q 281 150 263 180 q 331 104 300 120 q 411 89 362 89 q 547 136 494 89 q 627 252 600 183 l 627 729 l 755 729 l 755 206 q 759 99 755 154 q 772 0 763 44 l 686 0 l 652 121 l 638 121 q 538 19 602 58 q 379 -19 475 -19 q 267 -3 315 -19 q 186 48 219 11 q 138 146 154 85 q 122 298 122 207 l 122 729 l 250 729 "},"":{"x_min":83.34375,"x_max":675.046875,"ha":797,"o":"m 211 729 l 211 549 q 215 470 211 505 q 236 410 220 435 q 281 372 252 385 q 355 359 309 359 q 474 375 426 359 q 547 410 522 391 l 547 729 l 675 729 l 675 -33 q 628 -224 675 -162 q 476 -286 581 -286 q 418 -281 448 -286 l 418 -178 q 486 -168 461 -179 q 525 -137 511 -158 q 543 -80 538 -115 q 547 0 547 -46 l 547 309 q 466 271 520 292 q 322 251 412 251 q 218 263 263 251 q 143 306 173 276 q 98 387 113 337 q 83 515 83 438 l 83 729 l 211 729 "},"З":{"x_min":61.109375,"x_max":738.953125,"ha":818,"o":"m 206 455 l 206 563 l 230 563 q 263 563 243 563 q 304 564 283 563 q 346 566 326 565 q 379 569 366 567 q 506 617 454 579 q 559 719 559 656 q 543 791 559 763 q 499 837 527 819 q 433 862 470 854 q 354 870 395 870 q 213 857 273 870 q 122 829 154 844 l 84 940 q 127 956 98 948 q 195 972 156 965 q 279 984 233 979 q 375 989 326 989 q 495 977 436 989 q 602 937 555 965 q 677 864 648 909 q 707 748 707 818 q 657 617 707 679 q 508 527 608 554 l 508 521 q 677 447 615 506 q 738 287 738 387 q 704 150 738 208 q 613 55 669 93 q 485 0 556 18 q 338 -18 413 -18 q 170 -6 238 -18 q 61 22 102 5 l 95 142 q 195 113 131 126 q 350 101 258 101 q 436 112 393 101 q 513 145 479 123 q 570 202 548 167 q 591 283 591 236 q 527 406 591 367 q 347 452 462 445 q 315 454 329 453 q 281 455 301 455 l 206 455 "},"é":{"x_min":83.34375,"x_max":741.71875,"ha":831,"o":"m 715 59 q 594 2 666 23 q 437 -19 522 -19 q 278 8 345 -19 q 168 85 211 35 q 104 205 125 135 q 83 364 83 276 q 175 650 83 551 q 438 750 268 750 q 547 738 493 750 q 644 693 601 726 q 714 604 687 661 q 741 455 741 547 q 740 403 741 433 q 734 347 738 374 l 213 347 q 275 154 216 219 q 473 89 333 89 q 584 109 531 89 q 666 157 637 129 l 715 59 m 619 439 q 574 596 622 550 q 440 642 526 642 q 286 596 343 642 q 219 439 229 550 l 619 439 m 457 1000 l 601 1000 l 601 968 l 446 792 l 368 792 l 457 1000 "},"Ş":{"x_min":66.671875,"x_max":740.34375,"ha":807,"o":"m 112 157 q 217 119 147 138 q 372 101 287 101 q 462 110 420 101 q 535 137 504 119 q 584 185 566 156 q 601 255 601 215 q 563 345 601 312 q 469 403 526 379 q 347 449 412 427 q 225 504 281 470 q 130 590 168 537 q 93 727 93 642 q 179 917 93 845 q 427 990 266 990 q 598 976 520 990 q 720 939 676 962 l 677 823 q 573 856 643 841 q 420 871 504 871 q 279 830 326 871 q 231 737 231 790 q 269 649 231 683 q 363 590 306 616 q 486 541 420 565 q 608 483 551 517 q 702 397 665 448 q 740 268 740 347 q 661 74 740 148 q 440 -13 581 0 l 405 -73 q 506 -109 473 -84 q 538 -180 538 -134 q 487 -274 538 -239 q 344 -310 436 -310 q 307 -308 326 -310 q 269 -303 288 -307 l 281 -253 q 358 -251 330 -255 q 400 -237 386 -247 q 417 -216 413 -227 q 420 -193 420 -204 q 385 -156 420 -169 q 283 -136 350 -143 l 354 -18 q 177 1 250 -15 q 66 36 105 18 l 112 157 "}}}
